<?xml version="1.0" encoding="UTF-8"?><svg id="Layer_2" xmlns="http://www.w3.org/2000/svg" xmlns:xlink="http://www.w3.org/1999/xlink" viewBox="0 0 118.75 82.76"><defs><style>.cls-1{fill:url(#linear-gradient);}.cls-1,.cls-2{stroke-width:0px;}.cls-2{fill:#fff;}</style><linearGradient id="linear-gradient" x1="59.38" y1="35.15" x2="59.38" y2="0" gradientUnits="userSpaceOnUse"><stop offset="0" stop-color="#000a1f"/><stop offset=".19" stop-color="#081f51"/><stop offset=".48" stop-color="#133c97"/><stop offset=".72" stop-color="#1b51ca"/><stop offset=".9" stop-color="#215fea"/><stop offset="1" stop-color="#2364f6"/></linearGradient></defs><g id="Benefits"><g id="Empower_Icon"><path class="cls-1" d="M59.38,0c-9.79,0-17.74,8.01-17.74,17.91,0,8.06,5.28,14.88,12.54,17.12,1.22-1.37,2.97-2.23,4.93-2.23,1.77,0,3.36.65,4.62,1.89.15.14.31.29.44.46,7.47-2.11,12.94-9.02,12.94-17.24,0-9.89-7.94-17.91-17.74-17.91h0ZM67.91,15.25l-8.33,8.48c-.4.41-.94.61-1.48.61s-1.14-.2-1.54-.61l-4.71-4.75c-.88-.88-.88-2.24,0-3.12.88-.88,2.22-.88,3.09,0l3.09,3.12,6.79-6.86c.88-.88,2.22-.88,3.09,0,.88.88.88,2.24,0,3.12h0Z"/><path class="cls-2" d="M101.01,0c-9.79,0-17.74,8.01-17.74,17.91s7.94,17.91,17.74,17.91,17.74-8.01,17.74-17.91S110.81,0,101.01,0ZM106.78,20.55c.87.88.87,2.3,0,3.19-.87.88-2.28.88-3.16,0l-2.61-2.65-2.61,2.65c-.87.88-2.28.88-3.16,0-.88-.88-.87-2.3,0-3.19l2.61-2.64-2.61-2.64c-.87-.88-.87-2.3,0-3.19.87-.88,2.28-.88,3.16,0l2.61,2.65,2.61-2.65c.87-.88,2.28-.88,3.16,0,.88.88.87,2.3,0,3.19l-2.61,2.64,2.61,2.64Z"/><path class="cls-2" d="M17.74,0C7.94,0,0,8.01,0,17.91s7.94,17.91,17.74,17.91,17.74-8.01,17.74-17.91S27.53,0,17.74,0ZM23.51,20.55c.87.88.87,2.3,0,3.19-.87.88-2.28.88-3.16,0l-2.61-2.65-2.61,2.65c-.87.88-2.28.88-3.16,0-.88-.88-.87-2.3,0-3.19l2.61-2.64-2.61-2.64c-.87-.88-.87-2.3,0-3.19.87-.88,2.28-.88,3.16,0l2.61,2.65,2.61-2.65c.87-.88,2.28-.88,3.16,0,.88.88.87,2.3,0,3.19l-2.61,2.64,2.61,2.64Z"/><path class="cls-2" d="M84.34,59.09c0-2.18-1.78-3.88-3.84-3.88-1.4,0-2.63.76-3.28,1.8v-.09c0-2.18-1.78-3.88-3.84-3.88-1.4,0-2.63.76-3.28,1.8v-.09c0-2.18-1.78-3.88-3.84-3.88-1.4,0-2.63.76-3.28,1.8v-13.16c0-1.04-.38-2.08-1.13-2.74-.75-.76-1.69-1.14-2.72-1.14-2.15,0-3.84,1.8-3.84,3.88v24.24c0,.19-.09.38-.38.47-.19.09-.47,0-.56-.09l-3.94-3.98c-1.31-1.33-3.47-1.52-4.97-.47-.94.67-1.5,1.61-1.69,2.74-.19,1.14.19,2.27.84,3.12l9.85,11.93c2.82,3.41,6.85,5.31,11.25,5.31h5.91c3.38,0,6.66-1.33,9.1-3.79,2.44-2.46,3.75-5.68,3.75-9.19l-.09-10.7h-.01Z"/></g></g></svg>