<?xml version="1.0" encoding="UTF-8"?><svg id="Layer_2" xmlns="http://www.w3.org/2000/svg" viewBox="0 0 97.89 72.56"><defs><style>.cls-1{fill:#fff;}.cls-1,.cls-2{fill-rule:evenodd;}.cls-1,.cls-2,.cls-3{stroke-width:0px;}.cls-2,.cls-3{fill:#2364f6;}</style></defs><g id="Benefits"><g id="Automated_Support_Icon"><path class="cls-3" d="M60.95,28.36c-1.4,0-2.75-.55-3.74-1.54l-8.31-8.31c-2.26-2.27-2.24-5.95.03-8.21,2.26-2.25,5.91-2.25,8.18,0l3.88,3.88,12.47-12.47c2.25-2.27,5.91-2.28,8.17-.03,2.27,2.25,2.28,5.91.03,8.17-.01.01-.02.02-.03.03l-16.91,16.91c-1,1-2.35,1.56-3.77,1.56ZM53.02,11.5c-1.61,0-2.92,1.3-2.92,2.91,0,.77.3,1.5.84,2.05l8.31,8.31c.95.94,2.48.93,3.42-.01l16.91-16.91c1.14-1.12,1.15-2.95.03-4.09-1.12-1.14-2.95-1.15-4.09-.03-.01.01-.02.02-.03.03l-13.49,13.49c-.56.56-1.48.56-2.04,0,0,0,0,0,0,0l-4.9-4.9c-.54-.54-1.27-.84-2.04-.84Z"/><path class="cls-1" d="M96.24,42.73c1.68-1.03,2.19-4.04,1.03-5.97-1.68-2.8-6.11-2.47-11.86.88l-15.72,9.15c-3.03,1.77-6.3,2.34-9.98,1.75-.67-.11-1.34-.22-1.99-.35-.14,0-12.38-3.19-13.78-3.57-.92-.24-1.46-1.18-1.2-2.08.24-.91,1.17-1.44,2.07-1.2,1.43.38,10.12,2.85,13.38,3.48,1.67.1,3.6-.36,4.26-2.81.54-2.01-.64-4.05-2.76-4.78-5.95-1.09-11.69-3.16-16.3-4.84-1.62-.58-3.01-1.08-4.21-1.47-3.8-1.23-7.39.38-10.72,2.31l-14.85,8.61,9.88,17.48,4.03-2.33c.39-.23.85-.29,1.3-.17l26.14,7.01c3.35.9,6.49.45,9.37-1.32l31.9-19.78Z"/><path class="cls-2" d="M24.25,67.57L7.86,38.62c-.16-.28-.42-.49-.75-.58-.1-.03-.22-.04-.33-.04-.21,0-.41.05-.59.16l-5.58,3.15c-.59.33-.8,1.08-.46,1.67l16.39,28.96c.33.59,1.09.8,1.67.46l5.58-3.15c.28-.16.48-.42.57-.74.09-.32.06-.65-.11-.93ZM5.84,45.48c-1.1.16-2.09-.59-2.25-1.68-.16-1.09.59-2.1,1.67-2.26,1.1-.16,2.11.59,2.26,1.68h0c.16,1.09-.6,2.1-1.68,2.26Z"/></g></g></svg>