<?xml version="1.0" encoding="UTF-8"?><svg id="Layer_2" xmlns="http://www.w3.org/2000/svg" xmlns:xlink="http://www.w3.org/1999/xlink" viewBox="0 0 69.77 80.83"><defs><style>.cls-1{fill:url(#linear-gradient);}.cls-1,.cls-2{stroke-width:0px;}.cls-2{fill:#fff;}</style><linearGradient id="linear-gradient" x1="34.88" y1="50.28" x2="34.88" y2="17.95" gradientUnits="userSpaceOnUse"><stop offset="0" stop-color="#000a1f"/><stop offset=".09" stop-color="#061b48"/><stop offset=".2" stop-color="#0e2e76"/><stop offset=".32" stop-color="#143f9d"/><stop offset=".44" stop-color="#194cbd"/><stop offset=".57" stop-color="#1d56d6"/><stop offset=".7" stop-color="#205ee8"/><stop offset=".84" stop-color="#2262f2"/><stop offset="1" stop-color="#2364f6"/></linearGradient></defs><g id="Benefits"><g id="PCI_Icon"><path class="cls-2" d="M34.88,0L0,7.66v20.51c0,16.93,8.08,32.93,21.7,42.97l13.19,9.7,13.19-9.7c13.61-9.95,21.7-26.04,21.7-42.97V7.66L34.88,0ZM63.9,28.16c0,14.97-7.23,29.27-19.31,38.2l-9.7,7.15-9.7-7.15C13.1,57.52,5.87,43.22,5.87,28.16v-15.74l29.01-6.38,29.01,6.38v15.74Z"/><path class="cls-1" d="M25.78,27.06v4.51h-2.3c-.85,0-1.62.68-1.62,1.62v15.49c0,.85.68,1.62,1.62,1.62h22.8c.85,0,1.62-.68,1.62-1.62v-15.49c0-.85-.68-1.62-1.62-1.62h-2.3v-4.51c0-5.02-4.08-9.1-9.1-9.1-5.02,0-9.1,4.08-9.1,9.1h0ZM36.84,44.5c.17.51-.26,1.02-.77,1.02h-2.38c-.51,0-.94-.51-.77-1.02l.77-2.89c-.94-.43-1.53-1.36-1.53-2.47,0-1.53,1.28-2.72,2.72-2.72,1.53,0,2.72,1.28,2.72,2.72,0,1.11-.6,1.96-1.53,2.47l.77,2.89ZM39.48,27.06v4.51h-9.19v-4.51c0-2.55,2.04-4.59,4.59-4.59,2.55,0,4.59,2.13,4.59,4.59h0Z"/></g></g></svg>