<svg height="217" preserveAspectRatio="xMidYMid" viewBox="0 0 207 217" width="207" xmlns="http://www.w3.org/2000/svg"><g fill-rule="evenodd"><g fill="#2476ff"><path d="m88.967 195.564h15.759c3.037 0 5.5 1.546 5.5 3.452 0 1.908-2.463 3.454-5.5 3.454h-.735c-3.038 0-5.501 1.546-5.501 3.452 0 1.908 2.463 3.454 5.501 3.454h33.876c3.039 0 5.502 1.546 5.502 3.453s-2.463 3.453-5.502 3.453h-40.71-44.744c-3.039 0-5.502-1.546-5.502-3.453s2.463-3.453 5.502-3.453h9.401c3.038 0 5.501-1.546 5.501-3.454 0-1.906-2.463-3.452-5.501-3.452h-44.744c-3.038 0-5.502-1.546-5.502-3.454 0-1.906 2.464-3.452 5.502-3.452h10.575z"/><path d="m198.477 215.062c4.557 0 8.251-2.318 8.251-5.179s-3.694-5.18-8.251-5.18h-25.289c-4.557 0-8.251 2.319-8.251 5.18s3.694 5.179 8.251 5.179z"/><path d="m33.529 184.174c4.558 0 8.252-2.319 8.252-5.18s-3.694-5.18-8.252-5.18h-25.287c-4.559 0-8.253 2.319-8.253 5.18s3.694 5.18 8.253 5.18z"/><path d="m158.063 116.719h26.169c4.611 0 8.348 2.963 8.348 6.619 0 3.655-3.737 6.619-8.348 6.619h-1.151-10.62c-4.61 0-8.348 2.962-8.348 6.618s3.738 6.618 8.348 6.618h25.268c4.61 0 8.347 2.964 8.347 6.618 0 3.657-3.737 6.619-8.347 6.619h-28.721s-4.818-.242-4.818-.242c-4.61 0-8.348 2.963-8.348 6.619 0 3.654 3.738 6.618 8.348 6.618h25.268c4.61 0 8.347 2.964 8.347 6.619s-3.737 6.618-8.347 6.618c0 0-91.879.244-91.879.244-4.612 0-8.349-2.964-8.349-6.619 0-3.656 3.737-6.619 8.349-6.619h25.267c4.611 0 8.347-2.964 8.347-6.619 0-3.654-3.736-6.619-8.347-6.619h-62.791-28.721c-4.61 0-8.347-2.962-8.347-6.619 0-3.654 3.737-6.618 8.347-6.618h25.268c4.61 0 8.347-2.962 8.347-6.618s-3.737-6.618-8.347-6.618h-10.62-28.721c-4.61 0-8.347-2.964-8.347-6.619 0-3.656 3.737-6.619 8.347-6.619h53.739z"/></g><path d="m61.307 142.038c11.074 4.073 49.919 15.38 109.243.965-3.686-.687-6.437-3.296-6.437-6.428 0-3.656 3.738-6.618 8.348-6.618h7.715c.894-.216 1.823-.365 2.806-.365h3.866c.93-.244 1.782-.61 2.535-1.082 1.086-1.638 2.161-3.392 3.185-5.268-.065-3.609-3.766-6.523-8.336-6.523h-26.169-87.063-46.669c3.383 4.743 7.254 9.135 11.789 12.873h11.622c.982 0 1.91.149 2.805.365h6.055c4.61 0 8.347 2.962 8.347 6.618 0 2.27-1.444 4.271-3.642 5.463z" opacity=".35"/><path d="m157.866 49.684c14.376 5.89 34.988-10.213 34.988-10.213 14.347-14.213 0-18.073 0-18.073-13.444 4.608-23.893 4.762-31.146 3.697-3.489-14.393-16.532-25.105-32.131-25.105-18.269 0-33.079 14.672-33.079 32.769 0 13.163 7.852 24.482 19.154 29.693-2.328 5.595-7.883 9.537-14.371 9.537-1.083 0-94.85-23.832-94.85-23.832s.797 71.854 47.426 83.698c0 0 38.657 18.16 104.015 0 0 0 37.463-35.532 0-60.8 0 0-6.943-7.926-7.464-12.855 2.96-2.38 5.473-5.272 7.458-8.516z" fill="#fbb713"/><path d="m158.422 71.455c14.958 23.232-12.117 48.94-12.117 48.94-65.359 18.161-104.016 0-104.016 0-6.205-1.576-11.577-4.239-16.264-7.629 6.716 8.867 15.716 16.011 27.832 19.089 0 0 38.657 18.16 104.015 0 0 0 37.043-35.159.55-60.4z" opacity=".2"/><path d="m138.743 25.653c0 2.835-2.32 5.132-5.182 5.132-2.86 0-5.18-2.297-5.18-5.132 0-2.834 2.32-5.133 5.18-5.133 2.862 0 5.182 2.299 5.182 5.133z" fill="#142a3b"/><path d="m93.424 113.351c-.32 0-.636-.011-.959-.034-3.857-.274-7.417-2.176-10.026-5.354-1.339-1.635-3.102-2.599-4.953-2.713-1.767-.109-3.539.576-4.973 1.934 0 0-1.982 1.879-1.982 1.879-2.959 2.807-6.748 4.193-10.61 3.908-3.981-.293-7.616-2.301-10.235-5.652 0 0-6.4-8.185-6.4-8.185-1.23-1.574-.939-3.838.65-5.058 1.595-1.219 3.874-.931 5.107.643 0 0 6.399 8.187 6.399 8.187 1.34 1.715 3.121 2.735 5.018 2.875 1.795.136 3.589-.554 5.039-1.928 0 0 1.984-1.88 1.984-1.88 2.92-2.765 6.641-4.159 10.458-3.919 3.902.243 7.508 2.145 10.145 5.361 1.329 1.618 3.067 2.58 4.901 2.71 1.741.122 3.493-.524 4.922-1.829 0 0 3.272-2.995 3.272-2.995 2.836-2.59 6.365-3.921 10.081-3.741 3.721.182 7.221 1.896 9.854 4.827 0 0 .928 1.032.928 1.032 1.389 1.545 3.167 2.407 5.008 2.427 1.836.034 3.607-.795 5.01-2.294 0 0 8.514-9.079 8.514-9.079 1.361-1.46 3.671-1.541 5.142-.187 1.471 1.355 1.557 3.635.189 5.094 0 0-8.515 9.08-8.515 9.08-2.818 3.005-6.499 4.622-10.419 4.595-3.912-.041-7.593-1.76-10.367-4.841 0 0-.926-1.032-.926-1.032-1.326-1.475-3.02-2.335-4.776-2.42-1.72-.083-3.38.552-4.787 1.837 0 0-3.274 2.996-3.274 2.996-2.671 2.441-5.987 3.756-9.419 3.756z" fill="#ff3a2f"/></g></svg>