<?xml version="1.0" encoding="UTF-8"?><svg id="Layer_2" xmlns="http://www.w3.org/2000/svg" xmlns:xlink="http://www.w3.org/1999/xlink" viewBox="0 0 91.54 81.73"><defs><style>.cls-1{fill:url(#linear-gradient);}.cls-1,.cls-2{stroke-width:0px;}.cls-2{fill:#fff;}</style><linearGradient id="linear-gradient" x1="69.51" y1="4.56" x2="28.67" y2="75.31" gradientUnits="userSpaceOnUse"><stop offset="0" stop-color="#2364f6"/><stop offset=".13" stop-color="#1f5ce5"/><stop offset=".38" stop-color="#1749ba"/><stop offset=".73" stop-color="#0a2b75"/><stop offset="1" stop-color="#00133d"/></linearGradient></defs><g id="Benefits"><g id="Time_Icon"><polygon class="cls-2" points="66.13 18.5 50.38 34.24 44.12 40.49 50.38 46.76 50.38 46.76 62.45 58.83 63.53 57.76 54.06 40.81 67.2 19.57 66.13 18.5"/><path class="cls-1" d="M50.68,0C28.57,0,10.57,17.64,9.87,39.56H0l14.13,17.79,14.11-17.78h-10.2c.69-17.43,15.04-31.4,32.63-31.4s32.69,14.66,32.69,32.69-14.67,32.69-32.69,32.69c-8.76,0-16.71-3.48-22.58-9.1l-5.59,5.94c7.34,7.01,17.25,11.34,28.18,11.34,22.53,0,40.87-18.33,40.87-40.86S73.21,0,50.68,0Z"/></g></g></svg>