<svg width="1019" height="776" viewBox="0 0 1019 776" fill="none" xmlns="http://www.w3.org/2000/svg">
<path d="M756.485 184.017L731.197 158.745L727.598 162.335L719.239 153.981L722.825 150.398L688.031 115.626L680.253 123.399L663.536 106.692L680.253 89.9851L696.97 106.692L689.192 114.466L723.986 149.238L727.591 145.635L735.95 153.988L732.351 157.578L758.124 183.335L757.509 266.024L799.848 308.338L807.627 300.564L824.344 317.271L816.566 325.045L916.105 424.523L914.937 425.69L822.452 333.262L821.961 401.209L927.325 506.509L935.103 498.736L951.82 515.443L935.103 532.15L918.386 515.443L926.157 507.669L806.288 387.874L806.288 387.526L806.684 333.037L790.903 317.264L798.681 309.491L755.856 266.693L756.471 184.003L756.485 184.017ZM921.937 515.45L935.117 528.621L948.296 515.45L935.117 502.278L921.937 515.45ZM808.351 333.275L807.961 387.205L820.335 399.571L820.827 331.624L815.412 326.212L808.351 333.269L808.351 333.275Z"></path>
<path d="M935.107 509.994L940.627 515.51L935.107 521.025L929.588 515.51L935.107 509.994Z"></path>
<path d="M1089.93 630.782L1094.35 626.373L1089.93 621.964L1088.31 623.582L1045.95 581.254L1046.51 506.925L1024.37 484.799L1027.97 481.21L1019.61 472.856L1011.25 481.21L1019.61 489.563L1023.2 485.973L1044.85 507.601L1044.3 581.937L1087.14 624.749L1085.52 626.373L1089.93 630.782Z"></path>
<path d="M969.091 351.3L922.326 304.42L885.682 304.693L885.436 304.447L827.28 246.396L825.102 248.573L819.584 243.058L825.102 237.544L830.62 243.058L828.448 245.229L877.787 294.483L914.445 294.21L969.78 349.655L990.028 349.655L1005.93 333.767L1022.64 350.474L1005.93 367.181L990.042 351.306L969.091 351.306L969.091 351.3ZM992.746 350.467L1005.93 363.639L1019.11 350.467L1005.93 337.295L992.746 350.467ZM920.687 302.782L913.762 295.862L879.426 296.121L886.358 303.042L920.68 302.789L920.687 302.782Z"></path>
<path d="M699.517 76.9837L648.15 25.6476L640.378 33.4142L623.661 16.7071L640.378 3.35523e-06L657.096 16.7071L649.317 24.4737L700.685 75.8098L699.517 76.9768L699.517 76.9837ZM653.551 16.7071L640.371 3.53524L627.192 16.7071L640.371 29.8789L653.551 16.7071Z"></path>
<path d="M640.323 11.2875L645.842 16.8035L640.323 22.3194L634.804 16.8035L640.323 11.2875Z"></path>
<path d="M866.554 342.762L874.332 334.988L793.17 253.875L793.73 178.393L786.307 170.975L789.933 167.351L709.645 87.098L710.812 85.9309L791.107 166.177L794.665 162.621L803.024 170.975L799.459 174.537L866.376 241.468L949.116 240.854L1048.18 339.861L1055.96 332.088L1072.68 348.795L1055.96 365.502L1039.24 348.795L1047.02 341.021L966.352 260.4L883.613 261.014L798.271 175.725L795.389 178.605L794.836 253.186L875.507 333.807L883.285 326.041L900.002 342.748L883.285 359.455L866.567 342.748L866.554 342.762ZM868.015 243.113L884.282 259.369L964.706 258.776L948.44 242.519L868.022 243.113L868.015 243.113Z"></path>
<path d="M705.324 76.1115L710.843 81.6274L705.324 87.1434L699.804 81.6274L705.324 76.1115Z"></path>
<path d="M920.551 425.597L924.964 430.008L920.551 434.419L916.137 430.008L920.551 425.597Z"></path>
<path d="M909.329 363.138L914.848 368.655L909.328 374.17L903.809 368.653L909.329 363.138Z"></path>
<path d="M926.116 434.528L964.761 473.142L964.98 389.136L945.312 369.46L925.058 369.46L918.126 376.387L944.015 402.239L945.64 400.615L950.052 405.031L945.64 409.44L941.229 405.031L942.847 403.413L916.958 377.568L909.153 385.369L892.436 368.661L909.153 351.954L925.037 367.829L945.988 367.829L980.645 402.492L980.42 488.812L987.857 496.244L994.897 489.208L995.109 408.464L1021.18 382.427L1013.39 374.647L1030.11 357.94L1046.82 374.647L1039.05 382.42L1096.33 439.673L1096.7 390.726L1075.57 369.617L1073.95 371.241L1069.54 366.832L1073.95 362.424L1078.36 366.832L1076.74 368.457L1098.35 390.057L1097.97 441.325L1120.2 463.547L1119.9 504.564L1127.38 512.037L1123.78 515.627L1209.12 600.916L1208.84 639.101L1213.53 643.789L1208.02 649.304L1202.5 643.789L1207.2 639.094L1207.48 601.599L1122.63 516.8L1119.03 520.397L1110.67 512.044L1118.26 504.461L1118.56 464.229L1037.89 383.608L1030.11 391.374L1022.34 383.615L996.762 409.167L996.55 489.413L1012.35 505.205L995.635 521.912L978.918 505.205L986.696 497.432L924.948 435.729L926.116 434.562L926.116 434.528ZM922.34 368.641L909.16 355.469L895.98 368.641L909.16 381.813L922.34 368.641ZM966.407 474.794L978.774 487.154L978.993 403.161L966.626 390.787L966.407 474.794Z"></path>
<path d="M730.391 72.7592L713.674 56.0521L730.391 39.345L747.108 56.0521L739.33 63.8255L807.756 132.237L890.496 131.623L933.327 174.421L941.099 166.655L956.88 182.427L1011.75 182.031L1073.74 243.98L1081.52 236.206L1098.23 252.913L1081.52 269.62L1064.8 252.913L1072.58 245.14L1011.08 183.683L957.113 184.072L950.051 191.128L990.301 231.347L989.134 232.514L948.884 192.295L941.106 200.069L925.331 184.304L863.119 184.768L858.38 189.504L852.862 183.99L858.38 178.475L863.023 183.116L925.099 182.652L932.166 175.588L904.625 148.064L821.886 148.678L738.176 64.9926L730.398 72.766L730.391 72.7592ZM1081.52 239.735L1068.34 252.906L1081.52 266.078L1094.7 252.906L1081.52 239.735ZM809.402 133.868L822.555 147.013L902.979 146.419L889.827 133.275L809.402 133.875L809.402 133.868ZM743.571 56.0453L730.391 42.8734L717.211 56.0453L730.391 69.2171L743.571 56.0453Z"></path>
<path d="M994.722 233.038L999.135 237.449L994.722 241.86L990.308 237.449L994.722 233.038Z"></path>
<path d="M999.138 243.031L1037.11 280.983L1029.34 288.757L1046.05 305.464L1062.77 288.75L1046.05 272.043L1038.28 279.816L1000.31 241.857L999.138 243.031Z"></path>
<path d="M75.8626 260.448L24.4951 209.112L16.7168 216.885L-0.000487352 200.178L16.7168 183.471L33.4341 200.178L25.656 207.952L77.0234 259.288L75.8557 260.455L75.8626 260.448ZM29.8967 200.178L16.7168 187.006L3.53687 200.178L16.7168 213.35L29.8967 200.178Z"></path>
<path d="M16.7386 194.632L22.257 200.149L16.7367 205.664L11.2184 200.147L16.7386 194.632Z"></path>
<path d="M242.899 526.226L250.677 518.452L169.515 437.34L170.075 361.858L162.652 354.439L166.278 350.815L85.9899 270.562L87.1577 269.395L167.453 349.641L171.01 346.085L179.369 354.439L175.804 358.002L242.721 424.932L325.461 424.318L424.529 523.325L432.307 515.552L449.024 532.259L432.307 548.966L415.59 532.259L423.368 524.486L342.697 443.864L259.958 444.479L174.616 359.189L171.734 362.069L171.181 436.651L251.852 517.272L259.63 509.498L276.347 526.205L259.63 542.913L242.913 526.205L242.899 526.226ZM244.36 426.577L260.627 442.834L341.052 442.24L324.785 425.983L244.367 426.577L244.36 426.577Z"></path>
<path d="M345.436 534.763L298.672 487.884L262.027 488.157L261.781 487.911L203.619 429.86L201.441 432.037L195.923 426.522L201.441 421.008L206.959 426.522L204.787 428.693L254.126 477.94L290.784 477.667L346.119 533.112L366.367 533.112L382.272 517.224L398.989 533.931L382.272 550.638L366.387 534.763L345.436 534.763ZM369.092 533.931L382.272 547.103L395.452 533.931L382.272 520.759L369.092 533.931ZM297.032 486.246L290.108 479.326L255.772 479.578L262.703 486.499L297.032 486.246Z"></path>
<path d="M81.6727 259.58L87.1921 265.096L81.6728 270.612L76.1534 265.096L81.6727 259.58Z"></path>
<path d="M302.515 691.14L182.647 571.344L182.647 570.996L183.043 516.507L167.261 500.735L175.039 492.962L132.215 450.163L132.83 367.474L107.542 342.202L103.943 345.799L95.5843 337.445L99.1695 333.862L64.376 299.09L56.5979 306.863L39.8805 290.156L56.5979 273.449L73.3152 290.156L65.5369 297.93L100.33 332.702L103.936 329.098L112.295 337.452L108.696 341.049L134.468 366.805L133.854 449.495L176.193 491.808L183.972 484.035L200.689 500.742L192.911 508.515L292.45 607.994L291.282 609.161L198.797 516.732L198.305 584.68L303.67 689.98L311.448 682.206L328.165 698.913L311.448 715.621L294.731 698.913L302.509 691.14L302.515 691.14ZM298.282 698.913L311.461 712.085L324.641 698.913L311.461 685.742L298.282 698.913ZM196.68 583.035L197.172 515.088L191.757 509.676L184.695 516.732L184.306 570.662L196.68 583.028L196.68 583.035Z"></path>
<path d="M311.487 693.266L317.007 698.782L311.487 704.298L305.968 698.782L311.487 693.266Z"></path>
<path d="M296.922 609.021L301.335 613.432L296.92 617.842L292.508 613.431L296.922 609.021Z"></path>
<path d="M285.646 546.734L291.166 552.249L285.648 557.766L280.128 552.251L285.646 546.734Z"></path>
<path d="M578.856 827.226L583.555 822.531L583.835 785.035L498.985 700.231L495.386 703.827L487.027 695.474L494.614 687.891L494.915 647.659L414.244 567.038L406.466 574.805L398.695 567.045L373.114 592.597L372.902 672.849L388.704 688.635L371.987 705.342L355.269 688.635L363.048 680.862L301.3 619.159L302.468 617.992L341.113 656.607L341.332 572.6L321.664 552.924L301.409 552.924L294.478 559.851L320.36 585.697L321.985 584.073L326.396 588.481L321.985 592.89L317.567 588.481L319.185 586.857L293.303 561.012L285.498 568.812L268.781 552.105L285.498 535.398L301.382 551.273L322.333 551.273L356.99 585.943L356.765 672.263L364.202 679.695L371.242 672.658L371.454 591.914L397.52 565.885L389.735 558.104L406.452 541.397L423.17 558.104L415.392 565.878L472.68 623.131L473.042 574.183L451.92 553.074L450.294 554.699L445.883 550.29L450.301 545.881L454.713 550.29L453.087 551.914L474.701 573.515L474.319 624.783L496.554 647.004L496.246 688.028L503.724 695.501L500.132 699.091L585.474 784.38L585.187 822.565L589.878 827.254L584.36 832.768L578.843 827.254L578.856 827.226ZM298.685 552.105L285.505 538.933L272.325 552.105L285.505 565.277L298.685 552.105ZM355.119 670.618L355.338 586.625L342.97 574.252L342.752 658.258L355.119 670.618Z"></path>
<path d="M464.656 807.045L422.296 764.718L422.856 690.389L400.723 668.27L404.316 664.673L395.957 656.32L387.598 664.673L395.957 673.027L399.556 669.437L421.197 691.065L420.644 765.401L463.488 808.212L461.863 809.837L466.275 814.246L470.693 809.837L466.275 805.428L464.656 807.045Z"></path>
<path d="M458.155 809.039L458.155 810.69L426.503 810.779L422.904 814.376L418.492 809.96L420.104 808.349L388.506 776.894L318.666 777.413L237.504 696.3L229.726 704.073L213.009 687.366L229.726 670.659L246.443 687.366L238.665 695.14L307.269 763.702L374.739 763.203L344.255 732.854L336.463 740.641L319.745 723.934L336.463 707.226L353.18 723.934L345.422 731.687L421.258 807.189L422.89 805.558L426.468 809.141L458.134 809.052L458.155 809.039ZM386.867 775.249L376.398 764.828L308.922 765.326L319.349 775.747L386.867 775.242L386.867 775.249Z"></path>
<path d="M720.557 932.82L728.916 941.174L720.557 949.527L713.004 941.979L637.421 942.538L561.565 866.729L553.787 874.502L537.07 857.795L544.848 850.022L509.242 814.437L505.65 818.027L498.192 810.574L475.035 810.636L475.035 808.984L498.049 808.923L500.89 806.084L445.138 750.366L445.753 667.677L427.711 649.646L419.939 657.412L403.222 640.705L419.939 623.998L436.657 640.705L428.885 648.472L457.922 677.491L457.307 760.18L502.058 804.903L505.656 801.306L514.015 809.66L510.416 813.256L546.023 848.841L552.974 841.893L553.268 802.385L502.433 751.581L500.255 753.758L494.737 748.243L500.255 742.729L505.773 748.243L503.601 750.421L554.927 801.716L554.627 841.914L570.518 857.795L562.74 865.568L638.104 940.887L713.052 940.334L715.797 937.59L695.447 917.253L654.104 917.56L599.951 863.439L596.352 867.036L587.993 858.682L596.352 850.329L604.711 858.682L601.112 862.272L644.653 905.787L683.681 905.5L634.423 856.273L632.183 858.512L626.666 852.997L632.183 847.483L637.701 852.997L635.591 855.106L716.965 936.43L720.564 932.834L720.557 932.82ZM693.801 915.601L685.32 907.125L646.292 907.411L654.774 915.888L693.801 915.601ZM433.112 640.705L419.932 627.533L406.753 640.705L419.932 653.877L433.112 640.705ZM455.662 758.549L456.263 678.173L447.392 669.308L446.798 749.683L455.668 758.549L455.662 758.549ZM566.974 857.781L553.794 844.61L540.614 857.781L553.794 870.953L566.974 857.781Z"></path>
<path d="M747.962 951.677L763.847 967.551L747.129 984.258L730.412 967.551L746.31 951.663L746.31 931.428L688.496 873.792L688.769 837.157L643.753 792.134L644.422 695.904L628.64 680.132L645.357 663.425L662.075 680.132L654.296 687.899L658.005 691.604L709.761 743.329L735.459 769.011L734.844 851.7L764.85 881.689L768.443 878.099L776.801 886.452L768.443 894.806L760.084 886.452L763.683 882.856L707.494 826.701L708.109 744.012L656.844 692.778L653.136 689.072L646.074 696.129L645.61 762.528L669.464 786.367L671.635 784.196L677.153 789.711L671.635 795.225L666.117 789.711L668.296 787.534L645.596 764.848L645.412 791.465L701.327 847.394L701.054 884.016L747.962 930.752L747.962 951.69L747.962 951.677ZM709.754 745.643L709.16 826.012L733.219 850.056L733.813 769.68L709.754 745.643ZM699.422 882.33L699.675 848.056L690.415 838.795L690.162 873.11L699.422 882.337L699.422 882.33ZM747.136 954.373L733.956 967.544L747.136 980.716L760.316 967.544L747.136 954.373Z"></path>
<path d="M604.465 655.958L612.243 648.185L575.032 610.996L575.647 528.307L541.796 494.483L538.969 497.309L538.443 567.761L543.168 572.484L537.651 577.998L532.133 572.484L536.79 567.829L537.316 497.207L529.838 489.733L538.197 481.38L546.556 489.733L542.964 493.323L588.199 538.531L587.584 621.22L613.411 647.031L621.182 639.258L637.9 655.965L621.183 672.672L604.465 655.965L604.465 655.958ZM621.182 642.786L608.003 655.958L621.182 669.13L634.362 655.958L621.182 642.786ZM585.945 619.575L586.539 539.2L577.279 529.945L576.685 610.321L585.945 619.575Z"></path>
<path d="M943.625 672.188L1063.49 791.983L1063.49 792.331L1063.1 846.82L1078.88 862.592L1071.1 870.366L1113.93 913.164L1113.31 995.853L1138.6 1021.13L1142.2 1017.53L1150.56 1025.88L1146.97 1029.47L1181.76 1064.24L1189.54 1056.46L1206.26 1073.17L1189.54 1089.88L1172.83 1073.17L1180.6 1065.4L1145.81 1030.63L1142.2 1034.23L1133.85 1025.88L1137.44 1022.28L1111.67 996.522L1112.29 913.833L1069.95 871.519L1062.17 879.293L1045.45 862.586L1053.23 854.812L953.691 755.334L954.859 754.167L1047.34 846.595L1047.84 778.648L942.471 673.348L934.7 681.114L917.983 664.407L934.7 647.7L951.417 664.407L943.646 672.174L943.625 672.188ZM947.859 664.421L934.679 651.249L921.499 664.421L934.679 677.593L947.859 664.421ZM1049.46 780.299L1048.97 848.247L1054.38 853.659L1061.45 846.602L1061.83 792.673L1049.46 780.306L1049.46 780.299Z"></path>
<path d="M934.687 658.996L940.206 664.512L934.687 670.028L929.168 664.512L934.687 658.996Z"></path>
<path d="M949.255 745.242L953.669 749.653L949.255 754.064L944.842 749.653L949.255 745.242Z"></path>
<path d="M830.736 797.464L773.448 740.21L773.086 789.158L794.208 810.267L795.833 808.643L800.245 813.051L795.826 817.46L791.415 813.051L793.04 811.427L771.426 789.827L771.809 738.559L749.574 716.337L749.881 675.32L742.403 667.847L745.995 664.257L660.654 578.968L660.934 540.783L656.242 536.094L661.76 530.58L667.278 536.094L662.586 540.79L662.306 578.285L747.163 663.083L750.755 659.487L759.114 667.84L751.527 675.423L751.226 715.655L831.897 796.276L839.675 788.51L847.446 796.276L873.028 770.724L873.239 690.478L857.437 674.686L874.155 657.979L890.872 674.686L883.094 682.459L944.841 744.162L943.673 745.329L905.028 706.714L904.81 790.721L924.477 810.397L944.732 810.397L951.663 803.469L925.775 777.624L924.149 779.248L919.738 774.833L924.149 770.424L928.561 774.839L926.942 776.457L952.831 802.302L960.636 794.502L977.354 811.209L960.636 827.916L944.752 812.041L923.801 812.041L889.144 777.378L889.369 691.058L881.933 683.626L874.892 690.662L874.68 771.407L848.614 797.436L856.399 805.217L839.682 821.924L822.965 805.217L830.743 797.443L830.736 797.464ZM947.457 811.229L960.636 824.401L973.816 811.229L960.636 798.057L947.457 811.229ZM891.022 692.717L890.803 776.709L903.171 789.083L903.389 705.076L891.022 692.717Z"></path>
<path d="M388.711 268.87L380.933 276.643L428.49 324.171L436.363 316.309L453.081 333.016L445.303 340.789L449.728 345.212L517.007 344.714L486.522 314.364L478.73 322.151L462.013 305.444L478.73 288.737L495.448 305.444L487.69 313.197L563.526 388.699L565.158 387.068L568.743 390.651L600.409 390.563L600.409 392.214L568.757 392.303L565.164 395.893L560.753 391.484L562.365 389.873L530.774 358.418L463.44 358.916L521.978 417.418L525.584 413.815L533.137 421.363L608.72 420.803L684.576 496.613L692.354 488.84L709.071 505.547L701.293 513.32L736.899 548.905L740.491 545.315L747.955 552.774L771.112 552.713L771.112 554.365L748.099 554.433L745.258 557.272L790.493 602.479L801.003 612.983L800.388 695.672L818.423 713.696L826.195 705.93L842.912 722.637L826.195 739.344L809.477 722.637L817.256 714.863L788.219 685.844L788.833 603.155L744.083 558.432L740.484 562.029L732.126 553.675L735.725 550.079L700.118 514.494L693.167 521.442L692.873 560.957L743.708 611.761L745.886 609.584L751.404 615.098L745.886 620.613L740.368 615.098L742.547 612.928L691.22 561.633L691.521 521.435L675.63 505.554L683.408 497.78L608.044 422.462L533.096 423.021L530.35 425.765L550.701 446.103L592.043 445.796L646.197 499.916L649.796 496.32L658.154 504.673L649.796 513.027L641.437 504.673L645.029 501.083L601.488 457.568L562.46 457.855L615.692 511.048L615.419 547.431L620.397 552.406L615.344 557.456L615.077 593.737L653.681 632.317L652.514 633.484L613.425 594.419L613.705 556.746L609.368 552.413L613.773 548.011L614.046 511.73L529.196 426.932L525.598 430.529L517.239 422.175L520.824 418.592L461.132 358.937L460.941 358.937L444.053 342.066L436.37 349.744L419.653 333.036L427.336 325.359L379.779 277.831L372.001 285.604L355.283 268.897L372.001 252.19L388.718 268.897L388.711 268.87ZM552.34 447.727L560.821 456.204L599.849 455.917L591.367 447.441L552.34 447.727ZM813.028 722.616L826.208 735.788L839.388 722.616L826.208 709.444L813.028 722.616ZM790.479 604.772L789.885 685.148L798.756 694.013L799.35 613.638L790.479 604.772ZM679.167 505.533L692.347 518.705L705.527 505.533L692.347 492.361L679.167 505.533ZM451.367 346.829L461.795 357.251L529.121 356.753L518.652 346.331L451.367 346.829Z"></path>
<path d="M850.185 707.015L858.544 698.661L850.185 690.307L846.593 693.897L824.945 672.27L825.498 597.934L782.66 555.115L784.279 553.498L779.867 549.082L775.449 553.498L779.867 557.907L781.486 556.282L823.846 598.616L823.286 672.945L845.418 695.064L841.826 698.661L850.185 707.015Z"></path>
<path d="M660.766 635.042L666.285 640.558L660.766 646.074L655.247 640.558L660.766 635.042Z"></path>
<path d="M692.33 500.127L697.849 505.643L692.33 511.159L686.811 505.643L692.33 500.127Z"></path>
<path d="M826.037 554.992L857.635 586.448L927.475 585.929L1008.64 667.042L1016.42 659.268L1033.13 675.975L1016.42 692.682L999.698 675.975L1007.48 668.209L938.872 599.647L871.402 600.145L901.887 630.495L909.678 622.708L926.396 639.415L909.678 656.122L892.961 639.415L900.719 631.662L824.883 556.159L823.251 557.79L819.673 554.214L788.007 554.303L788.007 552.651L819.659 552.563L823.251 548.973L827.663 553.382L826.051 554.992L826.037 554.992ZM859.281 588.086L869.75 598.507L937.227 598.009L926.799 587.587L859.281 588.086Z"></path>
<path d="M669.115 647.734L667.947 648.901L694.58 675.525L686.809 683.292L703.526 699.999L720.243 683.292L703.526 666.584L695.755 674.358L669.115 647.734Z"></path>
<path d="M459.545 454.037L465.064 459.553L459.545 465.069L454.026 459.553L459.545 454.037Z"></path>
<path d="M522.272 482.158L530.63 473.805L522.272 465.451L518.68 469.041L489.356 439.756L488.188 440.923L517.512 470.208L513.913 473.805L522.272 482.158Z"></path>
<path d="M621.17 698.835L626.691 704.35L621.172 709.867L615.652 704.352L621.17 698.835Z"></path>
<path d="M291.391 311.17L307.276 327.044L328.227 327.044L375.128 373.924L422.904 373.357L423.149 373.603L478.56 428.932L477.392 430.099L433.133 385.908L387.659 386.447L433.284 432.044L441.021 424.311L457.738 441.018L441.765 456.981L441.526 489.467L506.313 554.214L507.173 553.354L507.508 508.55L477.501 478.561L473.902 482.151L465.544 473.798L473.902 465.444L482.261 473.798L478.669 477.388L509.16 507.86L508.819 553.47L512.349 556.999L508.771 560.575L508.546 590.556L589.216 671.178L596.994 663.404L613.712 680.111L596.994 696.818L580.277 680.111L588.055 672.338L532.153 616.47L531.921 678.064L559.155 705.281L557.987 706.448L520.537 669.021L520.776 605.1L506.9 591.232L507.125 560.589L503.526 556.992L505.152 555.368L439.874 490.129L440.119 456.804L424.31 441.005L432.123 433.197L362.788 363.905L362.269 410.238L412.865 460.803L416.464 457.213L424.823 465.567L416.464 473.921L408.105 465.567L411.704 461.97L349.718 400.022L350.264 351.375L327.558 328.682L307.303 328.682L291.405 344.57L274.688 327.863L291.405 311.156L291.391 311.17ZM522.422 606.758L522.19 668.352L530.275 676.433L530.508 614.839L522.422 606.758ZM441.028 427.839L427.848 441.011L441.028 454.183L454.208 441.011L441.028 427.839ZM376.767 375.548L386.034 384.809L431.508 384.27L422.234 375.009L376.767 375.548ZM351.882 353.012L351.363 399.346L360.63 408.58L361.149 362.274L351.882 353.012ZM278.212 327.87L291.391 341.042L304.571 327.87L291.391 314.698L278.212 327.87Z"></path>
<path d="M483.761 429.795L489.281 435.311L483.761 440.827L478.242 435.311L483.761 429.795Z"></path>
<path d="M564.912 706.607L570.43 712.124L564.91 717.639L559.392 712.122L564.912 706.607Z"></path>
<path d="M441.024 435.501L446.543 441.017L441.024 446.533L435.505 441.017L441.024 435.501Z"></path>
<path d="M637.9 704.292L621.995 720.187L621.579 804.575L662.962 845.933L664.587 844.309L668.999 848.718L664.581 853.127L660.169 848.718L661.794 847.093L619.919 805.244L619.919 804.903L620.104 768.533L570.348 718.808L571.516 717.641L620.11 766.206L620.336 720.152L604.458 704.285L621.176 687.578L637.893 704.285L637.9 704.292ZM634.362 704.292L621.183 691.12L608.003 704.292L621.183 717.463L634.362 704.292Z"></path>
</svg>