<?xml version="1.0" encoding="UTF-8"?><svg id="Layer_2" xmlns="http://www.w3.org/2000/svg" viewBox="0 0 310.85 54.34"><defs><style>.cls-1{fill:#061e51;stroke:#01133d;stroke-miterlimit:10;}.cls-2{fill:#dcf1ff;stroke-width:0px;}</style></defs><g id="Complete_Solution_Module"><g id="Select_Payment"><rect class="cls-1" x=".5" y=".5" width="309.85" height="53.34" rx="26.67" ry="26.67"/><path class="cls-2" d="M43.11,33.99c-.83-.24-1.49-.55-1.99-.94l.88-1.95c.48.35,1.05.63,1.71.85.66.21,1.32.32,1.98.32.74,0,1.28-.11,1.63-.33.35-.22.53-.51.53-.87,0-.27-.1-.49-.31-.66s-.47-.32-.8-.42c-.33-.11-.77-.22-1.32-.35-.85-.2-1.55-.41-2.1-.61-.54-.2-1.01-.53-1.4-.98-.39-.45-.58-1.04-.58-1.79,0-.65.18-1.24.53-1.77.35-.53.88-.95,1.59-1.26.71-.31,1.58-.46,2.6-.46.71,0,1.41.08,2.1.26s1.28.42,1.79.74l-.8,1.97c-1.04-.59-2.07-.88-3.1-.88-.73,0-1.26.12-1.61.35s-.52.54-.52.93.2.67.6.86c.4.19,1.01.37,1.83.55.85.2,1.55.41,2.1.61.54.2,1.01.52,1.4.96s.58,1.03.58,1.78c0,.64-.18,1.22-.54,1.75-.36.53-.89.95-1.61,1.26-.71.31-1.58.46-2.61.46-.89,0-1.74-.12-2.57-.36Z"/><path class="cls-2" d="M60.88,32.08v2.08h-8.67v-11.2h8.46v2.08h-5.89v2.43h5.2v2.02h-5.2v2.59h6.1Z"/><path class="cls-2" d="M62.94,22.95h2.59v9.09h5.62v2.11h-8.21v-11.2Z"/><path class="cls-2" d="M81.27,32.08v2.08h-8.67v-11.2h8.46v2.08h-5.89v2.43h5.2v2.02h-5.2v2.59h6.1Z"/><path class="cls-2" d="M85.57,33.6c-.92-.5-1.65-1.18-2.18-2.06s-.79-1.87-.79-2.98.26-2.1.79-2.98,1.25-1.57,2.18-2.06c.92-.5,1.96-.74,3.11-.74.97,0,1.85.17,2.63.51s1.44.83,1.98,1.47l-1.66,1.54c-.76-.87-1.7-1.31-2.82-1.31-.69,0-1.31.15-1.86.46-.54.3-.97.73-1.27,1.27s-.46,1.16-.46,1.86.15,1.31.46,1.86.73.97,1.27,1.27c.54.3,1.16.46,1.86.46,1.12,0,2.06-.44,2.82-1.33l1.66,1.54c-.53.65-1.19,1.15-1.98,1.49-.79.34-1.67.51-2.64.51-1.14,0-2.17-.25-3.1-.74Z"/><path class="cls-2" d="M97.24,25.07h-3.58v-2.11h9.76v2.11h-3.58v9.09h-2.59v-9.09Z"/><path class="cls-2" d="M116.77,23.45c.73.33,1.29.8,1.69,1.41.39.61.59,1.33.59,2.16s-.2,1.54-.59,2.15c-.39.61-.96,1.08-1.69,1.41s-1.59.49-2.58.49h-2.26v3.09h-2.59v-11.2h4.85c.99,0,1.85.17,2.58.5ZM115.82,28.45c.41-.34.61-.81.61-1.43s-.2-1.11-.61-1.45-1-.5-1.78-.5h-2.11v3.89h2.11c.78,0,1.37-.17,1.78-.5Z"/><path class="cls-2" d="M127.71,31.75h-5.2l-.99,2.4h-2.66l4.99-11.2h2.56l5.01,11.2h-2.72l-.99-2.4ZM126.89,29.79l-1.78-4.29-1.78,4.29h3.55Z"/><path class="cls-2" d="M137.27,30.19v3.97h-2.59v-4l-4.34-7.2h2.75l2.99,4.98,2.99-4.98h2.54l-4.35,7.23Z"/><path class="cls-2" d="M152.79,34.16l-.02-6.72-3.3,5.54h-1.17l-3.28-5.39v6.58h-2.43v-11.2h2.14l4.19,6.96,4.13-6.96h2.13l.03,11.2h-2.43Z"/><path class="cls-2" d="M166.55,32.08v2.08h-8.67v-11.2h8.46v2.08h-5.89v2.43h5.2v2.02h-5.2v2.59h6.1Z"/><path class="cls-2" d="M178.89,22.95v11.2h-2.13l-5.58-6.8v6.8h-2.56v-11.2h2.14l5.57,6.8v-6.8h2.56Z"/><path class="cls-2" d="M183.87,25.07h-3.58v-2.11h9.76v2.11h-3.58v9.09h-2.59v-9.09Z"/><path class="cls-2" d="M206.15,34.16l-.02-6.72-3.3,5.54h-1.17l-3.28-5.39v6.58h-2.43v-11.2h2.14l4.19,6.96,4.13-6.96h2.13l.03,11.2h-2.43Z"/><path class="cls-2" d="M219.91,32.08v2.08h-8.67v-11.2h8.46v2.08h-5.89v2.43h5.2v2.02h-5.2v2.59h6.1Z"/><path class="cls-2" d="M224.3,25.07h-3.58v-2.11h9.76v2.11h-3.58v9.09h-2.59v-9.09Z"/><path class="cls-2" d="M242.14,22.95v11.2h-2.59v-4.59h-5.09v4.59h-2.59v-11.2h2.59v4.42h5.09v-4.42h2.59Z"/><path class="cls-2" d="M247.07,33.6c-.93-.5-1.66-1.19-2.19-2.07s-.79-1.87-.79-2.97.26-2.09.79-2.97,1.26-1.57,2.19-2.07c.93-.5,1.98-.75,3.14-.75s2.21.25,3.14.75c.93.5,1.66,1.19,2.19,2.07s.8,1.87.8,2.97-.27,2.09-.8,2.97-1.26,1.57-2.19,2.07c-.93.5-1.97.75-3.14.75s-2.21-.25-3.14-.75ZM252.01,31.68c.53-.3.95-.73,1.26-1.27s.46-1.16.46-1.86-.15-1.31-.46-1.86-.72-.97-1.26-1.27c-.53-.3-1.13-.46-1.79-.46s-1.26.15-1.79.46c-.53.3-.95.73-1.26,1.27s-.46,1.16-.46,1.86.15,1.31.46,1.86.72.97,1.26,1.27c.53.3,1.13.46,1.79.46s1.26-.15,1.79-.46Z"/><path class="cls-2" d="M258.3,22.95h5.09c1.22,0,2.29.23,3.22.7s1.66,1.12,2.18,1.96c.52.84.78,1.82.78,2.94s-.26,2.1-.78,2.94c-.52.84-1.24,1.5-2.18,1.96s-2.01.7-3.22.7h-5.09v-11.2ZM263.26,32.03c1.12,0,2.01-.31,2.68-.94s1-1.47,1-2.54-.33-1.91-1-2.54-1.56-.94-2.68-.94h-2.37v6.94h2.37Z"/></g></g></svg>