<?xml version="1.0" encoding="UTF-8"?><svg id="Layer_2" xmlns="http://www.w3.org/2000/svg" xmlns:xlink="http://www.w3.org/1999/xlink" viewBox="0 0 310.85 54.34"><defs><style>.cls-1{fill:#fff;stroke-width:0px;}.cls-2{fill:url(#linear-gradient);stroke:url(#linear-gradient-2);stroke-miterlimit:10;}</style><linearGradient id="linear-gradient" x1="72.44" y1="110.16" x2="238.41" y2="-55.82" gradientUnits="userSpaceOnUse"><stop offset="0" stop-color="#aa206d"/><stop offset=".47" stop-color="#2364f6"/><stop offset=".53" stop-color="rgba(35,98,242,.98)" stop-opacity=".98"/><stop offset=".6" stop-color="rgba(35,95,230,.93)" stop-opacity=".93"/><stop offset=".67" stop-color="rgba(35,88,211,.84)" stop-opacity=".84"/><stop offset=".74" stop-color="rgba(35,80,184,.71)" stop-opacity=".71"/><stop offset=".81" stop-color="rgba(35,69,150,.55)" stop-opacity=".55"/><stop offset=".89" stop-color="rgba(35,55,107,.35)" stop-opacity=".35"/><stop offset=".96" stop-color="rgba(35,39,59,.13)" stop-opacity=".13"/><stop offset="1" stop-color="#231f20" stop-opacity="0"/></linearGradient><linearGradient id="linear-gradient-2" x1="0" y1="27.17" x2="310.85" y2="27.17" gradientUnits="userSpaceOnUse"><stop offset="0" stop-color="#eaf5fb"/><stop offset="1" stop-color="#dcf1ff"/></linearGradient></defs><g id="Complete_Solution_Module"><g id="Pay_Now_Button"><rect class="cls-2" x=".5" y=".5" width="309.85" height="53.34" rx="26.67" ry="26.67"/><path class="cls-1" d="M122.9,23.45c.73.33,1.29.8,1.69,1.41.39.61.59,1.33.59,2.16s-.2,1.54-.59,2.15c-.39.61-.96,1.08-1.69,1.41s-1.59.49-2.58.49h-2.26v3.09h-2.59v-11.2h4.85c.99,0,1.85.17,2.58.5ZM121.95,28.45c.41-.34.61-.81.61-1.43s-.2-1.11-.61-1.45-1-.5-1.78-.5h-2.11v3.89h2.11c.78,0,1.37-.17,1.78-.5Z"/><path class="cls-1" d="M133.84,31.75h-5.2l-.99,2.4h-2.66l4.99-11.2h2.56l5.01,11.2h-2.72l-.99-2.4ZM133.02,29.79l-1.78-4.29-1.78,4.29h3.55Z"/><path class="cls-1" d="M143.4,30.19v3.97h-2.59v-4l-4.34-7.2h2.75l2.99,4.98,2.99-4.98h2.54l-4.35,7.23Z"/><path class="cls-1" d="M163.64,22.95v11.2h-2.13l-5.58-6.8v6.8h-2.56v-11.2h2.14l5.57,6.8v-6.8h2.56Z"/><path class="cls-1" d="M168.58,33.6c-.93-.5-1.66-1.19-2.19-2.07s-.79-1.87-.79-2.97.26-2.09.79-2.97,1.26-1.57,2.19-2.07c.93-.5,1.98-.75,3.14-.75s2.21.25,3.14.75c.93.5,1.66,1.19,2.19,2.07s.8,1.87.8,2.97-.27,2.09-.8,2.97-1.26,1.57-2.19,2.07c-.93.5-1.97.75-3.14.75s-2.21-.25-3.14-.75ZM173.51,31.68c.53-.3.95-.73,1.26-1.27s.46-1.16.46-1.86-.15-1.31-.46-1.86-.72-.97-1.26-1.27c-.53-.3-1.13-.46-1.79-.46s-1.26.15-1.79.46c-.53.3-.95.73-1.26,1.27s-.46,1.16-.46,1.86.15,1.31.46,1.86.72.97,1.26,1.27c.53.3,1.13.46,1.79.46s1.26-.15,1.79-.46Z"/><path class="cls-1" d="M196.36,22.95l-3.66,11.2h-2.78l-2.46-7.58-2.54,7.58h-2.77l-3.68-11.2h2.69l2.53,7.87,2.64-7.87h2.4l2.56,7.94,2.61-7.94h2.48Z"/></g></g></svg>