<?xml version="1.0" encoding="UTF-8"?><svg id="Layer_2" xmlns="http://www.w3.org/2000/svg" xmlns:xlink="http://www.w3.org/1999/xlink" viewBox="0 0 382.82 104"><defs><style>.cls-1{fill:#56c3ff;}.cls-1,.cls-2{stroke-width:0px;}.cls-3{fill:url(#linear-gradient);stroke:url(#linear-gradient-2);stroke-miterlimit:10;stroke-width:2px;}.cls-2{fill:#dcf1ff;}</style><linearGradient id="linear-gradient" x1="1" y1="52" x2="381.82" y2="52" gradientUnits="userSpaceOnUse"><stop offset="0" stop-color="#dcf1ff"/><stop offset=".26" stop-color="rgba(161,196,252,.68)" stop-opacity=".68"/><stop offset=".53" stop-color="rgba(107,155,249,.39)" stop-opacity=".39"/><stop offset=".75" stop-color="rgba(68,125,247,.18)" stop-opacity=".18"/><stop offset=".91" stop-color="rgba(44,106,246,.05)" stop-opacity=".05"/><stop offset="1" stop-color="#2364f6" stop-opacity="0"/></linearGradient><linearGradient id="linear-gradient-2" x1="0" x2="382.82" xlink:href="#linear-gradient"/></defs><g id="Complete_Solution_Module"><g id="Credit_Card"><rect class="cls-3" x="1" y="1" width="380.82" height="102" rx="5" ry="5"/><path class="cls-1" d="M255.55,44.61l-.77-.56,1.11-1.43-1.73-.53.29-.9,1.7.6-.04-1.81h.95l-.04,1.81,1.69-.6.29.9-1.72.53,1.09,1.43-.77.56-1.02-1.48-1.04,1.48Z"/><path class="cls-1" d="M261.66,44.61l-.77-.56,1.11-1.43-1.73-.53.29-.9,1.7.6-.04-1.81h.95l-.04,1.81,1.69-.6.29.9-1.72.53,1.09,1.43-.77.56-1.02-1.48-1.04,1.48Z"/><path class="cls-1" d="M267.77,44.61l-.77-.56,1.11-1.43-1.73-.53.29-.9,1.7.6-.04-1.81h.95l-.04,1.81,1.69-.6.29.9-1.72.53,1.09,1.43-.77.56-1.02-1.48-1.04,1.48Z"/><path class="cls-1" d="M273.88,44.61l-.77-.56,1.11-1.43-1.73-.53.29-.9,1.7.6-.04-1.81h.95l-.04,1.81,1.69-.6.29.9-1.72.53,1.09,1.43-.77.56-1.02-1.48-1.04,1.48Z"/><path class="cls-1" d="M282.79,44.61l-.77-.56,1.11-1.43-1.73-.53.29-.9,1.7.6-.04-1.81h.95l-.04,1.81,1.69-.6.29.9-1.72.53,1.09,1.43-.77.56-1.02-1.48-1.04,1.48Z"/><path class="cls-1" d="M288.9,44.61l-.77-.56,1.11-1.43-1.73-.53.29-.9,1.7.6-.04-1.81h.95l-.04,1.81,1.69-.6.29.9-1.72.53,1.09,1.43-.77.56-1.02-1.48-1.04,1.48Z"/><path class="cls-1" d="M295.01,44.61l-.77-.56,1.11-1.43-1.73-.53.29-.9,1.7.6-.04-1.81h.95l-.04,1.81,1.69-.6.29.9-1.72.53,1.09,1.43-.77.56-1.02-1.48-1.04,1.48Z"/><path class="cls-1" d="M301.13,44.61l-.77-.56,1.11-1.43-1.73-.53.29-.9,1.7.6-.04-1.81h.95l-.04,1.81,1.69-.6.29.9-1.72.53,1.09,1.43-.77.56-1.02-1.48-1.04,1.48Z"/><path class="cls-1" d="M310.04,44.61l-.77-.56,1.11-1.43-1.73-.53.29-.9,1.7.6-.04-1.81h.95l-.04,1.81,1.69-.6.29.9-1.72.53,1.09,1.43-.77.56-1.02-1.48-1.04,1.48Z"/><path class="cls-1" d="M316.15,44.61l-.77-.56,1.11-1.43-1.73-.53.29-.9,1.7.6-.04-1.81h.95l-.04,1.81,1.69-.6.29.9-1.72.53,1.09,1.43-.77.56-1.02-1.48-1.04,1.48Z"/><path class="cls-1" d="M322.26,44.61l-.77-.56,1.11-1.43-1.73-.53.29-.9,1.7.6-.04-1.81h.95l-.04,1.81,1.69-.6.29.9-1.72.53,1.09,1.43-.77.56-1.02-1.48-1.04,1.48Z"/><path class="cls-1" d="M328.37,44.61l-.77-.56,1.11-1.43-1.73-.53.29-.9,1.7.6-.04-1.81h.95l-.04,1.81,1.69-.6.29.9-1.72.53,1.09,1.43-.77.56-1.02-1.48-1.04,1.48Z"/><path class="cls-1" d="M339.42,50.28c-.52,0-1.01-.11-1.45-.32-.44-.21-.82-.51-1.13-.89s-.54-.81-.67-1.3l.99-.27c.09.36.25.68.48.94s.51.47.82.61c.31.14.64.22.99.22.45,0,.85-.11,1.21-.33.36-.22.64-.5.85-.86s.32-.75.32-1.18-.11-.84-.33-1.2c-.22-.36-.51-.64-.87-.85s-.75-.32-1.18-.32c-.48,0-.89.1-1.23.31-.34.21-.62.47-.83.78l-.94-.39.31-5.24h5.38v.99h-4.93l.51-.48-.27,4.47-.26-.34c.29-.33.64-.59,1.05-.78.41-.19.84-.28,1.29-.28.62,0,1.18.15,1.68.44.5.3.9.7,1.19,1.2s.44,1.07.44,1.69-.16,1.18-.47,1.69-.73.92-1.25,1.23c-.52.31-1.09.46-1.71.46Z"/><path class="cls-1" d="M348.97,50.07v-1.95h-4.72v-.98l3.37-7.15h1.16l-3.37,7.15h3.56v-2.94h1.04v2.94h1.1v.98h-1.1v1.95h-1.04Z"/><path class="cls-1" d="M355.76,50.28c-.52,0-1.01-.11-1.45-.32-.44-.21-.82-.51-1.13-.89s-.54-.81-.67-1.3l.99-.27c.09.36.25.68.48.94s.51.47.82.61c.31.14.64.22.99.22.45,0,.85-.11,1.21-.33s.64-.5.85-.86.32-.75.32-1.18-.11-.84-.33-1.2c-.22-.36-.51-.64-.87-.85-.36-.21-.75-.32-1.18-.32-.48,0-.89.1-1.23.31-.34.21-.62.47-.83.78l-.94-.39.31-5.24h5.38v.99h-4.93l.51-.48-.27,4.47-.26-.34c.29-.33.64-.59,1.05-.78.41-.19.84-.28,1.29-.28.62,0,1.18.15,1.68.44.5.3.9.7,1.19,1.2s.44,1.07.44,1.69-.16,1.18-.47,1.69-.73.92-1.25,1.23c-.52.31-1.09.46-1.71.46Z"/><path class="cls-1" d="M365.31,50.07v-1.95h-4.72v-.98l3.37-7.15h1.15l-3.37,7.15h3.56v-2.94h1.04v2.94h1.1v.98h-1.1v1.95h-1.04Z"/><path class="cls-2" d="M314.03,25.94v-10.08h1.52l3.49,7.14,3.49-7.14h1.52v10.08h-1.58v-6.46l-3.09,6.46h-.67l-3.09-6.46v6.46h-1.58Z"/><path class="cls-2" d="M327,29.3l1.46-4,.03,1.18-3.3-8.1h1.76l2.34,5.99h-.45l2.27-5.99h1.69l-4.21,10.92h-1.58Z"/><path class="cls-2" d="M340.9,26.15c-1.01,0-1.87-.22-2.59-.66s-1.27-1.06-1.66-1.84c-.38-.79-.58-1.7-.58-2.74s.19-1.96.58-2.74.94-1.4,1.66-1.84,1.58-.66,2.59-.66c1.16,0,2.13.29,2.9.87s1.32,1.36,1.63,2.35l-1.7.47c-.2-.66-.53-1.17-1-1.54-.47-.37-1.08-.56-1.83-.56-.68,0-1.24.15-1.69.46-.45.3-.79.73-1.02,1.28s-.34,1.19-.35,1.93c0,.74.11,1.38.34,1.93.23.55.57.97,1.02,1.28.45.3,1.02.46,1.69.46.75,0,1.36-.19,1.83-.56.47-.37.8-.89,1-1.54l1.7.47c-.31.98-.86,1.77-1.63,2.35s-1.74.87-2.9.87Z"/><path class="cls-2" d="M349.09,26.15c-.55,0-1.01-.1-1.39-.31-.38-.21-.66-.48-.86-.83-.19-.34-.29-.73-.29-1.14,0-.36.06-.69.18-.98.12-.29.31-.54.56-.76.25-.21.58-.39.98-.52.3-.1.66-.19,1.07-.27.41-.08.85-.15,1.33-.22.48-.07.98-.14,1.5-.22l-.6.34c0-.52-.11-.91-.35-1.16-.24-.25-.64-.37-1.2-.37-.34,0-.67.08-.99.24s-.54.43-.67.82l-1.54-.48c.19-.64.54-1.15,1.07-1.54.52-.39,1.23-.58,2.12-.58.67,0,1.26.11,1.77.33.51.22.89.58,1.14,1.08.14.27.22.54.25.82s.04.58.04.91v4.64h-1.48v-1.64l.25.27c-.34.54-.74.95-1.19,1.2s-1.02.38-1.7.38ZM349.43,24.81c.38,0,.71-.07.98-.2.27-.14.49-.3.65-.5.16-.2.27-.38.33-.55.09-.21.14-.46.15-.74s.02-.5.02-.68l.52.15c-.51.08-.94.15-1.31.21s-.68.12-.94.17c-.26.05-.49.11-.69.18-.2.07-.36.15-.5.24-.14.09-.24.2-.31.32s-.11.26-.11.43c0,.19.05.35.14.49.09.14.23.26.41.34.18.08.4.13.67.13Z"/><path class="cls-2" d="M355.04,25.94v-7.56h1.49v1.84l-.18-.24c.09-.25.22-.48.37-.69.16-.21.34-.38.56-.51.19-.13.39-.23.62-.3s.46-.12.7-.13.47,0,.69.03v1.58c-.22-.07-.48-.09-.77-.06-.29.02-.55.1-.79.24-.23.13-.42.29-.57.48s-.26.42-.33.67c-.07.25-.1.52-.1.81v3.84h-1.69Z"/><path class="cls-2" d="M363.52,26.15c-.7,0-1.3-.18-1.82-.53-.52-.35-.92-.83-1.2-1.43-.29-.6-.43-1.28-.43-2.04s.14-1.45.43-2.05.69-1.07,1.22-1.42,1.15-.52,1.86-.52,1.32.17,1.81.52c.49.35.86.82,1.11,1.42.25.6.38,1.28.38,2.04s-.13,1.43-.38,2.03c-.25.6-.63,1.08-1.13,1.43-.5.35-1.12.53-1.86.53ZM363.78,24.64c.45,0,.82-.1,1.1-.31.28-.21.48-.5.61-.87.13-.37.19-.8.19-1.29s-.06-.93-.19-1.3c-.13-.37-.33-.66-.6-.87-.27-.21-.62-.31-1.05-.31-.45,0-.83.11-1.12.33s-.51.52-.65.9c-.14.38-.21.79-.21,1.25s.07.88.21,1.26c.14.38.35.67.63.89.29.22.65.33,1.08.33ZM365.67,25.94v-5.31h-.21v-4.77h1.7v10.08h-1.49Z"/></g></g></svg>