<?xml version="1.0" encoding="UTF-8"?><svg id="Layer_2" xmlns="http://www.w3.org/2000/svg" xmlns:xlink="http://www.w3.org/1999/xlink" viewBox="0 0 130.5 78.3"><defs><style>.cls-1{fill:url(#linear-gradient);}.cls-1,.cls-2,.cls-3,.cls-4{stroke-width:0px;}.cls-2{fill:url(#linear-gradient-2);}.cls-2,.cls-3{fill-opacity:.4;}.cls-3{fill:url(#linear-gradient-3);}.cls-4{fill:#fff;}</style><linearGradient id="linear-gradient" x1="15.04" y1="89.36" x2="115.45" y2="-11.06" gradientUnits="userSpaceOnUse"><stop offset="0" stop-color="#aa206d"/><stop offset=".12" stop-color="#9f1f6b"/><stop offset=".33" stop-color="#821f66"/><stop offset=".61" stop-color="#531e5e"/><stop offset=".94" stop-color="#121e53"/><stop offset="1" stop-color="#061e51"/></linearGradient><linearGradient id="linear-gradient-2" x1="5.65" y1="79.97" x2="33.05" y2="52.57" gradientUnits="userSpaceOnUse"><stop offset="0" stop-color="#aa206d"/><stop offset=".19" stop-color="#ad2a72"/><stop offset=".53" stop-color="#b54780"/><stop offset=".97" stop-color="#c27697"/><stop offset="1" stop-color="#c47a99"/></linearGradient><linearGradient id="linear-gradient-3" x1="-897.24" y1="-4413.29" x2="-861.37" y2="-4449.16" gradientTransform="translate(-776.87 -4419.44) rotate(-180)" gradientUnits="userSpaceOnUse"><stop offset="0" stop-color="#aa206d" stop-opacity="0"/><stop offset=".11" stop-color="rgba(171,36,111,.06)" stop-opacity=".06"/><stop offset=".29" stop-color="rgba(175,50,117,.2)" stop-opacity=".2"/><stop offset=".53" stop-color="rgba(181,71,128,.44)" stop-opacity=".44"/><stop offset=".82" stop-color="rgba(190,101,142,.77)" stop-opacity=".77"/><stop offset="1" stop-color="#c47a99"/></linearGradient></defs><g id="Complete_Solution_Module"><g id="Credit_Card"><g id="Visa_My_Card"><path class="cls-1" d="M130.5,6.8v64.71c0,3.76-3.05,6.8-6.8,6.8H6.8c-3.76,0-6.8-3.04-6.8-6.8V6.8C0,3.05,3.04,0,6.8,0h116.9c3.75,0,6.8,3.05,6.8,6.8Z"/><path class="cls-2" d="M55.87,78.3H6.8c-3.76,0-6.8-3.04-6.8-6.8v-34.43c2.22,3.97,6.09,9.57,12.55,13.87,9.91,6.6,17.54,4.57,27.61,10.44,4.5,2.63,10.5,7.43,15.72,16.91Z"/><path class="cls-3" d="M56.73,0h66.97c3.76,0,6.8,3.04,6.8,6.8v34.43c-5.29-6.97-10.82-10.86-15.57-13.17-13.42-6.55-23.57-1.98-38.04-9.28C67.46,14.02,61.05,6.68,56.73,0Z"/><path class="cls-4" d="M122.76,67.87h-3.97c-.15-.7-.3-1.38-.42-2.07-.05-.29-.14-.4-.46-.39-1.59.02-3.18.02-4.78,0-.24,0-.34.08-.41.3-.22.66-.46,1.31-.7,1.95-.03.09-.14.21-.22.21-1.44.01-2.87,0-4.35,0,.27-.65.52-1.27.78-1.88,1.85-4.41,3.7-8.83,5.55-13.24.4-.96,1-1.36,2.04-1.36,1.15,0,2.3,0,3.49,0,.12.54.23,1.07.34,1.6.91,4.36,1.82,8.73,2.73,13.09.12.56.25,1.11.38,1.67v.12ZM117.56,62.02c-.42-2.03-.84-4.03-1.26-6.03-.02,0-.03,0-.05-.01-.73,2.01-1.45,4.01-2.19,6.04h3.5Z"/><path class="cls-4" d="M105.46,51.1c.52.1,1.05.18,1.57.3.47.11.94.26,1.44.4-.25,1.19-.5,2.34-.74,3.48-.66-.19-1.3-.42-1.95-.56-.89-.2-1.81-.27-2.7-.02-.36.1-.73.3-1.02.54-.49.42-.5,1.02-.03,1.46.32.3.7.55,1.09.78.87.52,1.78.98,2.62,1.53.99.66,1.72,1.56,1.87,2.78.27,2.16-.53,3.86-2.34,5.07-1.14.76-2.43,1.1-3.78,1.22-1.88.17-3.72-.04-5.52-.63-.12-.04-.24-.09-.35-.14-.03-.01-.07-.04-.12-.07.25-1.19.51-2.38.77-3.6.31.13.59.27.89.39,1.4.57,2.85.82,4.35.54.39-.07.79-.25,1.12-.47.72-.48.79-1.39.13-1.95-.43-.37-.95-.65-1.44-.94-.77-.47-1.58-.86-2.3-1.38-.93-.67-1.6-1.56-1.73-2.75-.19-1.77.47-3.21,1.83-4.33,1.18-.97,2.59-1.41,4.09-1.59.08-.01.16-.04.25-.06h1.99Z"/><path class="cls-4" d="M90.03,51.41c-.22.54-.43,1.05-.65,1.56-2.04,4.87-4.09,9.75-6.12,14.63-.1.23-.22.29-.45.29-1.29-.01-2.58-.01-3.87,0-.27,0-.36-.09-.43-.34-1.09-4.26-2.2-8.52-3.29-12.78-.2-.78-.6-1.32-1.34-1.64-1.19-.53-2.43-.89-3.7-1.19-.06-.01-.11-.03-.16-.04q0-.49.48-.49c2.26,0,4.51,0,6.77,0,1.07,0,1.84.62,2.05,1.68.57,3,1.13,6,1.7,9,.02.13.05.26.09.45.06-.11.1-.17.13-.24,1.4-3.55,2.8-7.09,4.2-10.64.08-.19.17-.26.38-.26,1.31.01,2.62,0,3.93,0,.08,0,.17,0,.29.01Z"/><path class="cls-4" d="M88.32,67.88c1.18-5.51,2.35-10.98,3.52-16.47h4.28c-.18.84-.35,1.65-.53,2.47-.97,4.53-1.94,9.06-2.9,13.59-.07.31-.18.41-.51.41-1.17-.02-2.34,0-3.52,0h-.35Z"/><path class="cls-4" d="M19.55,18.03l-.77-.56,1.11-1.43-1.73-.52.29-.9,1.7.6-.04-1.81h.95l-.04,1.81,1.69-.6.29.9-1.72.52,1.09,1.43-.77.56-1.02-1.48-1.04,1.48Z"/><path class="cls-4" d="M25.66,18.03l-.77-.56,1.11-1.43-1.73-.52.29-.9,1.7.6-.04-1.81h.95l-.04,1.81,1.69-.6.29.9-1.72.52,1.09,1.43-.77.56-1.02-1.48-1.04,1.48Z"/><path class="cls-4" d="M31.77,18.03l-.77-.56,1.11-1.43-1.73-.52.29-.9,1.7.6-.04-1.81h.95l-.04,1.81,1.69-.6.29.9-1.72.52,1.09,1.43-.77.56-1.02-1.48-1.04,1.48Z"/><path class="cls-4" d="M37.88,18.03l-.77-.56,1.11-1.43-1.73-.52.29-.9,1.7.6-.04-1.81h.95l-.04,1.81,1.69-.6.29.9-1.72.52,1.09,1.43-.77.56-1.02-1.48-1.04,1.48Z"/><path class="cls-4" d="M48.93,23.69c-.52,0-1.01-.11-1.45-.32s-.82-.51-1.13-.89-.54-.81-.67-1.3l.99-.27c.09.36.25.68.48.94s.51.47.82.61c.31.15.64.22.99.22.45,0,.85-.11,1.21-.33.36-.22.64-.5.85-.86s.32-.75.32-1.18-.11-.84-.33-1.2c-.22-.36-.51-.64-.87-.85s-.75-.31-1.18-.31c-.48,0-.89.1-1.23.31-.34.21-.62.47-.83.78l-.94-.39.31-5.24h5.38v.99h-4.93l.51-.48-.27,4.47-.26-.34c.29-.33.64-.59,1.05-.78.41-.19.84-.28,1.29-.28.62,0,1.18.15,1.68.44.5.3.9.7,1.19,1.2s.44,1.07.44,1.69-.16,1.18-.47,1.69c-.31.51-.73.92-1.25,1.23-.52.31-1.09.46-1.71.46Z"/><path class="cls-4" d="M58.48,23.48v-1.95h-4.72v-.98l3.37-7.15h1.16l-3.37,7.15h3.56v-2.94h1.04v2.94h1.1v.98h-1.1v1.95h-1.04Z"/><path class="cls-4" d="M65.27,23.69c-.52,0-1.01-.11-1.45-.32s-.82-.51-1.13-.89-.54-.81-.67-1.3l.99-.27c.09.36.25.68.48.94s.51.47.82.61c.31.15.64.22.99.22.45,0,.85-.11,1.21-.33.36-.22.64-.5.85-.86s.32-.75.32-1.18-.11-.84-.33-1.2c-.22-.36-.51-.64-.87-.85s-.75-.31-1.18-.31c-.48,0-.89.1-1.23.31-.34.21-.62.47-.83.78l-.94-.39.31-5.24h5.38v.99h-4.93l.51-.48-.27,4.47-.26-.34c.29-.33.64-.59,1.05-.78.41-.19.84-.28,1.29-.28.62,0,1.18.15,1.68.44.5.3.9.7,1.19,1.2s.44,1.07.44,1.69-.16,1.18-.47,1.69c-.31.51-.73.92-1.25,1.23-.52.31-1.09.46-1.71.46Z"/><path class="cls-4" d="M74.82,23.48v-1.95h-4.72v-.98l3.37-7.15h1.16l-3.37,7.15h3.56v-2.94h1.04v2.94h1.1v.98h-1.1v1.95h-1.04Z"/><path class="cls-4" d="M18.43,40.22v-7.2h4.5v.71h-3.77v2.49h3.17v.71h-3.17v2.59h3.77v.71h-4.5Z"/><path class="cls-4" d="M23.53,40.22l2.11-2.73-2.06-2.67h.88l1.62,2.11,1.6-2.11h.88l-2.06,2.67,2.11,2.73h-.88l-1.64-2.17-1.66,2.17h-.88Z"/><path class="cls-4" d="M29.4,42.62v-7.8h.66v4.07h.08v3.73h-.74ZM31.83,40.37c-.5,0-.92-.13-1.26-.38-.34-.25-.6-.59-.78-1.03s-.27-.92-.27-1.45.09-1.03.27-1.46c.18-.43.44-.77.79-1.01.35-.25.77-.37,1.28-.37s.92.12,1.27.38.62.59.81,1.02.28.91.28,1.45-.09,1.02-.29,1.46c-.19.43-.46.77-.82,1.02-.36.25-.79.38-1.29.38ZM31.75,39.68c.38,0,.69-.09.94-.29.25-.19.44-.45.56-.78s.19-.7.19-1.11-.06-.77-.19-1.1c-.12-.33-.31-.58-.56-.77-.25-.19-.57-.29-.96-.29s-.69.09-.94.28c-.25.18-.43.44-.56.76-.12.33-.19.7-.19,1.12s.06.79.19,1.12c.12.33.31.59.56.77s.57.28.95.28Z"/><path class="cls-4" d="M35.42,33.79v-.83h.74v.83h-.74ZM35.42,40.22v-5.4h.74v5.4h-.74Z"/><path class="cls-4" d="M37.66,40.22v-5.4h.66v1.3l-.13-.17c.06-.16.14-.31.24-.44s.2-.25.31-.33c.14-.12.3-.22.49-.28.19-.06.38-.1.57-.11.19-.01.36,0,.52.04v.69c-.2-.05-.41-.06-.64-.04s-.45.12-.65.28c-.18.14-.31.31-.4.5-.09.2-.15.4-.18.62-.03.22-.04.43-.04.65v2.7h-.73Z"/><path class="cls-4" d="M43.45,40.37c-.53,0-.98-.12-1.37-.35s-.68-.56-.9-.99c-.21-.42-.32-.92-.32-1.49s.11-1.1.32-1.53.51-.76.89-1,.83-.35,1.35-.35.99.12,1.36.37c.38.25.66.6.86,1.05.19.46.28,1,.26,1.63h-.75v-.26c-.01-.7-.16-1.23-.45-1.58-.29-.36-.71-.54-1.26-.54s-1.02.19-1.33.56c-.31.38-.46.91-.46,1.61s.15,1.21.46,1.58c.31.38.75.56,1.31.56.39,0,.72-.09,1.01-.27.29-.18.52-.44.68-.77l.69.27c-.21.47-.53.83-.94,1.09-.42.26-.88.39-1.41.39ZM41.38,37.72v-.62h4.12v.62h-4.12Z"/><path class="cls-4" d="M49.02,40.36c-.63,0-1.15-.14-1.56-.41-.41-.27-.66-.65-.75-1.14l.75-.12c.08.31.26.55.55.73.29.18.64.27,1.06.27s.73-.09.97-.26c.24-.17.35-.41.35-.7,0-.17-.04-.3-.11-.41-.08-.11-.23-.2-.46-.29-.23-.09-.57-.2-1.03-.32-.49-.13-.87-.27-1.15-.4-.28-.13-.47-.29-.59-.46-.12-.17-.17-.39-.17-.64,0-.31.09-.58.26-.81.17-.23.41-.41.72-.54.31-.13.66-.19,1.07-.19s.77.07,1.09.2c.32.13.58.32.78.55.2.24.31.51.35.82l-.75.14c-.05-.32-.21-.57-.47-.75-.26-.18-.6-.28-1.01-.29-.38-.01-.7.06-.94.22-.24.16-.36.36-.36.62,0,.14.04.27.13.37s.24.2.47.29c.23.09.55.19.98.29.5.13.89.26,1.17.4s.48.3.6.5.18.42.18.71c0,.51-.19.91-.57,1.2-.38.29-.9.44-1.56.44Z"/><path class="cls-4" d="M54.85,36.32l-.55-.4.79-1.02-1.24-.38.21-.64,1.21.43-.03-1.29h.68l-.03,1.29,1.21-.43.21.64-1.23.38.78,1.02-.55.4-.73-1.06-.74,1.06Z"/><path class="cls-4" d="M59.22,36.32l-.55-.4.79-1.02-1.24-.38.21-.64,1.21.43-.03-1.29h.68l-.03,1.29,1.21-.43.21.64-1.23.38.78,1.02-.55.4-.73-1.06-.74,1.06Z"/><path class="cls-4" d="M64.81,33.02h.75l-1.92,7.2h-.75l1.92-7.2Z"/><path class="cls-4" d="M67.46,36.32l-.55-.4.79-1.02-1.24-.38.21-.64,1.22.43-.03-1.29h.68l-.03,1.29,1.21-.43.21.64-1.23.38.78,1.02-.55.4-.73-1.06-.74,1.06Z"/><path class="cls-4" d="M71.82,36.32l-.55-.4.79-1.02-1.24-.38.21-.64,1.22.43-.03-1.29h.68l-.03,1.29,1.21-.43.21.64-1.23.38.78,1.02-.55.4-.73-1.06-.74,1.06Z"/></g></g></g></svg>