<?xml version="1.0" encoding="UTF-8"?><svg id="Layer_2" xmlns="http://www.w3.org/2000/svg" xmlns:xlink="http://www.w3.org/1999/xlink" viewBox="0 0 310.76 90.57"><defs><style>.cls-1{fill:url(#linear-gradient);stroke:url(#linear-gradient-2);stroke-width:.9px;}.cls-1,.cls-2{stroke-miterlimit:10;}.cls-2{fill:none;stroke:#01133d;}.cls-3{fill:#fff;stroke-width:0px;}</style><linearGradient id="linear-gradient" x1="155.38" y1="90.12" x2="155.38" y2=".45" gradientUnits="userSpaceOnUse"><stop offset="0" stop-color="#2364f6" stop-opacity="0"/><stop offset=".23" stop-color="rgba(44,107,246,.02)" stop-opacity=".02"/><stop offset=".46" stop-color="rgba(72,128,247,.06)" stop-opacity=".06"/><stop offset=".68" stop-color="rgba(120,164,250,.14)" stop-opacity=".14"/><stop offset=".91" stop-color="rgba(186,215,253,.25)" stop-opacity=".25"/><stop offset="1" stop-color="#dcf1ff" stop-opacity=".3"/></linearGradient><linearGradient id="linear-gradient-2" x1="155.38" y1="90.57" x2="155.38" y2="0" gradientUnits="userSpaceOnUse"><stop offset="0" stop-color="#061e51" stop-opacity="0"/><stop offset=".01" stop-color="rgba(15,39,88,.04)" stop-opacity=".04"/><stop offset=".09" stop-color="rgba(57,80,123,.24)" stop-opacity=".24"/><stop offset=".17" stop-color="rgba(96,119,154,.42)" stop-opacity=".42"/><stop offset=".26" stop-color="rgba(129,151,181,.58)" stop-opacity=".58"/><stop offset=".34" stop-color="rgba(157,179,204,.71)" stop-opacity=".71"/><stop offset=".44" stop-color="rgba(180,202,222,.82)" stop-opacity=".82"/><stop offset=".54" stop-color="rgba(198,219,237,.9)" stop-opacity=".9"/><stop offset=".65" stop-color="rgba(210,231,247,.96)" stop-opacity=".96"/><stop offset=".79" stop-color="rgba(217,238,253,.99)" stop-opacity=".99"/><stop offset="1" stop-color="#dcf1ff"/></linearGradient></defs><g id="Complete_Solution_Module"><g id="Payment_Selection"><rect class="cls-1" x=".45" y=".45" width="309.85" height="89.67" rx="4.51" ry="4.51"/><g id="Debit_Cards_Checking"><circle class="cls-2" cx="21.06" cy="22.97" r="10"/></g><path class="cls-3" d="M48.31,20.18h4.45c1.06,0,2,.2,2.82.61.82.41,1.45.98,1.9,1.72s.68,1.6.68,2.58-.23,1.84-.68,2.58-1.09,1.31-1.9,1.71c-.82.41-1.76.61-2.82.61h-4.45v-9.8ZM52.65,28.11c.98,0,1.76-.27,2.34-.82.58-.55.88-1.29.88-2.22s-.29-1.67-.88-2.22c-.58-.55-1.36-.82-2.34-.82h-2.07v6.08h2.07Z"/><path class="cls-3" d="M67.06,26.83h-5.7c.1.47.34.84.73,1.11s.86.41,1.43.41c.39,0,.74-.06,1.04-.18.3-.12.59-.3.85-.55l1.16,1.26c-.71.81-1.75,1.22-3.11,1.22-.85,0-1.6-.17-2.25-.5s-1.16-.79-1.51-1.38c-.36-.59-.53-1.26-.53-2s.17-1.4.52-2c.35-.59.83-1.05,1.44-1.39.61-.33,1.29-.5,2.05-.5s1.4.16,2,.48,1.07.77,1.41,1.37.51,1.28.51,2.06c0,.03-.01.22-.04.59ZM61.95,24.4c-.34.28-.54.66-.62,1.15h3.71c-.08-.48-.28-.86-.62-1.14-.34-.28-.75-.43-1.23-.43s-.91.14-1.25.42Z"/><path class="cls-3" d="M74.92,22.82c.57.32,1.02.78,1.35,1.36.33.58.49,1.26.49,2.04s-.16,1.45-.49,2.04c-.33.58-.78,1.04-1.35,1.36s-1.21.48-1.91.48c-1.04,0-1.83-.33-2.37-.98v.87h-2.09v-10.39h2.18v3.65c.55-.61,1.31-.91,2.27-.91.7,0,1.34.16,1.91.48ZM74.01,27.73c.36-.38.54-.88.54-1.52s-.18-1.14-.54-1.52-.82-.57-1.38-.57-1.02.19-1.38.57-.54.88-.54,1.52.18,1.14.54,1.52.82.57,1.38.57,1.02-.19,1.38-.57Z"/><path class="cls-3" d="M78.33,21.04c-.25-.23-.38-.52-.38-.87s.13-.63.38-.87.58-.35.98-.35.73.11.98.34c.25.22.38.5.38.84,0,.36-.13.67-.38.9-.25.24-.58.36-.98.36s-.73-.12-.98-.35ZM78.22,22.44h2.18v7.53h-2.18v-7.53Z"/><path class="cls-3" d="M87.29,29.61c-.21.16-.48.28-.79.36-.31.08-.64.12-.99.12-.9,0-1.59-.23-2.08-.69-.49-.46-.73-1.13-.73-2.02v-3.09h-1.16v-1.68h1.16v-1.83h2.18v1.83h1.88v1.68h-1.88v3.07c0,.32.08.56.25.74s.39.26.69.26c.34,0,.64-.09.88-.28l.59,1.54Z"/><path class="cls-3" d="M94.62,29.49c-.81-.43-1.44-1.04-1.9-1.81-.46-.77-.69-1.64-.69-2.61s.23-1.84.69-2.61c.46-.77,1.1-1.37,1.9-1.81.81-.43,1.72-.65,2.72-.65.85,0,1.62.15,2.3.45.69.3,1.26.73,1.73,1.29l-1.46,1.34c-.66-.77-1.48-1.15-2.46-1.15-.61,0-1.15.13-1.62.4-.48.27-.85.64-1.11,1.11-.27.48-.4,1.02-.4,1.62s.13,1.15.4,1.62c.27.48.64.85,1.11,1.11.48.27,1.02.4,1.62.4.98,0,1.8-.39,2.46-1.16l1.46,1.34c-.47.57-1.05,1-1.74,1.3-.69.3-1.46.45-2.31.45-1,0-1.9-.22-2.71-.65Z"/><path class="cls-3" d="M108.41,23.17c.62.55.94,1.39.94,2.51v4.3h-2.04v-.94c-.41.7-1.18,1.05-2.3,1.05-.58,0-1.08-.1-1.5-.29-.42-.2-.75-.47-.97-.81-.22-.34-.34-.74-.34-1.18,0-.7.26-1.25.79-1.65s1.34-.6,2.44-.6h1.74c0-.48-.15-.84-.43-1.1-.29-.26-.72-.38-1.3-.38-.4,0-.8.06-1.18.19-.39.13-.72.3-.99.51l-.78-1.53c.41-.29.9-.51,1.48-.67.57-.16,1.16-.24,1.77-.24,1.17,0,2.06.28,2.69.83ZM106.55,28.36c.29-.17.49-.43.62-.76v-.77h-1.5c-.9,0-1.34.29-1.34.88,0,.28.11.5.33.67.22.16.52.24.9.24s.71-.09.99-.26Z"/><path class="cls-3" d="M114.47,22.61c.44-.19.95-.28,1.53-.28v2.02c-.24-.02-.41-.03-.49-.03-.63,0-1.12.17-1.47.53-.35.35-.53.88-.53,1.58v3.56h-2.18v-7.53h2.09v.99c.26-.36.61-.64,1.06-.83Z"/><path class="cls-3" d="M124.91,19.59v10.39h-2.09v-.87c-.54.65-1.33.98-2.35.98-.71,0-1.35-.16-1.92-.48-.57-.32-1.02-.77-1.35-1.36-.33-.59-.49-1.27-.49-2.04s.16-1.46.49-2.04c.33-.59.78-1.04,1.35-1.36.57-.32,1.21-.48,1.92-.48.96,0,1.71.3,2.25.91v-3.65h2.18ZM122.22,27.73c.36-.38.55-.88.55-1.52s-.18-1.14-.55-1.52-.82-.57-1.37-.57-1.02.19-1.39.57c-.36.38-.55.88-.55,1.52s.18,1.14.55,1.52c.36.38.83.57,1.39.57s1.01-.19,1.37-.57Z"/><path class="cls-3" d="M127.62,29.86c-.6-.15-1.07-.35-1.43-.58l.73-1.57c.34.21.74.39,1.22.52.48.14.94.2,1.4.2.92,0,1.39-.23,1.39-.69,0-.21-.13-.37-.38-.46-.25-.09-.64-.17-1.16-.24-.62-.09-1.12-.2-1.53-.32s-.75-.34-1.04-.64c-.29-.31-.44-.75-.44-1.32,0-.48.14-.9.41-1.27.28-.37.68-.66,1.2-.86s1.15-.31,1.87-.31c.53,0,1.06.06,1.59.17.53.12.96.28,1.31.48l-.73,1.55c-.66-.37-1.39-.56-2.17-.56-.47,0-.82.07-1.05.2-.23.13-.35.3-.35.5,0,.23.13.4.38.49.25.09.65.18,1.2.27.62.1,1.12.21,1.51.33.39.12.73.33,1.02.64.29.31.43.74.43,1.29,0,.47-.14.88-.42,1.25-.28.36-.69.65-1.22.85-.54.2-1.17.3-1.91.3-.62,0-1.24-.08-1.83-.23Z"/><path class="cls-3" d="M141.47,18.19h1.95l-4.62,13.19h-1.95l4.62-13.19Z"/><path class="cls-3" d="M149.9,29.49c-.81-.43-1.44-1.04-1.9-1.81-.46-.77-.69-1.64-.69-2.61s.23-1.84.69-2.61c.46-.77,1.1-1.37,1.9-1.81.81-.43,1.72-.65,2.72-.65.85,0,1.62.15,2.3.45.69.3,1.26.73,1.73,1.29l-1.46,1.34c-.66-.77-1.48-1.15-2.46-1.15-.61,0-1.15.13-1.62.4-.48.27-.85.64-1.11,1.11-.27.48-.4,1.02-.4,1.62s.13,1.15.4,1.62c.27.48.64.85,1.11,1.11.48.27,1.02.4,1.62.4.98,0,1.8-.39,2.46-1.16l1.46,1.34c-.47.57-1.05,1-1.74,1.3-.69.3-1.46.45-2.31.45-1,0-1.9-.22-2.71-.65Z"/><path class="cls-3" d="M164.87,23.17c.57.56.86,1.39.86,2.49v4.31h-2.18v-3.98c0-.6-.13-1.04-.39-1.34-.26-.29-.64-.44-1.13-.44-.55,0-.99.17-1.32.51-.33.34-.49.85-.49,1.52v3.72h-2.18v-10.39h2.18v3.64c.29-.29.64-.51,1.05-.67.41-.15.86-.23,1.34-.23.93,0,1.69.28,2.26.84Z"/><path class="cls-3" d="M175.12,26.83h-5.7c.1.47.34.84.73,1.11s.86.41,1.43.41c.39,0,.74-.06,1.04-.18.3-.12.59-.3.85-.55l1.16,1.26c-.71.81-1.75,1.22-3.11,1.22-.85,0-1.6-.17-2.25-.5s-1.16-.79-1.51-1.38c-.36-.59-.53-1.26-.53-2s.17-1.4.52-2c.35-.59.83-1.05,1.44-1.39.61-.33,1.29-.5,2.05-.5s1.4.16,2,.48,1.07.77,1.41,1.37.51,1.28.51,2.06c0,.03-.01.22-.04.59ZM170.01,24.4c-.34.28-.54.66-.62,1.15h3.71c-.08-.48-.28-.86-.62-1.14-.34-.28-.75-.43-1.23-.43s-.91.14-1.25.42Z"/><path class="cls-3" d="M178.1,29.59c-.64-.33-1.14-.79-1.5-1.38-.36-.59-.54-1.26-.54-2s.18-1.41.54-2c.36-.59.86-1.05,1.5-1.38.64-.33,1.36-.5,2.16-.5s1.49.17,2.08.5c.59.33,1.02.81,1.3,1.42l-1.69.91c-.39-.69-.96-1.04-1.69-1.04-.57,0-1.04.19-1.41.56s-.56.88-.56,1.53.19,1.15.56,1.53c.37.37.84.56,1.41.56.75,0,1.31-.35,1.69-1.04l1.69.92c-.27.6-.7,1.06-1.3,1.4s-1.29.5-2.08.5-1.52-.17-2.16-.5Z"/><path class="cls-3" d="M188.07,27.02l-1.05,1.04v1.92h-2.18v-10.39h2.18v5.88l3.19-3.02h2.6l-3.14,3.19,3.42,4.34h-2.65l-2.38-2.95Z"/><path class="cls-3" d="M194.13,21.04c-.25-.23-.38-.52-.38-.87s.13-.63.38-.87.58-.35.98-.35.73.11.98.34c.25.22.38.5.38.84,0,.36-.13.67-.38.9-.25.24-.58.36-.98.36s-.73-.12-.98-.35ZM194.02,22.44h2.18v7.53h-2.18v-7.53Z"/><path class="cls-3" d="M205.08,23.17c.57.56.86,1.39.86,2.49v4.31h-2.18v-3.98c0-.6-.13-1.04-.39-1.34-.26-.29-.64-.44-1.13-.44-.55,0-.99.17-1.32.51-.33.34-.49.85-.49,1.52v3.72h-2.18v-7.53h2.09v.88c.29-.32.65-.56,1.08-.73s.9-.26,1.41-.26c.93,0,1.69.28,2.26.84Z"/><path class="cls-3" d="M215.76,22.44v6.27c0,1.38-.36,2.41-1.08,3.08s-1.77,1.01-3.15,1.01c-.73,0-1.42-.09-2.07-.27-.65-.18-1.19-.43-1.62-.77l.87-1.57c.32.26.72.47,1.2.62.49.15.97.23,1.46.23.76,0,1.31-.17,1.67-.51.36-.34.54-.86.54-1.55v-.32c-.57.62-1.36.94-2.38.94-.69,0-1.32-.15-1.9-.46-.57-.3-1.03-.73-1.37-1.28s-.5-1.19-.5-1.9.17-1.35.5-1.9.79-.98,1.37-1.28c.57-.3,1.21-.45,1.9-.45,1.09,0,1.92.36,2.49,1.08v-.97h2.07ZM213.06,27.31c.37-.34.55-.79.55-1.34s-.18-1-.55-1.34c-.37-.34-.84-.51-1.42-.51s-1.06.17-1.43.51-.56.79-.56,1.34.19,1,.56,1.34.85.51,1.43.51,1.05-.17,1.42-.51Z"/></g></g></svg>