<?xml version="1.0" encoding="UTF-8"?><svg id="Layer_2" xmlns="http://www.w3.org/2000/svg" xmlns:xlink="http://www.w3.org/1999/xlink" viewBox="0 0 310.76 90.57"><defs><style>.cls-1{fill:url(#linear-gradient);stroke:url(#linear-gradient-2);stroke-width:.9px;}.cls-1,.cls-2{stroke-miterlimit:10;}.cls-2{fill:none;stroke:#01133d;}.cls-3{fill:#fff;stroke-width:0px;}</style><linearGradient id="linear-gradient" x1="155.38" y1="90.12" x2="155.38" y2=".45" gradientUnits="userSpaceOnUse"><stop offset="0" stop-color="#2364f6" stop-opacity="0"/><stop offset=".23" stop-color="rgba(44,107,246,.02)" stop-opacity=".02"/><stop offset=".46" stop-color="rgba(72,128,247,.06)" stop-opacity=".06"/><stop offset=".68" stop-color="rgba(120,164,250,.14)" stop-opacity=".14"/><stop offset=".91" stop-color="rgba(186,215,253,.25)" stop-opacity=".25"/><stop offset="1" stop-color="#dcf1ff" stop-opacity=".3"/></linearGradient><linearGradient id="linear-gradient-2" x1="155.38" y1="90.57" x2="155.38" y2="0" gradientUnits="userSpaceOnUse"><stop offset="0" stop-color="#061e51" stop-opacity="0"/><stop offset=".01" stop-color="rgba(15,39,88,.04)" stop-opacity=".04"/><stop offset=".09" stop-color="rgba(57,80,123,.24)" stop-opacity=".24"/><stop offset=".17" stop-color="rgba(96,119,154,.42)" stop-opacity=".42"/><stop offset=".26" stop-color="rgba(129,151,181,.58)" stop-opacity=".58"/><stop offset=".34" stop-color="rgba(157,179,204,.71)" stop-opacity=".71"/><stop offset=".44" stop-color="rgba(180,202,222,.82)" stop-opacity=".82"/><stop offset=".54" stop-color="rgba(198,219,237,.9)" stop-opacity=".9"/><stop offset=".65" stop-color="rgba(210,231,247,.96)" stop-opacity=".96"/><stop offset=".79" stop-color="rgba(217,238,253,.99)" stop-opacity=".99"/><stop offset="1" stop-color="#dcf1ff"/></linearGradient></defs><g id="Complete_Solution_Module"><g id="Payment_Selection"><rect class="cls-1" x=".45" y=".45" width="309.85" height="89.67" rx="4.51" ry="4.51"/><g id="Selection_highlight"><circle class="cls-2" cx="21.06" cy="19.17" r="10"/></g><path class="cls-3" d="M48.31,16.22h4.45c1.06,0,2,.2,2.82.61.82.41,1.45.98,1.9,1.72s.68,1.6.68,2.58-.23,1.84-.68,2.58-1.09,1.31-1.9,1.71c-.82.41-1.76.61-2.82.61h-4.45v-9.8ZM52.65,24.16c.98,0,1.76-.27,2.34-.82.58-.55.88-1.29.88-2.22s-.29-1.67-.88-2.22c-.58-.55-1.36-.82-2.34-.82h-2.07v6.08h2.07Z"/><path class="cls-3" d="M59.83,17.09c-.25-.23-.38-.52-.38-.87s.13-.63.38-.87.58-.35.98-.35.73.11.98.34c.25.22.38.5.38.84,0,.36-.13.67-.38.9-.25.24-.58.36-.98.36s-.73-.12-.98-.35ZM59.72,18.49h2.18v7.53h-2.18v-7.53Z"/><path class="cls-3" d="M71.71,18.49v6.27c0,1.38-.36,2.41-1.08,3.08s-1.77,1.01-3.15,1.01c-.73,0-1.42-.09-2.07-.27-.65-.18-1.19-.43-1.62-.77l.87-1.57c.32.26.72.47,1.2.62.49.15.97.23,1.46.23.76,0,1.31-.17,1.67-.51.36-.34.54-.86.54-1.55v-.32c-.57.62-1.36.94-2.38.94-.69,0-1.32-.15-1.9-.46-.57-.3-1.03-.73-1.37-1.28s-.5-1.19-.5-1.9.17-1.35.5-1.9.79-.98,1.37-1.28c.57-.3,1.21-.45,1.9-.45,1.09,0,1.92.36,2.49,1.08v-.97h2.07ZM69,23.35c.37-.34.55-.79.55-1.34s-.18-1-.55-1.34c-.37-.34-.84-.51-1.42-.51s-1.06.17-1.43.51-.56.79-.56,1.34.19,1,.56,1.34.85.51,1.43.51,1.05-.17,1.42-.51Z"/><path class="cls-3" d="M73.85,17.09c-.25-.23-.38-.52-.38-.87s.13-.63.38-.87.58-.35.98-.35.73.11.98.34c.25.22.38.5.38.84,0,.36-.13.67-.38.9-.25.24-.58.36-.98.36s-.73-.12-.98-.35ZM73.74,18.49h2.18v7.53h-2.18v-7.53Z"/><path class="cls-3" d="M82.81,25.66c-.21.16-.48.28-.79.36-.31.08-.64.12-.99.12-.9,0-1.59-.23-2.08-.69-.49-.46-.73-1.13-.73-2.02v-3.09h-1.16v-1.68h1.16v-1.83h2.18v1.83h1.88v1.68h-1.88v3.07c0,.32.08.56.25.74s.39.26.69.26c.34,0,.64-.09.88-.28l.59,1.54Z"/><path class="cls-3" d="M89.77,19.21c.62.55.94,1.39.94,2.51v4.3h-2.04v-.94c-.41.7-1.18,1.05-2.3,1.05-.58,0-1.08-.1-1.5-.29-.42-.2-.75-.47-.97-.81-.22-.34-.34-.74-.34-1.18,0-.7.26-1.25.79-1.65s1.34-.6,2.44-.6h1.74c0-.48-.15-.84-.43-1.1-.29-.26-.72-.38-1.3-.38-.4,0-.8.06-1.18.19-.39.13-.72.3-.99.51l-.78-1.53c.41-.29.9-.51,1.48-.67.57-.16,1.16-.24,1.77-.24,1.17,0,2.06.28,2.69.83ZM87.9,24.4c.29-.17.49-.43.62-.76v-.77h-1.5c-.9,0-1.34.29-1.34.88,0,.28.11.5.33.67.22.16.52.24.9.24s.71-.09.99-.26Z"/><path class="cls-3" d="M92.68,15.63h2.18v10.39h-2.18v-10.39Z"/><path class="cls-3" d="M115.82,16.22l-3.21,9.8h-2.44l-2.16-6.64-2.23,6.64h-2.42l-3.22-9.8h2.35l2.21,6.89,2.31-6.89h2.1l2.24,6.94,2.28-6.94h2.17Z"/><path class="cls-3" d="M122.09,19.21c.62.55.94,1.39.94,2.51v4.3h-2.04v-.94c-.41.7-1.18,1.05-2.3,1.05-.58,0-1.08-.1-1.5-.29-.42-.2-.75-.47-.97-.81-.22-.34-.34-.74-.34-1.18,0-.7.26-1.25.79-1.65s1.34-.6,2.44-.6h1.74c0-.48-.15-.84-.43-1.1-.29-.26-.72-.38-1.3-.38-.4,0-.8.06-1.18.19-.39.13-.72.3-.99.51l-.78-1.53c.41-.29.9-.51,1.48-.67.57-.16,1.16-.24,1.77-.24,1.17,0,2.06.28,2.69.83ZM120.23,24.4c.29-.17.49-.43.62-.76v-.77h-1.5c-.9,0-1.34.29-1.34.88,0,.28.11.5.33.67.22.16.52.24.9.24s.71-.09.99-.26Z"/><path class="cls-3" d="M125,15.63h2.18v10.39h-2.18v-10.39Z"/><path class="cls-3" d="M129.22,15.63h2.18v10.39h-2.18v-10.39Z"/><path class="cls-3" d="M140.77,22.87h-5.7c.1.47.34.84.73,1.11s.86.41,1.43.41c.39,0,.74-.06,1.04-.18.3-.12.59-.3.85-.55l1.16,1.26c-.71.81-1.75,1.22-3.11,1.22-.85,0-1.6-.17-2.25-.5s-1.16-.79-1.51-1.38c-.36-.59-.53-1.26-.53-2s.17-1.4.52-2c.35-.59.83-1.05,1.44-1.39.61-.33,1.29-.5,2.05-.5s1.4.16,2,.48,1.07.77,1.41,1.37.51,1.28.51,2.06c0,.03-.01.22-.04.59ZM135.66,20.45c-.34.28-.54.66-.62,1.15h3.71c-.08-.48-.28-.86-.62-1.14-.34-.28-.75-.43-1.23-.43s-.91.14-1.25.42Z"/><path class="cls-3" d="M147.12,25.66c-.21.16-.48.28-.79.36-.31.08-.64.12-.99.12-.9,0-1.59-.23-2.08-.69-.49-.46-.73-1.13-.73-2.02v-3.09h-1.16v-1.68h1.16v-1.83h2.18v1.83h1.88v1.68h-1.88v3.07c0,.32.08.56.25.74s.39.26.69.26c.34,0,.64-.09.88-.28l.59,1.54Z"/><path class="cls-3" d="M149.06,25.9c-.6-.15-1.07-.35-1.43-.58l.73-1.57c.34.21.74.39,1.22.52.48.14.94.2,1.4.2.92,0,1.39-.23,1.39-.69,0-.21-.13-.37-.38-.46-.25-.09-.64-.17-1.16-.24-.62-.09-1.12-.2-1.53-.32s-.75-.34-1.04-.64c-.29-.31-.44-.75-.44-1.32,0-.48.14-.9.41-1.27.28-.37.68-.66,1.2-.86s1.15-.31,1.87-.31c.53,0,1.06.06,1.59.17.53.12.96.28,1.31.48l-.73,1.55c-.66-.37-1.39-.56-2.17-.56-.47,0-.82.07-1.05.2-.23.13-.35.3-.35.5,0,.23.13.4.38.49.25.09.65.18,1.2.27.62.1,1.12.21,1.51.33.39.12.73.33,1.02.64.29.31.43.74.43,1.29,0,.47-.14.88-.42,1.25-.28.36-.69.65-1.22.85-.54.2-1.17.3-1.91.3-.62,0-1.24-.08-1.83-.23Z"/></g></g></svg>