<?xml version="1.0" standalone="no"?><svg xmlns:xlink="http://www.w3.org/1999/xlink" xmlns="http://www.w3.org/2000/svg" viewBox="0 0 1000 500" preserveAspectRatio="xMaxYMax slice"><g transform="scale(1.1061946902654867)"><rect x="0" y="0" width="904" height="452" fill="#ffffff"/><circle cx="355.14" cy="32.29" r="25.83" fill="#7d95c4"/><circle cx="419.71999999999997" cy="32.29" r="25.83" fill="#6680eb"/><circle cx="484.28999999999996" cy="32.29" r="25.83" fill="#6e87ec"/><circle cx="807.14" cy="32.29" r="25.83" fill="#7f97c4"/><circle cx="226" cy="96.86" r="25.83" fill="#e1e7f1"/><circle cx="290.57" cy="96.86" r="25.83" fill="#92a5f1"/><circle cx="355.14" cy="96.86" r="25.83" fill="#a7b8d7"/><circle cx="548.86" cy="96.86" r="25.83" fill="#2b4fe3"/><circle cx="871.72" cy="96.86" r="25.83" fill="#f8f9fe"/><circle cx="226" cy="161.43" r="25.83" fill="#c3cee4"/><circle cx="290.57" cy="161.43" r="25.83" fill="#f9fafe"/><circle cx="355.14" cy="161.43" r="25.83" fill="#1940e1"/><circle cx="613.4300000000001" cy="161.43" r="25.83" fill="#b5c3dd"/><circle cx="807.14" cy="161.43" r="25.83" fill="#718cbe"/><circle cx="871.72" cy="161.43" r="25.83" fill="#95a9ce"/><circle cx="161.43" cy="226" r="25.83" fill="#eff2fd"/><circle cx="226" cy="226" r="25.83" fill="#dde3fb"/><circle cx="548.86" cy="226" r="25.83" fill="#4b6cad"/><circle cx="871.72" cy="226" r="25.83" fill="#c2cde3"/><circle cx="32.29" cy="290.57" r="25.83" fill="#899df0"/><circle cx="226" cy="290.57" r="25.83" fill="#eef1f7"/><circle cx="484.28999999999996" cy="290.57" r="25.83" fill="#627ceb"/><circle cx="807.14" cy="290.57" r="25.83" fill="#dfe4fb"/><circle cx="32.29" cy="355.14" r="25.83" fill="#5d7bb5"/><circle cx="96.86" cy="355.14" r="25.83" fill="#244c9b"/><circle cx="161.43" cy="355.14" r="25.83" fill="#a0b0f3"/><circle cx="355.14" cy="355.14" r="25.83" fill="#b7c5de"/><circle cx="678" cy="355.14" r="25.83" fill="#4a68e7"/><circle cx="871.72" cy="355.14" r="25.83" fill="#bfcbe2"/><circle cx="32.29" cy="419.71999999999997" r="25.83" fill="#fcfdfe"/><circle cx="290.57" cy="419.71999999999997" r="25.83" fill="#ced6f9"/><circle cx="419.71999999999997" cy="419.71999999999997" r="25.83" fill="#f9fafe"/><circle cx="548.86" cy="419.71999999999997" r="25.83" fill="#617ceb"/><circle cx="678" cy="419.71999999999997" r="25.83" fill="#627fb7"/><circle cx="807.14" cy="419.71999999999997" r="25.83" fill="#d7ddfa"/></g></svg>