<svg xmlns="http://www.w3.org/2000/svg" viewBox="0 0 1007.6 566.775"><rect width="1007.6" height="566.775" fill="transparent" id="bg" class="bg"/><g><g transform="translate(0.00,&#10;                                0.00) rotate(90, 62.975, 62.975)"><svg xmlns="http://www.w3.org/2000/svg" id="Layer_1" data-name="Layer 1" viewBox="0 0 100 100" width="125.95" height="125.95"><circle cx="50" cy="50" r="50" fill="#224B9A"/></svg></g><g transform="translate(0.00,&#10;                                125.95) rotate(270, 62.975, 62.975)"><svg xmlns="http://www.w3.org/2000/svg" id="Layer_1" data-name="Layer 1" viewBox="0 0 100 100" width="125.95" height="125.95"><path d="M100,100A50,50,0,0,0,0,100Z" fill="#7B53F5"/></svg></g><g transform="translate(125.95,&#10;                                125.95) rotate(180, 62.975, 62.975)"><svg xmlns="http://www.w3.org/2000/svg" id="Layer_1" data-name="Layer 1" viewBox="0 0 100 100" width="125.95" height="125.95"><path d="M50,100a50,50,0,1,1,50-50v50Z" fill="#3D348B"/></svg></g><g transform="translate(251.90,&#10;                                0.00) rotate(180, 62.975, 62.975)"><svg xmlns="http://www.w3.org/2000/svg" id="Layer_1" data-name="Layer 1" viewBox="0 0 100 100" width="125.95" height="125.95"><path d="M50,100a50,50,0,1,1,50-50v50Z" fill="#3D348B"/></svg></g><g transform="translate(377.85,&#10;                                0.00) rotate(180, 62.975, 62.975)"><svg xmlns="http://www.w3.org/2000/svg" id="Layer_1" data-name="Layer 1" viewBox="0 0 100 100" width="125.95" height="125.95"><circle cx="50" cy="50" r="50" fill="#224B9A"/></svg></g><g transform="translate(377.85,&#10;                                125.95) rotate(270, 62.975, 62.975)"><svg xmlns="http://www.w3.org/2000/svg" id="Layer_1" data-name="Layer 1" viewBox="0 0 100 100" width="125.95" height="125.95"><path d="M50,100h0A50,50,0,0,1,0,50V0H100V50A50,50,0,0,1,50,100Z" fill="#56C3FF"/></svg></g><g transform="translate(503.80,&#10;                                0.00) rotate(0, 62.975, 62.975)"><svg xmlns="http://www.w3.org/2000/svg" id="Layer_1" data-name="Layer 1" viewBox="0 0 100 100" width="125.95" height="125.95"><path d="M50,100h0A50,50,0,0,1,0,50V0H100V50A50,50,0,0,1,50,100Z" fill="#56C3FF"/></svg></g><g transform="translate(629.75,&#10;                                125.95) rotate(270, 62.975, 62.975)"><svg xmlns="http://www.w3.org/2000/svg" id="Layer_1" data-name="Layer 1" viewBox="0 0 100 100" width="125.95" height="125.95"><circle cx="50" cy="50" r="50" fill="#224B9A"/></svg></g><g transform="translate(755.70,&#10;                                125.95) rotate(270, 62.975, 62.975)"><svg xmlns="http://www.w3.org/2000/svg" id="Layer_1" data-name="Layer 1" viewBox="0 0 100 100" width="125.95" height="125.95"><path d="M100,100A50,50,0,0,0,0,100Z" fill="#7B53F5"/></svg></g><g transform="translate(881.65,&#10;                                125.95) rotate(0, 62.975, 62.975)"><svg xmlns="http://www.w3.org/2000/svg" id="Layer_1" data-name="Layer 1" viewBox="0 0 100 100" width="125.95" height="125.95"><path d="M50,100h0A50,50,0,0,1,0,50V0H100V50A50,50,0,0,1,50,100Z" fill="#56C3FF"/></svg></g></g><g><g transform="translate(0.00,&#10;                                251.90) rotate(0, 62.975, 62.975)"><svg xmlns="http://www.w3.org/2000/svg" id="Layer_1" data-name="Layer 1" viewBox="0 0 100 100" width="125.95" height="125.95"><path d="M50,100h0A50,50,0,0,1,0,50V0H100V50A50,50,0,0,1,50,100Z" fill="#56C3FF"/></svg></g><g transform="translate(125.95,&#10;                                377.85) rotate(270, 62.975, 62.975)"><svg xmlns="http://www.w3.org/2000/svg" id="Layer_1" data-name="Layer 1" viewBox="0 0 100 100" width="125.95" height="125.95"><circle cx="50" cy="50" r="50" fill="#224B9A"/></svg></g><g transform="translate(251.90,&#10;                                251.90) rotate(270, 62.975, 62.975)"><svg xmlns="http://www.w3.org/2000/svg" id="Layer_1" data-name="Layer 1" viewBox="0 0 100 100" width="125.95" height="125.95"><path d="M50,100h0A50,50,0,0,1,0,50V0H100V50A50,50,0,0,1,50,100Z" fill="#56C3FF"/></svg></g><g transform="translate(251.90,&#10;                                377.85) rotate(90, 62.975, 62.975)"><svg xmlns="http://www.w3.org/2000/svg" id="Layer_1" data-name="Layer 1" viewBox="0 0 100 100" width="125.95" height="125.95"><path d="M100,100A50,50,0,0,0,0,100Z" fill="#7B53F5"/></svg></g><g transform="translate(377.85,&#10;                                377.85) rotate(90, 62.975, 62.975)"><svg xmlns="http://www.w3.org/2000/svg" id="Layer_1" data-name="Layer 1" viewBox="0 0 100 100" width="125.95" height="125.95"><circle cx="50" cy="50" r="50" fill="#224B9A"/></svg></g><g transform="translate(503.80,&#10;                                251.90) rotate(180, 62.975, 62.975)"><svg xmlns="http://www.w3.org/2000/svg" id="Layer_1" data-name="Layer 1" viewBox="0 0 100 100" width="125.95" height="125.95"><path d="M50,100h0A50,50,0,0,1,0,50V0H100V50A50,50,0,0,1,50,100Z" fill="#56C3FF"/></svg></g><g transform="translate(629.75,&#10;                                251.90) rotate(180, 62.975, 62.975)"><svg xmlns="http://www.w3.org/2000/svg" id="Layer_1" data-name="Layer 1" viewBox="0 0 100 100" width="125.95" height="125.95"><circle cx="50" cy="50" r="50" fill="#224B9A"/></svg></g><g transform="translate(503.80,&#10;                                377.85) rotate(270, 62.975, 62.975)"><svg xmlns="http://www.w3.org/2000/svg" id="Layer_1" data-name="Layer 1" viewBox="0 0 100 100" width="125.95" height="125.95"><path d="M100,100A50,50,0,0,0,0,100Z" fill="#7B53F5"/></svg></g><g transform="translate(629.75,&#10;                                377.85) rotate(0, 62.975, 62.975)"><svg xmlns="http://www.w3.org/2000/svg" id="Layer_1" data-name="Layer 1" viewBox="0 0 100 100" width="125.95" height="125.95"><circle cx="50" cy="50" r="50" fill="#224B9A"/></svg></g><g transform="translate(755.70,&#10;                                251.90) rotate(90, 62.975, 62.975)"><svg xmlns="http://www.w3.org/2000/svg" id="Layer_1" data-name="Layer 1" viewBox="0 0 100 100" width="125.95" height="125.95"><path d="M50,100h0A50,50,0,0,1,0,50V0H100V50A50,50,0,0,1,50,100Z" fill="#56C3FF"/></svg></g><g transform="translate(755.70,&#10;                                377.85) rotate(0, 62.975, 62.975)"><svg xmlns="http://www.w3.org/2000/svg" id="Layer_1" data-name="Layer 1" viewBox="0 0 100 100" width="125.95" height="125.95"><path d="M100,100A50,50,0,0,0,0,100Z" fill="#7B53F5"/></svg></g><g transform="translate(881.65,&#10;                                377.85) rotate(0, 62.975, 62.975)"><svg xmlns="http://www.w3.org/2000/svg" id="Layer_1" data-name="Layer 1" viewBox="0 0 100 100" width="125.95" height="125.95"><path d="M100,100A50,50,0,0,0,0,100Z" fill="#7B53F5"/></svg></g></g><g><g transform="translate(0.00,&#10;                                503.80) rotate(270, 62.975, 62.975)"><svg xmlns="http://www.w3.org/2000/svg" id="Layer_1" data-name="Layer 1" viewBox="0 0 100 100" width="125.95" height="125.95"><path d="M50,100h0A50,50,0,0,1,0,50V0H100V50A50,50,0,0,1,50,100Z" fill="#56C3FF"/></svg></g><g transform="translate(125.95,&#10;                                503.80) rotate(90, 62.975, 62.975)"><svg xmlns="http://www.w3.org/2000/svg" id="Layer_1" data-name="Layer 1" viewBox="0 0 100 100" width="125.95" height="125.95"><circle cx="50" cy="50" r="50" fill="#224B9A"/></svg></g><g transform="translate(0.00,&#10;                                629.75) rotate(180, 62.975, 62.975)"><svg xmlns="http://www.w3.org/2000/svg" id="Layer_1" data-name="Layer 1" viewBox="0 0 100 100" width="125.95" height="125.95"><path d="M100,100A50,50,0,0,0,0,100Z" fill="#7B53F5"/></svg></g><g transform="translate(125.95,&#10;                                629.75) rotate(180, 62.975, 62.975)"><svg xmlns="http://www.w3.org/2000/svg" id="Layer_1" data-name="Layer 1" viewBox="0 0 100 100" width="125.95" height="125.95"><path d="M50,100h0A50,50,0,0,1,0,50V0H100V50A50,50,0,0,1,50,100Z" fill="#56C3FF"/></svg></g><g transform="translate(251.90,&#10;                                629.75) rotate(90, 62.975, 62.975)"><svg xmlns="http://www.w3.org/2000/svg" id="Layer_1" data-name="Layer 1" viewBox="0 0 100 100" width="125.95" height="125.95"><path d="M50,100h0A50,50,0,0,1,0,50V0H100V50A50,50,0,0,1,50,100Z" fill="#56C3FF"/></svg></g><g transform="translate(377.85,&#10;                                629.75) rotate(90, 62.975, 62.975)"><svg xmlns="http://www.w3.org/2000/svg" id="Layer_1" data-name="Layer 1" viewBox="0 0 100 100" width="125.95" height="125.95"><path d="M50,100h0A50,50,0,0,1,0,50V0H100V50A50,50,0,0,1,50,100Z" fill="#56C3FF"/></svg></g><g transform="translate(629.75,&#10;                                629.75) rotate(90, 62.975, 62.975)"><svg xmlns="http://www.w3.org/2000/svg" id="Layer_1" data-name="Layer 1" viewBox="0 0 100 100" width="125.95" height="125.95"><path d="M50,100h0A50,50,0,0,1,0,50V0H100V50A50,50,0,0,1,50,100Z" fill="#56C3FF"/></svg></g><g transform="translate(755.70,&#10;                                503.80) rotate(180, 62.975, 62.975)"><svg xmlns="http://www.w3.org/2000/svg" id="Layer_1" data-name="Layer 1" viewBox="0 0 100 100" width="125.95" height="125.95"><circle cx="50" cy="50" r="50" fill="#224B9A"/></svg></g><g transform="translate(755.70,&#10;                                629.75) rotate(0, 62.975, 62.975)"><svg xmlns="http://www.w3.org/2000/svg" id="Layer_1" data-name="Layer 1" viewBox="0 0 100 100" width="125.95" height="125.95"><path d="M100,100A50,50,0,0,0,0,100Z" fill="#7B53F5"/></svg></g><g transform="translate(881.65,&#10;                                629.75) rotate(180, 62.975, 62.975)"><svg xmlns="http://www.w3.org/2000/svg" id="Layer_1" data-name="Layer 1" viewBox="0 0 100 100" width="125.95" height="125.95"><circle cx="50" cy="50" r="50" fill="#224B9A"/></svg></g></g></svg>