<svg width="708" height="468" viewBox="0 0 708 468" fill="none" xmlns="http://www.w3.org/2000/svg">
<g opacity="0.2" clip-path="url(#clip0_137_1949)">
<path d="M210.871 61.46L169.307 19.8448L175.601 13.5432L162.074 -0.000242534L148.547 13.5432L162.074 27.0867L168.368 20.7853L209.932 62.4005L210.877 61.4545L210.871 61.46ZM162.074 24.2209L151.409 13.5432L162.074 2.86554L172.739 13.5432L162.074 24.2209Z" fill="#2364F6"/>
<path d="M157.584 13.561L162.05 18.0316L166.516 13.5594L162.049 9.08875L157.584 13.561Z" fill="#2364F6"/>
<path d="M426.058 196.784L419.765 203.086L354.092 137.333L292.978 137.786L286.971 131.772L284.037 134.71L219.06 69.6648L218.116 70.611L283.087 135.662L280.208 138.544L286.971 145.316L289.856 142.428L344.046 196.641L343.549 263.672L423.71 343.932L417.416 350.233L430.943 363.777L444.47 350.233L430.943 336.69L424.649 342.991L359.374 277.636L359.872 210.605L290.817 141.465L293.149 139.131L353.534 138.682L418.809 204.038L412.515 210.339L426.042 223.883L439.569 210.339L426.042 196.796L426.058 196.784ZM345.378 197.969L358.54 211.147L358.059 276.303L344.897 263.124L345.378 197.974L345.378 197.969Z" fill="#2364F6"/>
<path d="M432.971 279.855L395.015 241.969L395.236 212.281L395.037 212.082L348.036 164.962L349.798 163.197L345.333 158.727L340.869 163.197L345.333 167.667L347.091 165.908L386.964 205.88L386.743 235.579L431.634 280.408L431.634 296.812L418.77 309.697L432.297 323.241L445.824 309.697L432.971 296.829L432.971 279.855V279.855ZM432.297 299.019L442.961 309.697L432.297 320.375L421.632 309.697L432.297 299.019ZM393.689 240.641L388.086 235.031L388.29 207.214L393.893 212.829L393.689 240.641Z" fill="#2364F6"/>
<path d="M210.169 66.1672L214.635 70.6388L219.101 66.1673L214.635 61.6957L210.169 66.1672Z" fill="#2364F6"/>
<path d="M559.581 245.083L462.589 147.971L462.307 147.971L418.19 148.292L405.42 135.506L399.126 141.808L364.474 107.114L297.525 107.612L277.064 87.125L279.976 84.2094L273.212 77.4376L270.311 80.3422L242.158 52.1543L248.452 45.8528L234.925 32.3092L221.398 45.8528L234.925 59.3963L241.218 53.0948L269.372 81.2827L266.454 84.2039L273.218 90.9756L276.13 88.06L296.984 108.94L363.933 108.442L398.192 142.743L391.898 149.044L405.425 162.588L411.719 156.287L492.262 236.928L493.206 235.982L418.372 161.056L473.386 160.657L558.642 246.018L552.348 252.319L565.875 265.863L579.402 252.319L565.875 238.776L559.581 245.077L559.581 245.083ZM565.875 241.653L576.539 252.33L565.875 263.008L555.21 252.33L565.875 241.653ZM472.054 159.34L417.04 159.739L412.658 155.352L418.372 149.631L462.036 149.316L472.049 159.34L472.054 159.34Z" fill="#2364F6"/>
<path d="M561.302 252.351L565.768 256.823L570.234 252.351L565.768 247.88L561.302 252.351Z" fill="#2364F6"/>
<path d="M493.093 240.551L496.665 244.126L500.236 240.55L496.664 236.975L493.093 240.551Z" fill="#2364F6"/>
<path d="M442.663 231.416L447.128 235.888L451.595 231.417L447.129 226.945L442.663 231.416Z" fill="#2364F6"/>
<path d="M669.763 468.96L665.962 472.766L635.603 472.993L566.941 404.252L569.853 401.337L563.09 394.565L556.951 400.711L524.377 400.955L459.102 335.6L465.39 329.298L459.107 323.002L479.795 302.278L544.772 302.106L557.553 314.908L571.08 301.365L557.553 287.821L551.259 294.123L501.302 244.098L500.357 245.044L531.621 276.353L463.605 276.53L447.675 260.596L447.675 244.187L453.283 238.571L474.209 259.539L472.894 260.856L476.463 264.43L480.033 260.856L476.463 257.277L475.148 258.588L454.223 237.62L460.538 231.296L447.012 217.753L433.485 231.296L446.337 244.165L446.337 261.138L474.408 289.216L544.297 289.033L550.314 295.058L544.617 300.762L479.243 300.933L458.168 322.051L451.869 315.744L438.342 329.287L451.869 342.831L458.162 336.529L504.517 382.941L464.887 383.234L447.796 366.122L449.111 364.806L445.542 361.232L441.972 364.811L445.542 368.385L446.857 367.068L464.346 384.579L505.855 384.269L523.846 402.283L557.061 402.034L563.112 408.092L566.018 405.182L635.073 474.321L665.989 474.089L669.785 477.89L674.25 473.419L669.785 468.949L669.763 468.96ZM447.012 241.979L436.347 231.302L447.012 220.624L457.676 231.302L447.012 241.979ZM542.965 287.7L474.961 287.877L464.942 277.857L532.958 277.68L542.965 287.7V287.7Z" fill="#2364F6"/>
<path d="M653.424 376.441L619.154 342.123L558.973 342.577L541.064 324.646L538.152 327.556L531.389 320.784L538.152 314.012L544.916 320.784L542.009 323.7L559.52 341.232L619.706 340.784L654.369 375.495L655.684 374.178L659.253 377.752L655.684 381.332L652.114 377.752L653.424 376.441Z" fill="#2364F6"/>
<path d="M689.941 448.658L694.407 453.13L698.873 448.658L694.407 444.187L689.941 448.658Z" fill="#2364F6"/>
<path d="M655.037 371.174L656.375 371.174L656.447 345.531L659.359 342.615L655.783 339.041L654.479 340.347L629.011 314.748L629.431 258.167L563.759 192.414L570.052 186.112L556.525 172.569L542.999 186.112L556.525 199.656L562.819 193.354L618.33 248.934L617.927 303.595L593.354 278.898L599.659 272.585L586.132 259.041L572.605 272.585L586.132 286.128L592.409 279.844L653.54 341.282L652.219 342.604L655.12 345.503L655.049 371.157L655.037 371.174ZM627.68 313.42L619.242 304.939L619.645 250.273L628.083 258.721L627.674 313.42L627.68 313.42Z" fill="#2364F6"/>
<path d="M755.257 583.759L762.02 590.531L768.784 583.759L762.672 577.64L763.125 516.406L701.746 454.952L708.04 448.65L694.513 435.107L688.219 441.408L659.408 412.562L662.315 409.652L656.281 403.61L656.33 384.85L654.993 384.85L654.943 403.494L652.645 405.796L607.533 360.628L540.584 361.126L525.985 346.51L532.273 340.214L518.746 326.67L505.219 340.214L518.746 353.757L525.034 347.461L548.53 370.985L615.479 370.487L651.689 406.742L648.777 409.657L655.54 416.429L658.452 413.513L687.263 442.36L681.638 447.992L649.65 448.23L608.517 407.046L610.279 405.281L605.815 400.811L601.35 405.281L605.815 409.751L607.577 407.992L649.108 449.574L681.655 449.331L694.513 462.205L700.807 455.903L761.788 516.96L761.341 577.679L759.119 579.903L742.653 563.416L742.901 529.922L699.083 486.05L701.995 483.134L695.231 476.362L688.468 483.134L695.231 489.906L698.138 486.99L733.37 522.265L733.137 553.883L693.281 513.978L695.093 512.163L690.628 507.693L686.164 512.163L690.628 516.633L692.336 514.924L758.18 580.849L755.268 583.764L755.257 583.759ZM741.316 562.082L734.453 555.211L734.685 523.593L741.548 530.464L741.316 562.082ZM518.746 350.886L508.082 340.208L518.746 329.53L529.411 340.208L518.746 350.886ZM614.158 369.154L549.082 369.641L541.904 362.454L606.98 361.973L614.158 369.159L614.158 369.154ZM694.502 459.333L683.837 448.656L694.502 437.978L705.166 448.656L694.502 459.333Z" fill="#2364F6"/>
<path d="M531.096 489.707L524.802 496.009L494.693 465.862L427.744 466.36L400.358 438.936L402.646 436.645L459.688 436.219L463.511 440.048L467.976 435.577L463.511 431.107L459.743 434.88L402.563 435.306L396.512 429.248L389.749 436.02L396.512 442.792L399.419 439.882L436.021 476.529L502.97 476.031L523.868 496.955L517.575 503.251L531.102 516.794L544.628 503.251L531.102 489.707L531.096 489.707ZM520.431 503.251L531.096 492.573L541.761 503.251L531.096 513.928L520.431 503.251ZM501.639 474.703L436.563 475.184L429.07 467.682L494.146 467.201L501.639 474.703Z" fill="#2364F6"/>
<path d="M217.69 314.914L223.984 308.613L262.465 347.141L256.099 353.52L269.626 367.063L275.92 360.762L279.5 364.347L279.097 418.853L254.524 394.156L260.829 387.843L247.302 374.3L233.775 387.843L247.302 401.387L253.579 395.102L314.71 456.54L313.39 457.862L316.29 460.767L316.219 486.421L317.556 486.421L317.628 460.778L320.534 457.868L316.965 454.294L315.661 455.599L290.193 430.006L290.596 375.456L337.962 422.88L335.045 425.801L341.156 431.92L340.703 493.154L402.082 554.608L395.789 560.91L409.316 574.453L415.609 568.152L444.42 596.998L441.514 599.908L447.553 605.955L447.504 624.716L448.841 624.716L448.896 606.072L451.195 603.77L487.797 640.417L496.301 648.932L563.25 648.434L577.844 663.045L571.555 669.341L585.082 682.885L598.609 669.341L585.082 655.797L578.788 662.099L555.293 638.575L488.344 639.073L452.134 602.818L455.046 599.903L448.283 593.131L445.371 596.047L416.56 567.2L422.185 561.568L454.179 561.33L495.312 602.514L493.549 604.279L498.014 608.749L502.479 604.279L498.014 599.809L496.257 601.574L454.726 559.992L422.179 560.235L409.321 547.361L403.027 553.662L342.046 492.606L342.499 431.887L344.72 429.663L361.187 446.15L360.938 479.643L404.757 523.516L401.845 526.432L408.608 533.203L415.372 526.432L408.608 519.66L405.702 522.57L370.47 487.295L370.702 455.677L413.769 498.802L443.227 498.581L447.255 502.614L451.344 498.52L480.718 498.305L511.955 529.58L512.9 528.634L481.271 496.966L450.769 497.192L447.26 493.679L443.696 497.248L414.322 497.469L345.665 428.728L348.577 425.812L341.814 419.041L338.913 421.945L290.613 373.586L290.613 373.431L276.953 359.749L283.169 353.525L269.643 339.982L263.426 346.206L224.945 307.678L231.239 301.376L217.712 287.833L204.185 301.376L217.712 314.92L217.69 314.914ZM362.502 447.478L369.365 454.349L369.133 485.967L362.27 479.096L362.502 447.478ZM585.066 658.674L595.73 669.352L585.066 680.03L574.401 669.352L585.066 658.674ZM489.653 640.406L554.73 639.925L561.907 647.111L496.831 647.593L489.653 640.406ZM409.304 550.227L419.969 560.904L409.304 571.582L398.64 560.904L409.304 550.227ZM280.81 365.674L289.248 374.123L288.844 428.667L280.407 420.186L280.81 365.674Z" fill="#2364F6"/>
<path d="M367.61 372.3L372.076 376.772L376.542 372.3L372.076 367.829L367.61 372.3Z" fill="#2364F6"/>
<path d="M390.379 423.118L383.616 429.89L376.852 423.118L379.759 420.208L356.048 396.452L356.993 395.506L380.703 419.262L383.616 416.346L390.379 423.118Z" fill="#2364F6"/>
<path d="M251.938 236.071L264.791 248.939L264.791 265.913L302.747 303.91L302.288 342.615L302.487 342.814L347.284 387.705L348.229 386.759L312.45 350.903L312.887 314.062L349.804 351.024L343.543 357.293L357.07 370.836L369.995 357.896L396.297 357.702L448.719 410.189L448.023 410.886L411.747 411.157L387.467 386.847L390.373 383.932L383.61 377.16L376.847 383.932L383.61 390.703L386.517 387.793L411.189 412.496L448.117 412.219L450.974 415.079L453.869 412.18L478.143 411.998L543.418 477.353L537.125 483.654L550.652 497.198L564.178 483.654L550.652 470.111L544.358 476.412L499.124 431.124L548.994 430.936L571.03 452.999L571.975 452.053L541.672 421.713L489.919 421.907L478.69 410.665L453.88 410.847L450.968 407.931L449.653 409.248L396.833 356.363L369.851 356.562L357.059 343.755L350.738 350.084L294.635 293.913L332.149 293.492L373.089 334.482L370.183 337.398L376.946 344.17L383.709 337.398L376.946 330.626L374.034 333.542L323.877 283.324L284.49 283.766L266.117 265.371L266.117 248.961L278.981 236.082L265.454 222.538L251.927 236.082L251.938 236.071ZM491.261 423.24L541.131 423.052L547.673 429.602L497.804 429.79L491.261 423.24ZM346.4 357.298L357.065 346.621L367.729 357.298L357.065 367.976L346.4 357.298V357.298ZM304.062 305.238L311.561 312.745L311.124 349.586L303.626 342.073L304.062 305.238V305.238ZM285.816 285.077L323.33 284.657L330.806 292.164L293.315 292.585L285.816 285.077V285.077ZM265.46 225.393L276.124 236.071L265.46 246.748L254.795 236.071L265.46 225.393Z" fill="#2364F6"/>
<path d="M347.983 391.919L352.449 396.39L356.915 391.919L352.449 387.447L347.983 391.919Z" fill="#2364F6"/>
<path d="M572.104 457.663L576.571 462.134L581.036 457.662L576.569 453.191L572.104 457.663Z" fill="#2364F6"/>
<path d="M352.603 357.295L357.069 361.767L361.535 357.295L357.069 352.824L352.603 357.295Z" fill="#2364F6"/>
<path d="M570.229 516.794L583.099 503.909L651.424 503.571L684.909 537.098L683.594 538.415L687.164 541.989L690.733 538.41L687.164 534.835L685.849 536.152L651.965 502.227L651.689 502.227L622.243 502.376L581.982 462.067L581.037 463.013L620.358 502.382L583.071 502.565L570.224 489.702L556.697 503.245L570.224 516.789L570.229 516.794ZM570.229 513.928L559.565 503.251L570.229 492.573L580.894 503.251L570.229 513.928Z" fill="#2364F6"/>
</g>
<defs>
<clipPath id="clip0_137_1949">
<rect width="708" height="468" fill="white"/>
</clipPath>
</defs>
</svg>
