<?xml version="1.0" encoding="UTF-8"?><svg xmlns="http://www.w3.org/2000/svg" xmlns:xlink="http://www.w3.org/1999/xlink" viewBox="0 0 196.18 196.18"><defs><style>.cls-1{fill:#00acff;}.cls-1,.cls-2,.cls-3,.cls-4,.cls-5,.cls-6,.cls-7,.cls-8,.cls-9,.cls-10,.cls-11,.cls-12,.cls-13,.cls-14,.cls-15{stroke-width:0px;}.cls-16{stroke:#0d78c3;stroke-width:1.6px;}.cls-16,.cls-17,.cls-18{fill:none;}.cls-2{fill:url(#_Áåçûìÿííûé_ãðàäèåíò_38-5);}.cls-19{isolation:isolate;}.cls-3,.cls-7{fill:#0090ff;}.cls-4{fill:#00e3ff;}.cls-5{fill:url(#_Áåçûìÿííûé_ãðàäèåíò_314);}.cls-6{fill:url(#_Áåçûìÿííûé_ãðàäèåíò_38-4);}.cls-7{opacity:.09;}.cls-8{fill:#0075ff;}.cls-9{fill:url(#_Áåçûìÿííûé_ãðàäèåíò_38-3);}.cls-10{fill:url(#_Áåçûìÿííûé_ãðàäèåíò_38-2);}.cls-10,.cls-20,.cls-14{mix-blend-mode:color-dodge;}.cls-11{fill:#0059ff;}.cls-12{fill:url(#_Áåçûìÿííûé_ãðàäèåíò_55);}.cls-17{stroke:#1443a5;stroke-width:2.4px;}.cls-13{fill:#00c7ff;}.cls-14{fill:url(#_Áåçûìÿííûé_ãðàäèåíò_38);}.cls-18{stroke:#0a93d2;stroke-width:.8px;}.cls-15{fill:#1443a5;}</style><radialGradient id="_Áåçûìÿííûé_ãðàäèåíò_38" cx="97.46" cy="96.83" fx="97.46" fy="96.83" r="94.93" gradientTransform="translate(98.09 -40.63) rotate(45)" gradientUnits="userSpaceOnUse"><stop offset="0" stop-color="#00a6ff"/><stop offset="1" stop-color="#000"/></radialGradient><radialGradient id="_Áåçûìÿííûé_ãðàäèåíò_38-2" cx="97.65" cy="97.21" fx="97.65" fy="97.21" r="65.79" gradientTransform="translate(182.16 -12.26) rotate(82.3)" xlink:href="#_Áåçûìÿííûé_ãðàäèåíò_38"/><radialGradient id="_Áåçûìÿííûé_ãðàäèåíò_314" cx="87.44" cy="82.8" fx="87.44" fy="82.8" r="75.97" gradientTransform="translate(1.57 -1.54) rotate(.91)" gradientUnits="userSpaceOnUse"><stop offset="0" stop-color="#1a4377"/><stop offset=".57" stop-color="#0f2748"/><stop offset=".73" stop-color="#00001a"/><stop offset="1" stop-color="#3192ff"/></radialGradient><linearGradient id="_Áåçûìÿííûé_ãðàäèåíò_55" x1="124.85" y1="128.53" x2="71.42" y2="67.68" gradientUnits="userSpaceOnUse"><stop offset="0" stop-color="#3265a1"/><stop offset="1" stop-color="#000"/></linearGradient><radialGradient id="_Áåçûìÿííûé_ãðàäèåíò_38-3" cx="97.57" cy="97.61" fx="97.57" fy="97.61" r="14.78" gradientTransform="matrix(1,0,0,1,0,0)" xlink:href="#_Áåçûìÿííûé_ãðàäèåíò_38"/><radialGradient id="_Áåçûìÿííûé_ãðàäèåíò_38-4" cx="97.57" cy="82.75" fx="97.57" fy="82.75" r="12.35" gradientTransform="matrix(1,0,0,1,0,0)" xlink:href="#_Áåçûìÿííûé_ãðàäèåíò_38"/><radialGradient id="_Áåçûìÿííûé_ãðàäèåíò_38-5" cx="97.57" cy="112.47" fx="97.57" fy="112.47" r="12.35" gradientTransform="matrix(1,0,0,1,0,0)" xlink:href="#_Áåçûìÿííûé_ãðàäèåíò_38"/></defs><g class="cls-19"><g id="Layer_2"><g id="Circuits"><circle class="cls-14" cx="98.09" cy="98.09" r="98.09" transform="translate(-40.63 98.09) rotate(-45)"/><circle class="cls-10" cx="98.09" cy="98.09" r="67.98" transform="translate(-12.26 182.16) rotate(-82.3)"/><path class="cls-15" d="M98.09,45.98c-28.78,0-52.11,23.33-52.11,52.11s23.33,52.11,52.11,52.11c28.78,0,52.11-23.33,52.11-52.11,0-28.78-23.33-52.11-52.11-52.11ZM63.93,132.26c-8.74-8.75-14.15-20.82-14.15-34.16s5.41-25.42,14.15-34.17c8.75-8.74,20.82-14.15,34.16-14.15s25.42,5.41,34.17,14.15c8.74,8.75,14.15,20.82,14.15,34.17s-5.41,25.42-14.15,34.16c-8.75,8.74-20.82,14.15-34.17,14.15s-25.42-5.41-34.16-14.15Z"/><path class="cls-11" d="M98.09,147.25c-27.15,0-49.16-22.01-49.16-49.16s22.01-49.16,49.16-49.16,49.16,22.01,49.16,49.16-22.01,49.16-49.16,49.16ZM98.09,46.88c-28.28,0-51.21,22.93-51.21,51.21s22.93,51.21,51.21,51.21,51.21-22.93,51.21-51.21-22.93-51.21-51.21-51.21Z"/><path class="cls-8" d="M98.09,48.81c27.22,0,49.28,22.06,49.28,49.28,0,27.22-22.06,49.28-49.28,49.28s-49.28-22.06-49.28-49.28c0-27.22,22.06-49.28,49.28-49.28ZM98.09,47c-14.11,0-26.88,5.72-36.12,14.96-9.25,9.25-14.96,22.02-14.96,36.12,0,14.11,5.72,26.88,14.96,36.12,9.25,9.25,22.02,14.96,36.12,14.96,14.11,0,26.88-5.72,36.12-14.96,9.25-9.25,14.96-22.02,14.96-36.13,0-14.11-5.72-26.88-14.96-36.12-9.25-9.25-22.02-14.96-36.12-14.96Z"/><path class="cls-3" d="M98.09,48.69c27.28,0,49.4,22.12,49.4,49.4,0,27.28-22.12,49.4-49.4,49.4s-49.4-22.12-49.4-49.4c0-27.28,22.12-49.4,49.4-49.4ZM98.09,47.13c-14.07,0-26.82,5.7-36.04,14.93-9.22,9.22-14.93,21.96-14.93,36.04,0,14.07,5.7,26.81,14.93,36.04,9.22,9.22,21.96,14.93,36.04,14.93,14.07,0,26.81-5.7,36.04-14.93,9.22-9.22,14.93-21.96,14.93-36.04,0-14.07-5.7-26.81-14.93-36.04-9.22-9.22-21.96-14.93-36.04-14.93Z"/><path class="cls-1" d="M98.09,48.57c27.35,0,49.52,22.17,49.52,49.52,0,27.35-22.17,49.52-49.52,49.52s-49.52-22.17-49.52-49.52c0-27.35,22.17-49.52,49.52-49.52ZM98.09,47.25c-14.04,0-26.75,5.69-35.95,14.89-9.2,9.2-14.89,21.91-14.89,35.95,0,14.04,5.69,26.75,14.89,35.95,9.2,9.2,21.91,14.89,35.95,14.89,14.04,0,26.75-5.69,35.95-14.89,9.2-9.2,14.89-21.91,14.89-35.95,0-14.04-5.69-26.75-14.89-35.95-9.2-9.2-21.91-14.89-35.95-14.89Z"/><path class="cls-13" d="M98.09,48.45c27.42,0,49.64,22.23,49.64,49.64,0,27.42-22.23,49.64-49.64,49.64s-49.64-22.23-49.65-49.64c0-27.42,22.23-49.64,49.65-49.64ZM98.09,47.37c-14.01,0-26.69,5.68-35.87,14.86-9.18,9.18-14.86,21.86-14.86,35.87,0,14.01,5.68,26.69,14.86,35.87,9.18,9.18,21.86,14.86,35.87,14.86,14.01,0,26.69-5.68,35.87-14.86,9.18-9.18,14.86-21.86,14.86-35.87,0-14.01-5.68-26.69-14.86-35.87-9.18-9.18-21.86-14.86-35.87-14.86Z"/><path class="cls-4" d="M98.09,48.33c27.48,0,49.76,22.28,49.77,49.77,0,27.49-22.28,49.77-49.77,49.77s-49.77-22.28-49.77-49.77c0-27.49,22.28-49.77,49.77-49.77ZM47.49,98.09c0,13.98,5.66,26.62,14.82,35.78,9.16,9.16,21.81,14.82,35.78,14.82,13.98,0,26.62-5.66,35.78-14.82,9.16-9.16,14.82-21.81,14.82-35.78,0-13.98-5.66-26.62-14.82-35.78-9.16-9.16-21.81-14.82-35.78-14.82s-26.62,5.66-35.78,14.82c-9.16,9.16-14.82,21.81-14.82,35.78Z"/><circle class="cls-5" cx="98.09" cy="98.05" r="45.76" transform="translate(-1.54 1.57) rotate(-.91)"/><path class="cls-12" d="M98.09,58.04c-22.1,0-40.01,17.91-40.01,40.01s17.91,40.01,40.01,40.01,40.01-17.91,40.01-40.01-17.91-40.01-40.01-40.01ZM98.09,137.29c-21.67,0-39.24-17.57-39.24-39.24s17.57-39.24,39.24-39.24,39.24,17.57,39.24,39.24-17.57,39.24-39.24,39.24Z"/><path class="cls-7" d="M98.09,50.78c-26.13,0-47.31,21.18-47.31,47.31s21.18,47.31,47.31,47.31,47.31-21.18,47.31-47.31-21.18-47.31-47.31-47.31ZM98.09,136.99c-21.49,0-38.9-17.42-38.9-38.9s17.42-38.9,38.9-38.9,38.9,17.42,38.9,38.9-17.42,38.9-38.9,38.9Z"/><path class="cls-17" d="M110.57,87.5c-3.02-3.87-7.72-6.37-13-6.37s-9.98,2.5-13,6.37h-3.81c3.44-5.7,9.69-9.51,16.81-9.51s13.37,3.82,16.81,9.51h-3.81ZM98.99,95.63c0,3.21-2.41,5.2-6.25,5.2h-2.08v3.97h-3.33v-14.39h5.41c3.84,0,6.25,1.99,6.25,5.22ZM95.62,95.63c0-1.58-1.03-2.51-3.06-2.51h-1.9v5h1.9c2.04,0,3.06-.93,3.06-2.49ZM115.82,90.41h-3.43c1.06,2.18,1.66,4.62,1.66,7.2,0,.99-.09,1.95-.26,2.9l-8.24-10.09h-2.76v14.39h3.29v-8.74l7.18,8.74h2.56c.88-2.23,1.37-4.66,1.37-7.2s-.49-4.97-1.37-7.2ZM79.32,90.41c-.88,2.23-1.37,4.66-1.37,7.2s.49,4.97,1.37,7.2h3.43c-1.06-2.18-1.66-4.62-1.66-7.2s.6-5.02,1.66-7.2h-3.43ZM110.57,107.71c-3.02,3.87-7.72,6.37-13,6.37s-9.99-2.5-13-6.37h-3.81c3.44,5.7,9.69,9.51,16.81,9.51s13.36-3.82,16.8-9.51h-3.8Z"/><path class="cls-16" d="M110.57,87.5c-3.02-3.87-7.72-6.37-13-6.37s-9.98,2.5-13,6.37h-3.81c3.44-5.7,9.69-9.51,16.81-9.51s13.37,3.82,16.81,9.51h-3.81ZM98.99,95.63c0,3.21-2.41,5.2-6.25,5.2h-2.08v3.97h-3.33v-14.39h5.41c3.84,0,6.25,1.99,6.25,5.22ZM95.62,95.63c0-1.58-1.03-2.51-3.06-2.51h-1.9v5h1.9c2.04,0,3.06-.93,3.06-2.49ZM115.82,90.41h-3.43c1.06,2.18,1.66,4.62,1.66,7.2,0,.99-.09,1.95-.26,2.9l-8.24-10.09h-2.76v14.39h3.29v-8.74l7.18,8.74h2.56c.88-2.23,1.37-4.66,1.37-7.2s-.49-4.97-1.37-7.2ZM79.32,90.41c-.88,2.23-1.37,4.66-1.37,7.2s.49,4.97,1.37,7.2h3.43c-1.06-2.18-1.66-4.62-1.66-7.2s.6-5.02,1.66-7.2h-3.43ZM110.57,107.71c-3.02,3.87-7.72,6.37-13,6.37s-9.99-2.5-13-6.37h-3.81c3.44,5.7,9.69,9.51,16.81,9.51s13.36-3.82,16.8-9.51h-3.8Z"/><path class="cls-18" d="M110.57,87.5c-3.02-3.87-7.72-6.37-13-6.37s-9.98,2.5-13,6.37h-3.81c3.44-5.7,9.69-9.51,16.81-9.51s13.37,3.82,16.81,9.51h-3.81ZM98.99,95.63c0,3.21-2.41,5.2-6.25,5.2h-2.08v3.97h-3.33v-14.39h5.41c3.84,0,6.25,1.99,6.25,5.22ZM95.62,95.63c0-1.58-1.03-2.51-3.06-2.51h-1.9v5h1.9c2.04,0,3.06-.93,3.06-2.49ZM115.82,90.41h-3.43c1.06,2.18,1.66,4.62,1.66,7.2,0,.99-.09,1.95-.26,2.9l-8.24-10.09h-2.76v14.39h3.29v-8.74l7.18,8.74h2.56c.88-2.23,1.37-4.66,1.37-7.2s-.49-4.97-1.37-7.2ZM79.32,90.41c-.88,2.23-1.37,4.66-1.37,7.2s.49,4.97,1.37,7.2h3.43c-1.06-2.18-1.66-4.62-1.66-7.2s.6-5.02,1.66-7.2h-3.43ZM110.57,107.71c-3.02,3.87-7.72,6.37-13,6.37s-9.99-2.5-13-6.37h-3.81c3.44,5.7,9.69,9.51,16.81,9.51s13.36-3.82,16.8-9.51h-3.8Z"/><path class="cls-4" d="M110.57,87.5c-3.02-3.87-7.72-6.37-13-6.37s-9.98,2.5-13,6.37h-3.81c3.44-5.7,9.69-9.51,16.81-9.51s13.37,3.82,16.81,9.51h-3.81ZM98.99,95.63c0,3.21-2.41,5.2-6.25,5.2h-2.08v3.97h-3.33v-14.39h5.41c3.84,0,6.25,1.99,6.25,5.22ZM95.62,95.63c0-1.58-1.03-2.51-3.06-2.51h-1.9v5h1.9c2.04,0,3.06-.93,3.06-2.49ZM115.82,90.41h-3.43c1.06,2.18,1.66,4.62,1.66,7.2,0,.99-.09,1.95-.26,2.9l-8.24-10.09h-2.76v14.39h3.29v-8.74l7.18,8.74h2.56c.88-2.23,1.37-4.66,1.37-7.2s-.49-4.97-1.37-7.2ZM79.32,90.41c-.88,2.23-1.37,4.66-1.37,7.2s.49,4.97,1.37,7.2h3.43c-1.06-2.18-1.66-4.62-1.66-7.2s.6-5.02,1.66-7.2h-3.43ZM110.57,107.71c-3.02,3.87-7.72,6.37-13,6.37s-9.99-2.5-13-6.37h-3.81c3.44,5.7,9.69,9.51,16.81,9.51s13.36-3.82,16.8-9.51h-3.8Z"/><g class="cls-20"><path class="cls-9" d="M98.99,95.63c0,3.21-2.41,5.2-6.25,5.2h-2.08v3.97h-3.33v-14.39h5.41c3.84,0,6.25,1.99,6.25,5.22ZM95.62,95.63c0-1.58-1.03-2.51-3.06-2.51h-1.9v5h1.9c2.04,0,3.06-.93,3.06-2.49ZM115.82,90.41h-3.43c1.06,2.18,1.66,4.62,1.66,7.2,0,.99-.09,1.95-.26,2.9l-8.24-10.09h-2.76v14.39h3.29v-8.74l7.18,8.74h2.56c.88-2.23,1.37-4.66,1.37-7.2s-.49-4.97-1.37-7.2ZM79.32,90.41c-.88,2.23-1.37,4.66-1.37,7.2s.49,4.97,1.37,7.2h3.43c-1.06-2.18-1.66-4.62-1.66-7.2s.6-5.02,1.66-7.2h-3.43Z"/><path class="cls-6" d="M110.57,87.5c-3.02-3.87-7.72-6.37-13-6.37s-9.98,2.5-13,6.37h-3.81c3.44-5.7,9.69-9.51,16.81-9.51s13.37,3.82,16.81,9.51h-3.81Z"/><path class="cls-2" d="M110.57,107.71c-3.02,3.87-7.72,6.37-13,6.37s-9.99-2.5-13-6.37h-3.81c3.44,5.7,9.69,9.51,16.81,9.51s13.36-3.82,16.8-9.51h-3.8Z"/></g><path class="cls-4" d="M90.47,129.48l-.94-.24,1.05-4.05.94.24-1.05,4.05Z"/><path class="cls-4" d="M81.24,125.71l1.97-3.69.7.37.65,3.22,1.2-2.24.84.45-1.97,3.69-.71-.38-.64-3.22-1.19,2.24-.84-.45Z"/><path class="cls-4" d="M79.54,119.31c.16.28.27.53.3.76l-.74.31c-.04-.22-.12-.44-.25-.67-.12-.23-.28-.43-.46-.59-.2-.19-.38-.3-.53-.33-.15-.03-.27,0-.37.1-.07.07-.1.16-.08.26s.05.21.11.32.15.26.27.43c.18.27.32.51.42.7.1.19.14.4.13.62s-.11.43-.3.64c-.17.18-.37.29-.6.35s-.48.03-.75-.06-.55-.28-.83-.54c-.19-.18-.36-.38-.51-.61-.14-.22-.24-.44-.3-.66l.72-.33c.13.42.34.77.62,1.03.2.19.37.29.53.32.15.02.28-.02.38-.12.1-.1.12-.23.06-.39-.06-.15-.18-.36-.36-.62-.18-.27-.32-.51-.42-.7-.1-.19-.14-.4-.14-.62s.1-.43.29-.63c.16-.17.36-.29.59-.34s.49-.03.76.07c.27.1.55.28.83.54.24.23.44.48.61.76Z"/><path class="cls-4" d="M71.85,115.54l.73,1.13-.66.43-1.98-3.07.66-.43.73,1.13,2.85-1.84.53.81-2.86,1.84Z"/><path class="cls-4" d="M70.24,106.27l.61,1.85.97.07.31.94-4.56-.46-.3-.91,3.39-3.09.32.97-.74.63ZM69.64,106.79l-1.31,1.13,1.73.13-.42-1.26Z"/><path class="cls-4" d="M65.75,97.47l4.18-.17.03.79-2.46,2.19,2.54-.1.04.96-4.18.17-.03-.8,2.46-2.18-2.54.1-.04-.96Z"/><path class="cls-4" d="M67.26,91.57l-.3,1.31-.77-.17.81-3.56.77.17-.3,1.31,3.31.75-.21.94-3.31-.75Z"/><path class="cls-4" d="M73.38,77.56c.26-.14.53-.2.8-.18.27.02.53.13.77.32.24.19.41.41.5.67.09.26.1.53.03.82s-.22.58-.45.87l-.52.67.91.71-.59.77-3.31-2.57,1.11-1.43c.23-.29.47-.51.74-.65ZM74.64,78.99c0-.2-.1-.37-.28-.51-.19-.14-.38-.19-.57-.15-.19.04-.38.18-.56.41l-.48.62,1.15.89.48-.62c.18-.23.26-.44.26-.64Z"/><path class="cls-4" d="M81.33,74.4l-1.55,1.18.25.94-.79.6-1.05-4.46.76-.58,4.02,2.2-.81.61-.84-.49ZM80.65,74l-1.5-.88.44,1.68,1.06-.8Z"/><path class="cls-4" d="M87.23,70.56l.57,1.37-.9.37-.57-1.38-2.53-1.87.95-.39,1.74,1.29.32-2.15.88-.36-.47,3.12Z"/><path class="cls-4" d="M96.46,70l-.28-2.5-1,2.19-.43.05-1.44-1.87.27,2.44-.9.1-.45-4.16.8-.09,1.84,2.42,1.25-2.75.79-.09.46,4.16-.9.1Z"/><path class="cls-4" d="M104.8,69.94l-.13.77-3.19-.56.72-4.12,3.12.54-.13.77-2.17-.38-.16.9,1.92.33-.13.74-1.92-.33-.17.95,2.24.39Z"/><path class="cls-4" d="M113.69,69.75l-1.8,3.78-.72-.34-.79-3.19-1.09,2.29-.86-.41,1.8-3.78.72.34.79,3.19,1.09-2.29.86.41Z"/><path class="cls-4" d="M118.2,73.84l-1.02-.87.51-.6,2.77,2.37-.51.6-1.02-.87-2.21,2.58-.74-.63,2.21-2.58Z"/><path class="cls-4" d="M128.35,86.64l-3.82,1.71-.33-.73,1.46-2.94-2.32,1.04-.39-.87,3.82-1.71.33.73-1.47,2.94,2.32-1.04.39.87Z"/><path class="cls-4" d="M126.9,95.45l-.77.12-.48-3.2,4.14-.63.47,3.13-.77.12-.33-2.18-.9.14.29,1.92-.75.11-.29-1.92-.96.15.34,2.25Z"/><path class="cls-4" d="M129.49,100.73l.13-1.33.79.08-.36,3.63-.79-.08.13-1.33-3.38-.33.09-.96,3.38.33Z"/><path class="cls-4" d="M126.61,113.61l-3.33-2.88.4-.96,2.97.24-2.25-1.97.4-.95,4.39.34-.39.93-3.08-.26,2.33,2.04-.35.83-3.11-.26,2.36,2.04-.36.86Z"/><path class="cls-4" d="M120.3,115.7c.37-.14.74-.18,1.12-.11s.72.23,1.03.5.53.58.65.95c.12.36.14.74.05,1.13-.09.39-.27.74-.55,1.07-.28.33-.61.56-.98.7-.37.14-.74.18-1.12.11-.38-.06-.72-.23-1.04-.5s-.53-.59-.64-.95c-.12-.37-.13-.74-.05-1.13.08-.38.27-.74.55-1.07.28-.33.61-.56.98-.71ZM119.63,117.56c-.04.23-.03.45.05.67.08.22.22.41.41.58.2.17.41.28.64.32s.45.03.67-.04c.22-.08.41-.21.57-.4.16-.19.26-.39.31-.62.04-.23.03-.45-.05-.67-.08-.22-.22-.41-.41-.58-.2-.17-.41-.28-.64-.32-.23-.05-.45-.03-.67.04-.22.08-.41.21-.57.4-.16.19-.26.39-.31.62Z"/><path class="cls-4" d="M112.68,122.14l1.31.53.04-.03.71-.46-.64-.98.81-.53,2.3,3.5-1.51.99c-.31.2-.61.33-.91.38-.3.05-.57.02-.82-.09-.25-.11-.46-.29-.63-.55-.17-.26-.25-.53-.25-.8,0-.27.08-.53.25-.78l-1.52-.61.87-.57ZM114.64,124.69c.2.02.42-.05.66-.21l.66-.43-.8-1.22-.66.43c-.24.16-.39.33-.45.52-.06.19-.02.38.11.57.13.2.29.31.49.33Z"/><path class="cls-4" d="M107.38,126.36l.36-.73-.32-1.01.92-.29,1.28,3.99-.92.29-.6-1.86-1.17,2.43-1.02.33,1.08-2.31-2.46-1.65,1.08-.35,1.78,1.16Z"/></g></g></g></svg>