<?xml version="1.0" encoding="UTF-8"?><svg id="Layer_2" xmlns="http://www.w3.org/2000/svg" xmlns:xlink="http://www.w3.org/1999/xlink" viewBox="0 0 396.92 159.32"><defs><style>.cls-1{fill-rule:evenodd;}.cls-1,.cls-2,.cls-3,.cls-4{stroke-width:0px;}.cls-1,.cls-5,.cls-4{fill:#fff;}.cls-2{fill:url(#linear-gradient);fill-opacity:.15;}.cls-3{fill:url(#linear-gradient-2);}</style><linearGradient id="linear-gradient" x1="75.91" y1="213.62" x2="330.91" y2="-41.39" gradientUnits="userSpaceOnUse"><stop offset="0" stop-color="#dcf1ff"/><stop offset=".15" stop-color="#c7e1fd"/><stop offset=".45" stop-color="#91b8fb"/><stop offset=".88" stop-color="#3c77f7"/><stop offset="1" stop-color="#2364f6"/></linearGradient><linearGradient id="linear-gradient-2" x1="66.01" y1="200.71" x2="321.02" y2="-54.3" gradientUnits="userSpaceOnUse"><stop offset="0" stop-color="#2364f6" stop-opacity="0"/><stop offset="1" stop-color="#56c3ff"/></linearGradient></defs><g id="Complete_Solution_Module"><g id="Traditional"><rect class="cls-2" x="9.9" y="12.91" width="387.03" height="146.41" rx="20" ry="20"/><rect class="cls-3" x="0" y="0" width="387.03" height="146.41" rx="20" ry="20"/><g id="Visa"><polyline class="cls-4" points="49.59 59.66 52.74 40.13 57.78 40.13 54.63 59.66 49.59 59.66"/><path class="cls-4" d="M72.92,40.61c-1-.39-2.56-.82-4.52-.82-4.98,0-8.49,2.65-8.52,6.44-.03,2.81,2.5,4.37,4.42,5.3,1.96.96,2.62,1.57,2.62,2.42-.01,1.31-1.57,1.91-3.02,1.91-2.02,0-3.09-.3-4.75-1.02l-.65-.31-.71,4.37c1.18.54,3.36,1.02,5.62,1.04,5.3,0,8.74-2.62,8.78-6.67.02-2.23-1.33-3.91-4.23-5.31-1.76-.91-2.84-1.51-2.83-2.42,0-.81.91-1.68,2.89-1.68,1.65-.03,2.84.35,3.77.75l.45.22.68-4.23"/><path class="cls-4" d="M85.85,40.15h-3.9c-1.21,0-2.11.35-2.64,1.62l-7.49,17.89h5.3s.86-2.41,1.06-2.94c.58,0,5.72.01,6.46.01.15.68.61,2.93.61,2.93h4.68l-4.08-19.51M79.63,52.74c.42-1.12,2.01-5.46,2.01-5.46-.03.05.42-1.13.67-1.86l.34,1.68s.97,4.66,1.17,5.64h-4.19Z"/><path class="cls-4" d="M45.36,40.15l-4.93,13.31-.53-2.71c-.92-3.12-3.78-6.5-6.98-8.19l4.51,17.08h5.34s7.94-19.49,7.94-19.49h-5.34"/><path class="cls-4" d="M35.84,40.14h-8.13l-.07.4c6.33,1.62,10.51,5.52,12.25,10.21l-1.77-8.97c-.3-1.24-1.19-1.6-2.29-1.65Z"/><path class="cls-4" d="M91.56,57.34c.62,0,1.11.5,1.11,1.11s-.49,1.11-1.11,1.11-1.11-.5-1.11-1.11.49-1.11,1.11-1.11ZM91.56,59.39c.51,0,.9-.42.9-.94s-.4-.94-.9-.94-.9.42-.9.94.4.94.9.94ZM91.16,57.88h.49c.11,0,.37.03.37.32,0,.08-.02.18-.19.26h0c.14.03.15.16.16.27.01.17,0,.2.04.26h-.21s-.03-.07-.04-.25c0-.1-.01-.21-.24-.21h-.17v.46h-.21v-1.11ZM91.36,58.38h.24c.17,0,.2-.1.2-.18,0-.14-.09-.17-.23-.17h-.22v.35Z"/></g><g id="Discover_Logo"><path class="cls-1" d="M177.55,41.42c0-.26.04-.35.33-.35,1.5.02,3.01-.02,4.51.03,2.21.07,4.22.71,5.86,2.27,1.13,1.07,1.84,2.39,2.12,3.92.56,3.04-.3,5.62-2.62,7.68-1.26,1.13-2.78,1.69-4.45,1.83-1.84.15-3.69.03-5.54.07-.22,0-.2-.11-.2-.25,0-1.56,0-12.68,0-15.19ZM180.63,53.9c0,.21.04.28.27.28.62,0,1.23,0,1.85-.07,1.12-.13,2.17-.45,2.98-1.26,1.38-1.38,1.88-3.05,1.5-4.94-.38-1.91-1.48-3.25-3.39-3.84-.93-.29-1.89-.27-2.85-.28-.27,0-.37.05-.36.35.02,1.62.01,8.13,0,9.77Z"/><path class="cls-1" d="M270.85,50.25c1.65,2.21,3.28,4.39,4.95,6.62h-.67c-.93,0-1.86-.01-2.79,0-.28,0-.42-.1-.57-.32-1.29-1.93-2.59-3.86-3.89-5.78-.02-.03-.04-.05-.05-.08-.08-.19-.25-.18-.4-.15-.16.03-.09.19-.09.29,0,1.89-.01,3.78,0,5.67,0,.31-.09.38-.38.37-.81-.02-1.63-.01-2.44,0-.21,0-.29-.03-.29-.27,0-5.09,0-10.17,0-15.26,0-.17.02-.27.23-.26,1.75.04,3.51-.07,5.26.06,1.22.09,2.36.42,3.3,1.25,1.12,1,1.44,2.3,1.36,3.74-.11,2.11-1.26,3.51-3.32,4.03-.07.02-.14.05-.23.08ZM267.36,45.97c0,.7.01,1.4,0,2.1,0,.24.07.29.3.28.46-.02.92,0,1.37-.06,1.34-.14,2.1-.92,2.2-2.26.08-1.08-.47-1.9-1.5-2.24-.68-.22-1.37-.2-2.07-.21-.23,0-.31.05-.3.29.02.7,0,1.4,0,2.1Z"/><path class="cls-1" d="M253.52,41.39c0-.24.05-.31.3-.31,2.72.01,5.43,0,8.15,0,.21,0,.29.04.28.27-.02.73-.02,1.46,0,2.19,0,.22-.08.25-.27.25-1.68,0-3.36,0-5.04-.01-.29,0-.34.08-.34.35.02.95.01,1.9,0,2.85,0,.24.06.29.3.29,1.62-.01,3.24,0,4.86-.01.26,0,.3.08.3.31-.02.7-.01,1.4,0,2.1,0,.22-.06.27-.28.27-1.61,0-3.22,0-4.83-.01-.3,0-.36.09-.35.37.01,1.19.01,2.38,0,3.57,0,.24.05.31.3.31,1.68-.01,3.36,0,5.04-.01.25,0,.31.07.3.31-.02.72-.01,1.44,0,2.16,0,.17-.04.23-.22.23-2.76,0-5.51,0-8.27,0-.25,0-.23-.12-.23-.29,0-2.55,0-12.68,0-15.2Z"/><path class="cls-1" d="M198.15,52.31c.42.78.96,1.41,1.77,1.76.87.38,1.76.51,2.66.11.82-.37,1.26-1.02,1.29-1.91.04-.88-.44-1.47-1.2-1.85-.88-.44-1.82-.7-2.72-1.09-.87-.38-1.71-.82-2.31-1.6-.37-.48-.57-1.02-.65-1.6-.32-2.59,1.1-4.45,3.25-5.06,2.25-.64,4.27-.08,6.09,1.35.13.11.18.18.05.34-.46.58-.91,1.17-1.35,1.76-.13.18-.19.13-.31,0-.49-.53-1.06-.95-1.79-1.06-.93-.13-1.8-.01-2.45.75-.58.69-.45,1.55.28,2.07.65.46,1.41.7,2.15.98.69.27,1.36.56,2.01.93,1.31.75,2.04,1.84,2.13,3.37.16,2.59-1.2,4.77-3.73,5.42-2.7.69-5.34-.07-7.08-2.63-.07-.11-.08-.17.02-.26.63-.6,1.25-1.2,1.89-1.81Z"/><path class="cls-1" d="M236.98,41.08c1.07,0,2.09,0,3.12,0,.2,0,.28.07.36.25.94,2.38,3.66,9.21,4.07,10.26.19-.21,2.9-7.09,4.18-10.27.05-.13.09-.24.27-.24,1.04,0,2.09,0,3.18,0-.25.6-4.72,11.2-6.71,15.94-.08.19-.17.25-.36.24-.4-.02-.79-.01-1.19,0-.18,0-.26-.06-.32-.22-1.23-2.97-5.53-13.37-6.45-15.59-.05-.11-.09-.23-.14-.37Z"/><path class="cls-1" d="M220.19,45.35c-.58-.56-1.14-1.02-1.81-1.33-2.62-1.21-5.78.09-6.79,2.87-.78,2.14-.52,4.18,1.04,5.92,1.05,1.16,2.43,1.59,3.97,1.57,1.22-.01,2.23-.51,3.13-1.3.13-.12.26-.24.39-.36.11.06.07.15.07.23,0,1.03,0,2.07,0,3.1,0,.16-.02.25-.19.33-3.17,1.52-7.17.92-9.65-1.61-1.53-1.57-2.29-3.46-2.34-5.66-.08-3.71,2.39-6.95,5.83-7.99,2.11-.64,4.17-.52,6.16.48.11.05.19.1.19.25,0,1.14,0,2.28,0,3.49Z"/><path class="cls-1" d="M195.02,56.52c0,.26-.04.36-.33.35-.83-.02-1.67-.01-2.51,0-.2,0-.27-.05-.26-.26,0-5.09,0-10.17,0-15.26,0-.23.08-.27.29-.27.83.01,1.65.02,2.48,0,.27,0,.35.06.35.34-.01,2.53-.01,12.6,0,15.1Z"/><path class="cls-1" d="M276.38,40.98c-.67,0-1.21.55-1.21,1.22s.54,1.22,1.21,1.22,1.21-.55,1.21-1.22-.54-1.22-1.21-1.22ZM276.38,43.19c-.53,0-.95-.44-.95-.99s.43-.99.95-.99.95.44.95.99-.43.99-.95.99Z"/><path class="cls-1" d="M276.49,42.32c.15.2.3.4.45.6h-.06c-.08,0-.17,0-.25,0-.03,0-.04,0-.05-.03-.12-.17-.23-.35-.35-.52,0,0,0,0,0,0,0-.02-.02-.02-.04-.01-.01,0,0,.02,0,.03,0,.17,0,.34,0,.51,0,.03,0,.03-.03.03-.07,0-.15,0-.22,0-.02,0-.03,0-.03-.02,0-.46,0-.92,0-1.38,0-.02,0-.02.02-.02.16,0,.32,0,.47,0,.11,0,.21.04.3.11.1.09.13.21.12.34-.01.19-.11.32-.3.36,0,0-.01,0-.02,0ZM276.17,41.93c0,.06,0,.13,0,.19,0,.02,0,.03.03.03.04,0,.08,0,.12,0,.12-.01.19-.08.2-.2,0-.1-.04-.17-.14-.2-.06-.02-.12-.02-.19-.02-.02,0-.03,0-.03.03,0,.06,0,.13,0,.19Z"/><ellipse class="cls-4" cx="229.52" cy="48.98" rx="8.34" ry="8.37"/><ellipse class="cls-5" cx="229.52" cy="48.98" rx="8.34" ry="8.37"/></g><g id="AMEX_Logo"><path class="cls-4" d="M371.57,54.91l.03-.06h-4.77c-1.99,0-3.18,1.21-3.18,2.87s1.12,2.72,2.87,2.72h2.12c.53,0,.91.33.91.84s-.38.83-.91.83h-4.73v1.96h4.68c1.54,0,2.58-.73,2.98-1.86.12-.33.2-.69.2-1.08,0-.42-.07-.8-.2-1.13-.39-.98-1.32-1.52-2.68-1.52h-2.13c-.53,0-.88-.34-.88-.84s.36-.83.88-.83h3.97l.84-1.91h0ZM357.37,57.65c0-.5.36-.83.88-.83h3.97l.87-1.96h-4.77c-1.99,0-3.18,1.21-3.18,2.87s1.12,2.72,2.87,2.72h2.12c.53,0,.91.33.91.84s-.38.83-.91.83h-4.73v1.96h4.68c1.99,0,3.18-1.21,3.18-2.94s-1.07-2.65-2.87-2.65h-2.13c-.53,0-.88-.34-.88-.84h0ZM346.83,64.08h7.4v-1.96h-5.17v-1.71h5.05v-1.93h-5.05v-1.66h5.17v-1.96h-7.4v9.23h0ZM346.29,64.08l-3.06-3.39c1.56-.3,2.49-1.44,2.49-2.91,0-1.73-1.23-2.93-3.19-2.93h-5.02v9.23h2.23v-3.31h1.04l2.74,3.31h2.77ZM342.32,58.86h-2.58v-2.04h2.58c.76,0,1.16.47,1.16,1.03s-.4,1.01-1.16,1.01h0ZM336.34,57.94c0-1.83-1.23-3.09-3.19-3.09h-5.09v9.23h2.23v-3.05h2.78c2.02,0,3.27-1.32,3.27-3.1h0ZM334.1,57.95c0,.62-.39,1.12-1.16,1.12h-2.65v-2.25h2.65c.77,0,1.16.5,1.16,1.13h0ZM327.66,64.08l-3.7-4.65,3.68-4.57h-2.7l-2.25,2.93-2.25-2.93h-2.78l3.69,4.61-3.68,4.61h2.7l2.27-2.97,2.25,2.97h2.78ZM309.89,64.08h7.4v-1.96h-5.17v-1.71h5.05v-1.93h-5.05v-1.66h5.17v-1.96h-7.4v9.23h0Z"/><path class="cls-4" d="M364.99,46.65v-9.23h-2.18v4.9l.03,1.11h-.03l-.63-1.03-3.26-4.98h-2.73v9.23h2.18v-5.13l-.03-1.09h.03l.62,1.02,3.4,5.21h2.6ZM353.26,46.65h2.52l-3.94-9.23h-2.93l-3.95,9.23h2.39l.78-1.94h4.35l.79,1.94h0ZM351.76,42.94h-2.93l.87-2.16.58-1.45h.03l.57,1.45.88,2.16h0ZM344.02,39.43h2.41v-2h-2.58c-2.86,0-4.42,1.91-4.42,4.53v.16c0,2.76,1.6,4.52,4.26,4.53h.13l.91-1.98h-.68c-1.5,0-2.4-.94-2.4-2.57v-.13c0-1.46.8-2.54,2.37-2.54h0ZM335.9,46.65h2.23v-9.23h-2.23v9.23h0ZM335.36,46.65l-3.06-3.39c1.56-.3,2.49-1.44,2.49-2.91,0-1.73-1.23-2.93-3.19-2.93h-5.02v9.23h2.23v-3.31h1.04l2.74,3.31h2.77ZM331.4,41.43h-2.58v-2.04h2.58c.76,0,1.16.47,1.16,1.03s-.4,1.02-1.16,1.02h0ZM317.7,46.65h7.4v-1.96h-5.17v-1.71h5.05v-1.92h-5.05v-1.66h5.17v-1.96h-7.4v9.23h0ZM313.81,46.65h2.16v-9.23h-3.61l-1.79,5.34-.29,1.02h-.03l-.3-1.02-1.81-5.34h-3.6v9.23h2.16v-6.05l-.04-1.41h.03l.45,1.41,2.11,6.05h2.02l2.11-6.05.45-1.41h.03l-.04,1.41v6.05h0ZM301.6,46.65h2.52l-3.94-9.23h-2.93l-3.95,9.23h2.39l.78-1.94h4.35l.79,1.94h0ZM300.1,42.94h-2.93l.87-2.16.58-1.45h.03l.57,1.45.88,2.16h0Z"/></g><g id="Mastercard"><path class="cls-4" d="M115.02,64.59c-.13-.13-.28-.23-.46-.3-.18-.07-.37-.11-.58-.11-.11,0-.23,0-.35.03-.12.02-.24.05-.35.1-.11.05-.22.12-.33.2-.1.09-.19.19-.27.32-.12-.2-.29-.36-.5-.48-.21-.12-.45-.17-.72-.17-.09,0-.19,0-.28.02-.1.02-.19.05-.29.09-.1.04-.19.1-.28.17-.09.07-.17.16-.24.27v-.45h-.77v3.66h.78v-2.03c0-.16.02-.29.07-.41.05-.12.12-.22.2-.3.08-.08.18-.14.29-.19.11-.04.23-.06.36-.06.26,0,.46.08.61.25.14.17.22.4.22.71v2.04h.78v-2.03c0-.16.02-.29.07-.41.05-.12.12-.22.2-.3.08-.08.18-.14.29-.19.11-.04.23-.06.36-.06.26,0,.46.08.61.25.14.17.22.4.22.71v2.04h.78v-2.3c0-.21-.04-.41-.11-.59-.07-.18-.17-.33-.3-.46Z"/><path class="cls-4" d="M119.12,64.72c-.13-.16-.29-.29-.47-.39-.19-.1-.41-.15-.68-.15s-.5.05-.72.14c-.22.1-.42.23-.58.4-.17.17-.3.37-.39.61-.09.24-.14.49-.14.77s.05.54.14.77c.09.24.22.44.39.61.17.17.36.3.58.4.22.1.46.14.72.14s.49-.05.68-.15c.19-.1.35-.23.47-.39v.44h.8v-3.66h-.8v.44ZM119.09,66.58c-.05.14-.13.27-.23.37-.1.1-.21.19-.35.25-.14.06-.29.09-.45.09s-.33-.03-.46-.09c-.14-.06-.25-.15-.35-.25-.09-.11-.17-.23-.22-.37-.05-.14-.08-.29-.08-.45s.03-.31.08-.45c.05-.14.12-.27.22-.37.09-.11.21-.19.35-.25.14-.06.29-.09.46-.09s.32.03.45.09c.14.06.25.14.35.25.1.1.17.23.23.37.05.14.08.3.08.47s-.03.32-.08.47Z"/><path class="cls-4" d="M123.59,66.1c-.22-.17-.54-.29-.94-.35l-.38-.06c-.08-.01-.16-.03-.24-.04-.07-.02-.14-.04-.19-.07-.05-.03-.1-.06-.13-.11-.03-.04-.05-.1-.05-.16,0-.13.06-.24.18-.32.12-.08.29-.12.51-.12.11,0,.23.01.34.03.11.02.22.05.32.08.1.03.19.06.27.1.08.04.15.07.21.11l.34-.62c-.19-.12-.41-.22-.67-.28-.25-.07-.53-.1-.81-.1-.23,0-.44.03-.63.08-.19.05-.34.13-.48.23-.13.1-.23.22-.3.37-.07.15-.11.31-.11.49,0,.3.11.53.32.72.21.18.52.3.93.36l.38.05c.22.03.38.08.48.15.1.07.15.15.15.26,0,.14-.07.25-.21.33-.14.08-.35.12-.62.12-.15,0-.28-.01-.4-.03-.12-.02-.23-.05-.32-.08-.1-.03-.19-.07-.26-.12-.08-.04-.15-.09-.22-.14l-.37.6c.13.1.27.18.42.24s.29.11.43.14c.14.03.27.06.4.07.12.01.23.02.33.02.26,0,.5-.03.71-.09.21-.06.38-.14.52-.25.14-.11.25-.23.32-.38s.11-.31.11-.48c0-.31-.11-.56-.34-.73Z"/><path class="cls-4" d="M131.07,64.72c-.15-.17-.33-.3-.55-.39-.21-.09-.45-.14-.7-.14-.27,0-.52.05-.74.14-.22.09-.41.22-.58.39-.16.17-.29.37-.37.61-.09.24-.13.5-.13.78s.05.55.14.79c.09.24.22.44.39.61.17.17.36.3.59.39.23.09.48.14.76.14s.54-.04.79-.11c.25-.08.49-.21.71-.4l-.4-.57c-.15.12-.32.22-.51.28-.18.07-.37.1-.55.1-.13,0-.25-.02-.37-.05-.12-.04-.23-.09-.32-.17-.1-.08-.18-.17-.25-.29-.07-.12-.12-.26-.14-.42h2.71s0-.09.01-.15c0-.05,0-.1,0-.15,0-.29-.04-.55-.13-.78-.09-.24-.2-.44-.36-.61ZM128.84,65.8c.02-.13.06-.25.11-.37.05-.11.12-.21.2-.29.08-.08.18-.14.29-.19.11-.04.24-.06.38-.06.25,0,.46.08.62.24.16.16.26.38.31.67h-1.9Z"/><path class="cls-4" d="M141.69,64.72c-.13-.16-.29-.29-.47-.39-.19-.1-.41-.15-.68-.15s-.5.05-.72.14c-.22.1-.42.23-.58.4-.17.17-.3.37-.39.61-.09.24-.14.49-.14.77s.05.54.14.77c.09.24.22.44.39.61.17.17.36.3.58.4.22.1.46.14.72.14s.49-.05.68-.15.35-.23.47-.39v.44h.8v-3.66h-.8v.44ZM141.66,66.58c-.05.14-.13.27-.23.37-.1.1-.21.19-.35.25-.14.06-.29.09-.45.09s-.33-.03-.46-.09-.25-.15-.35-.25-.17-.23-.22-.37c-.05-.14-.08-.29-.08-.45s.03-.31.08-.45c.05-.14.12-.27.22-.37.09-.11.21-.19.35-.25.14-.06.29-.09.46-.09s.32.03.45.09c.14.06.25.14.35.25.1.1.17.23.23.37.05.14.08.3.08.47s-.03.32-.08.47Z"/><path class="cls-4" d="M127.02,67.21c-.13.05-.26.07-.38.07-.08,0-.16-.01-.23-.04-.07-.03-.13-.07-.18-.12-.05-.05-.09-.13-.12-.21s-.05-.19-.05-.31v-1.59h1.28v-.73h-1.28v-1.11h-.8v1.11h-.73v.73h.73v1.61c0,.49.12.85.35,1.08.23.23.55.35.97.35.23,0,.44-.04.63-.11.12-.05.24-.1.34-.16l-.27-.67c-.08.04-.16.08-.24.11Z"/><path class="cls-4" d="M134.23,64.18c-.22,0-.43.04-.61.12-.18.08-.33.28-.45.45v-.48h-.73v3.66h.73v-2.01c0-.16.02-.29.07-.42.04-.12.1-.23.18-.31.08-.08.17-.15.28-.19.11-.04.22-.07.35-.07.1,0,.2.01.31.03.06.01.11.03.16.04l.24-.76c-.06-.02-.13-.04-.2-.05-.1-.02-.21-.02-.33-.02Z"/><path class="cls-4" d="M145.34,64.18c-.22,0-.43.04-.61.12-.18.08-.33.28-.45.45v-.48h-.73v3.66h.73v-2.01c0-.16.02-.29.07-.42.04-.12.1-.23.18-.31.08-.08.17-.15.28-.19.11-.04.22-.07.35-.07.1,0,.2.01.31.03.06.01.11.03.16.04l.24-.76c-.06-.02-.13-.04-.2-.05-.1-.02-.21-.02-.33-.02Z"/><path class="cls-4" d="M149.07,62.79v1.93c-.13-.16-.29-.29-.47-.39-.19-.1-.41-.15-.68-.15s-.5.05-.72.14c-.22.1-.42.23-.58.4-.17.17-.3.37-.39.61-.09.24-.14.49-.14.77s.05.54.14.77c.09.24.22.44.39.61.17.17.36.3.58.4.22.1.46.14.72.14s.49-.05.68-.15c.19-.1.35-.23.47-.39v.44h.8v-5.15h-.8ZM149.04,66.58c-.05.14-.13.27-.23.37-.1.1-.21.19-.35.25-.14.06-.29.09-.45.09s-.33-.03-.46-.09c-.14-.06-.25-.15-.35-.25-.09-.11-.17-.23-.22-.37-.05-.14-.08-.29-.08-.45s.03-.31.08-.45c.05-.14.12-.27.22-.37.09-.11.21-.19.35-.25.14-.06.29-.09.46-.09s.32.03.45.09c.14.06.25.14.35.25.1.1.17.23.23.37.05.14.08.3.08.47s-.03.32-.08.47Z"/><path class="cls-4" d="M136.14,65.26c.1-.1.22-.18.36-.24.14-.06.29-.09.45-.09h0c.18,0,.35.03.5.09.15.06.28.13.39.23l.38-.64c-.14-.12-.31-.21-.49-.28-.24-.1-.5-.15-.79-.15s-.54.05-.79.15c-.24.1-.45.23-.62.41-.17.17-.31.38-.41.61-.1.23-.15.49-.15.76s.05.53.15.76c.1.23.24.44.41.61.17.17.38.31.62.41s.5.15.79.15.54-.05.79-.15c.18-.07.34-.17.49-.28l-.38-.64c-.11.1-.24.18-.39.23-.15.06-.32.09-.5.09h0c-.16,0-.31-.03-.45-.09-.14-.06-.26-.14-.36-.24-.1-.1-.18-.23-.24-.37-.06-.14-.09-.3-.09-.48s.03-.33.09-.48c.06-.14.14-.27.24-.37Z"/><path class="cls-4" d="M151.55,67.4c.05,0,.1,0,.15.03.05.02.09.05.12.08.03.03.06.07.08.12.02.05.03.09.03.15s0,.1-.03.14c-.02.05-.05.09-.08.12-.03.03-.08.06-.12.08-.05.02-.1.03-.15.03s-.11,0-.15-.03c-.05-.02-.09-.05-.12-.08-.03-.03-.06-.07-.08-.12-.02-.05-.03-.09-.03-.14s0-.1.03-.15c.02-.05.05-.08.08-.12.03-.03.08-.06.12-.08.05-.02.1-.03.15-.03ZM151.55,68.05s.07,0,.1-.02.06-.03.09-.06c.02-.02.04-.05.06-.09.01-.03.02-.07.02-.11s0-.07-.02-.11c-.01-.03-.03-.06-.06-.09-.02-.02-.05-.04-.09-.06-.03-.01-.07-.02-.1-.02s-.07,0-.11.02c-.03.01-.06.03-.09.06-.02.02-.04.05-.06.09-.01.03-.02.07-.02.11s0,.07.02.11c.01.03.03.06.06.09.02.02.05.04.09.06.03.01.07.02.11.02ZM151.57,67.61s.08.01.1.03c.02.02.04.05.04.08,0,.03,0,.05-.03.07-.02.02-.04.03-.07.03l.1.12h-.11l-.09-.12h-.01v.12h-.09v-.33h.16ZM151.5,67.69v.06h.07s.03,0,.03,0c0,0,.01-.01.01-.02,0-.01,0-.02-.01-.02,0,0-.02,0-.03,0h-.07Z"/><path class="cls-4" d="M124.47,47.16c0-4.39,2.05-8.29,5.24-10.82-2.35-1.86-5.33-2.98-8.56-2.98-7.62,0-13.8,6.18-13.8,13.8s6.18,13.8,13.8,13.8c3.24,0,6.21-1.12,8.56-2.98-3.19-2.53-5.24-6.43-5.24-10.82Z"/><path class="cls-4" d="M124.47,47.16c0,4.39,2.05,8.29,5.24,10.82,3.19-2.53,5.24-6.43,5.24-10.82s-2.05-8.29-5.24-10.82c-3.19,2.53-5.24,6.43-5.24,10.82Z"/><path class="cls-4" d="M151.14,54.62v-.4h-.16v-.11h.45v.11h-.16v.4h-.12ZM152.01,54.62v-.36l-.12.31h-.13l-.12-.31v.36h-.12v-.52h.17l.13.33.13-.33h.17v.52h-.12Z"/><path class="cls-4" d="M138.27,33.36c-3.24,0-6.21,1.12-8.56,2.98,3.19,2.53,5.24,6.43,5.24,10.82s-2.05,8.29-5.24,10.82c2.35,1.86,5.33,2.98,8.56,2.98,7.62,0,13.8-6.18,13.8-13.8s-6.18-13.8-13.8-13.8Z"/></g><g id="eCheck"><path class="cls-4" d="M122.73,100.87c0,.38.03.75.08,1.11.06.36.15.68.27.95.13.28.29.5.5.67.21.17.46.25.76.25.56,0,.96-.2,1.22-.6.25-.4.43-1,.53-1.81h2.96c-.06,1.5-.46,2.63-1.19,3.41-.73.78-1.89,1.17-3.46,1.17-1.19,0-2.12-.2-2.79-.6s-1.16-.92-1.48-1.58c-.32-.65-.51-1.38-.58-2.2-.07-.81-.11-1.62-.11-2.44,0-.86.06-1.69.18-2.48.12-.8.36-1.5.72-2.12.36-.62.87-1.11,1.54-1.48.67-.37,1.56-.55,2.67-.55.95,0,1.74.16,2.35.47.61.31,1.09.75,1.44,1.31.35.57.59,1.25.72,2.05.13.8.19,1.7.19,2.69v.74h-6.52v1.03ZM126,96.58c-.05-.37-.13-.69-.25-.95-.12-.26-.29-.46-.5-.6-.21-.14-.49-.2-.82-.2s-.61.08-.82.23c-.21.15-.39.35-.51.6-.13.25-.22.52-.27.82-.06.3-.08.61-.08.91v.5h3.37c-.02-.49-.05-.93-.1-1.3Z"/><path class="cls-4" d="M137.94,96.86c0-1.24-.5-2.65-2.03-2.65-1.24,0-2.51.62-2.51,5.3,0,1.67.02,5.01,2.44,5.01,1.72,0,2.1-1.81,2.1-3.2h2.01c0,2.03-1,4.77-4.2,4.77s-4.44-2.17-4.44-6.57c0-3.2.62-6.9,4.56-6.9,3.49,0,4.08,2.75,4.08,4.23h-2.01Z"/><path class="cls-4" d="M142.02,88.72h2.01v5.71h.05c.53-1.05,1.93-1.79,3.08-1.79,3.29,0,3.29,2.55,3.29,4.06v9.07h-2.01v-8.83c0-.98-.07-2.58-1.89-2.58-1.07,0-2.53.72-2.53,2.58v8.83h-2.01v-17.05Z"/><path class="cls-4" d="M154.75,99.6c0,1.96,0,4.92,2.46,4.92,1.91,0,2.17-2.01,2.17-2.96h2.01c0,1.36-.81,4.54-4.3,4.54-3.13,0-4.44-2.17-4.44-6.57,0-3.2.62-6.9,4.56-6.9s4.27,3.41,4.27,6.16v.81h-6.73ZM159.38,98.03v-.69c0-1.43-.45-3.13-2.22-3.13-2.1,0-2.34,2.58-2.34,3.34v.48h4.56Z"/><path class="cls-4" d="M169.76,96.86c0-1.24-.5-2.65-2.03-2.65-1.24,0-2.51.62-2.51,5.3,0,1.67.02,5.01,2.44,5.01,1.72,0,2.1-1.81,2.1-3.2h2.01c0,2.03-1,4.77-4.2,4.77s-4.44-2.17-4.44-6.57c0-3.2.62-6.9,4.56-6.9,3.49,0,4.08,2.75,4.08,4.23h-2.01Z"/><path class="cls-4" d="M183.39,105.76h-2.34l-3.56-6.33-1.65,2.01v4.32h-2.01v-17.05h2.01v10.15h.05l4.49-5.9h2.34l-3.89,4.82,4.56,7.97Z"/><rect class="cls-4" x="122.44" y="110.91" width="1.76" height="1.76" rx=".33" ry=".33"/><rect class="cls-4" x="120" y="111.8" width="1.2" height="3.72" rx=".33" ry=".33"/><rect class="cls-4" x="122.44" y="114.63" width="1.76" height="1.76" rx=".33" ry=".33"/><path class="cls-4" d="M129.34,116.76h-1.87c-.71,0-1.29-.58-1.29-1.29v-3.62c0-.71.58-1.29,1.29-1.29h1.87c.71,0,1.29.58,1.29,1.29v3.62c0,.71-.58,1.29-1.29,1.29ZM127.47,111.07c-.43,0-.78.35-.78.78v3.62c0,.43.35.78.78.78h1.87c.43,0,.78-.35.78-.78v-3.62c0-.43-.35-.78-.78-.78h-1.87Z"/><path class="cls-4" d="M135.19,116.76h-1.87c-.71,0-1.29-.58-1.29-1.29v-3.62c0-.71.58-1.29,1.29-1.29h1.87c.71,0,1.29.58,1.29,1.29v3.62c0,.71-.58,1.29-1.29,1.29ZM133.33,111.07c-.43,0-.78.35-.78.78v3.62c0,.43.35.78.78.78h1.87c.43,0,.78-.35.78-.78v-3.62c0-.43-.35-.78-.78-.78h-1.87Z"/><path class="cls-4" d="M141.05,116.76h-1.87c-.71,0-1.29-.58-1.29-1.29v-3.62c0-.71.58-1.29,1.29-1.29h1.87c.71,0,1.29.58,1.29,1.29v3.62c0,.71-.58,1.29-1.29,1.29ZM139.18,111.07c-.43,0-.78.35-.78.78v3.62c0,.43.35.78.78.78h1.87c.43,0,.78-.35.78-.78v-3.62c0-.43-.35-.78-.78-.78h-1.87Z"/><path class="cls-4" d="M146.91,116.76h-1.87c-.71,0-1.29-.58-1.29-1.29v-3.62c0-.71.58-1.29,1.29-1.29h1.87c.71,0,1.29.58,1.29,1.29v3.62c0,.71-.58,1.29-1.29,1.29ZM145.04,111.07c-.43,0-.78.35-.78.78v3.62c0,.43.35.78.78.78h1.87c.43,0,.78-.35.78-.78v-3.62c0-.43-.35-.78-.78-.78h-1.87Z"/><path class="cls-4" d="M152.76,116.76h-1.87c-.71,0-1.29-.58-1.29-1.29v-3.62c0-.71.58-1.29,1.29-1.29h1.87c.71,0,1.29.58,1.29,1.29v3.62c0,.71-.58,1.29-1.29,1.29ZM150.89,111.07c-.43,0-.78.35-.78.78v3.62c0,.43.35.78.78.78h1.87c.43,0,.78-.35.78-.78v-3.62c0-.43-.35-.78-.78-.78h-1.87Z"/><path class="cls-4" d="M158.62,116.76h-1.87c-.71,0-1.29-.58-1.29-1.29v-3.62c0-.71.58-1.29,1.29-1.29h1.87c.71,0,1.29.58,1.29,1.29v3.62c0,.71-.58,1.29-1.29,1.29ZM156.75,111.07c-.43,0-.78.35-.78.78v3.62c0,.43.35.78.78.78h1.87c.43,0,.78-.35.78-.78v-3.62c0-.43-.35-.78-.78-.78h-1.87Z"/><path class="cls-4" d="M164.47,116.76h-1.87c-.71,0-1.29-.58-1.29-1.29v-3.62c0-.71.58-1.29,1.29-1.29h1.87c.71,0,1.29.58,1.29,1.29v3.62c0,.71-.58,1.29-1.29,1.29ZM162.61,111.07c-.43,0-.78.35-.78.78v3.62c0,.43.35.78.78.78h1.87c.43,0,.78-.35.78-.78v-3.62c0-.43-.35-.78-.78-.78h-1.87Z"/><path class="cls-4" d="M170.33,116.76h-1.87c-.71,0-1.29-.58-1.29-1.29v-3.62c0-.71.58-1.29,1.29-1.29h1.87c.71,0,1.29.58,1.29,1.29v3.62c0,.71-.58,1.29-1.29,1.29ZM168.46,111.07c-.43,0-.78.35-.78.78v3.62c0,.43.35.78.78.78h1.87c.43,0,.78-.35.78-.78v-3.62c0-.43-.35-.78-.78-.78h-1.87Z"/><path class="cls-4" d="M176.19,116.76h-1.87c-.71,0-1.29-.58-1.29-1.29v-3.62c0-.71.58-1.29,1.29-1.29h1.87c.71,0,1.29.58,1.29,1.29v3.62c0,.71-.58,1.29-1.29,1.29ZM174.32,111.07c-.43,0-.78.35-.78.78v3.62c0,.43.35.78.78.78h1.87c.43,0,.78-.35.78-.78v-3.62c0-.43-.35-.78-.78-.78h-1.87Z"/><rect class="cls-4" x="181.56" y="111.43" width="1.59" height="1.59" rx=".33" ry=".33"/><rect class="cls-4" x="179.36" y="112.23" width="1.08" height="3.36" rx=".33" ry=".33"/><rect class="cls-4" x="181.56" y="114.8" width="1.59" height="1.59" rx=".33" ry=".33"/></g><image width="76" height="41" transform="translate(218.76 89.85) scale(.72)" xlink:href="../../SAP/CASH.png"/></g></g></svg>