<?xml version="1.0" encoding="UTF-8"?><svg id="Layer_2" xmlns="http://www.w3.org/2000/svg" xmlns:xlink="http://www.w3.org/1999/xlink" viewBox="0 0 399.73 154.85"><defs><style>.cls-1{fill-rule:evenodd;}.cls-1,.cls-2,.cls-3,.cls-4{stroke-width:0px;}.cls-1,.cls-4{fill:#fff;}.cls-2{fill:url(#linear-gradient);fill-opacity:.15;}.cls-3{fill:url(#linear-gradient-2);}</style><linearGradient id="linear-gradient" x1="78.71" y1="209.14" x2="333.72" y2="-45.86" gradientUnits="userSpaceOnUse"><stop offset="0" stop-color="#dcf1ff"/><stop offset=".13" stop-color="#d7dcf0"/><stop offset=".4" stop-color="#caa6ca"/><stop offset=".79" stop-color="#b5518f"/><stop offset="1" stop-color="#aa206d"/></linearGradient><linearGradient id="linear-gradient-2" x1="66.01" y1="200.71" x2="321.02" y2="-54.3" gradientUnits="userSpaceOnUse"><stop offset="0" stop-color="#2364f6" stop-opacity="0"/><stop offset="1" stop-color="#aa206d"/></linearGradient></defs><g id="Complete_Solution_Module"><g id="Digital_Payment"><rect class="cls-2" x="12.7" y="8.43" width="387.03" height="146.41" rx="20" ry="20"/><rect class="cls-3" x="0" y="0" width="387.03" height="146.41" rx="20" ry="20"/><image id="AP" width="500" height="210" transform="translate(31.76 81.64) scale(.2)" xlink:href="../../Header/Fall 2020/Logos/For Web/Amazon_Pay_Paymentus.png"/><g id="Apple_Pay"><path class="cls-4" d="M189.62,93.79c.66-.83,1.11-1.94.99-3.08-.97.05-2.15.64-2.84,1.47-.61.71-1.16,1.87-1.02,2.96,1.09.09,2.17-.54,2.86-1.35"/><path class="cls-4" d="M190.6,95.35c-1.58-.09-2.92.9-3.68.9s-1.91-.85-3.16-.83c-1.63.02-3.14.94-3.96,2.41-1.7,2.93-.45,7.27,1.2,9.65.8,1.18,1.77,2.48,3.04,2.43,1.2-.05,1.67-.78,3.14-.78s1.89.78,3.16.76c1.32-.02,2.15-1.18,2.95-2.36.92-1.34,1.3-2.64,1.32-2.71-.02-.02-2.55-.99-2.57-3.89-.02-2.43,1.98-3.59,2.07-3.66-1.13-1.67-2.9-1.86-3.51-1.91"/><path class="cls-4" d="M204.35,92.06c3.43,0,5.82,2.37,5.82,5.81s-2.44,5.84-5.91,5.84h-3.8v6.05h-2.75v-17.7h6.63ZM200.47,101.4h3.15c2.39,0,3.75-1.29,3.75-3.52s-1.36-3.51-3.74-3.51h-3.16v7.03Z"/><path class="cls-4" d="M210.9,106.09c0-2.26,1.73-3.64,4.8-3.81l3.53-.21v-.99c0-1.43-.97-2.29-2.59-2.29-1.53,0-2.49.74-2.72,1.89h-2.5c.15-2.33,2.13-4.05,5.32-4.05s5.13,1.66,5.13,4.24v8.89h-2.54v-2.12h-.06c-.75,1.43-2.38,2.34-4.07,2.34-2.53,0-4.29-1.57-4.29-3.89ZM219.22,104.92v-1.02l-3.18.2c-1.58.11-2.48.81-2.48,1.91s.93,1.86,2.35,1.86c1.85,0,3.3-1.28,3.3-2.96Z"/><path class="cls-4" d="M224.26,114.5v-2.15c.2.05.64.05.86.05,1.23,0,1.89-.51,2.29-1.84,0-.02.23-.78.23-.8l-4.66-12.91h2.87l3.26,10.5h.05l3.26-10.5h2.8l-4.83,13.58c-1.1,3.13-2.38,4.13-5.05,4.13-.22,0-.88-.02-1.08-.06Z"/></g><g id="PP"><path class="cls-4" d="M105.71,32.97h-4.88c-.33,0-.62.24-.67.57l-1.97,12.51c-.04.25.15.47.4.47h2.5c.23,0,.43-.17.47-.4l.56-3.55c.05-.33.34-.57.67-.57h1.54c3.21,0,5.07-1.55,5.55-4.64.22-1.35,0-2.41-.62-3.15-.69-.81-1.92-1.25-3.55-1.25ZM106.28,37.54c-.27,1.75-1.6,1.75-2.9,1.75h-.74l.52-3.27c.03-.2.2-.34.4-.34h.34c.88,0,1.71,0,2.14.5.26.3.33.74.24,1.36Z"/><path class="cls-4" d="M70.93,32.97h-4.88c-.33,0-.62.24-.67.57l-1.97,12.51c-.04.25.15.47.4.47h2.33c.33,0,.62-.24.67-.57l.53-3.37c.05-.33.34-.57.67-.57h1.54c3.21,0,5.07-1.55,5.55-4.64.22-1.35,0-2.41-.62-3.15-.69-.81-1.92-1.25-3.55-1.25ZM71.49,37.54c-.27,1.75-1.6,1.75-2.9,1.75h-.74l.52-3.27c.03-.2.2-.34.4-.34h.34c.88,0,1.71,0,2.14.5.26.3.33.74.24,1.36Z"/><path class="cls-4" d="M85.51,37.48h-2.34c-.2,0-.37.15-.4.34l-.1.65-.16-.24c-.51-.73-1.63-.98-2.76-.98-2.58,0-4.78,1.96-5.21,4.7-.22,1.37.09,2.68.87,3.59.71.84,1.73,1.19,2.94,1.19,2.08,0,3.23-1.34,3.23-1.34l-.1.65c-.04.25.15.47.4.47h2.1c.33,0,.62-.24.67-.57l1.26-7.99c.04-.25-.15-.47-.4-.47ZM82.25,42.03c-.23,1.33-1.28,2.23-2.64,2.23-.68,0-1.22-.22-1.57-.63-.35-.41-.48-.99-.37-1.64.21-1.32,1.29-2.25,2.62-2.25.66,0,1.2.22,1.56.64.36.42.5,1.01.4,1.65Z"/><path class="cls-4" d="M120.29,37.48h-2.34c-.2,0-.37.15-.4.34l-.1.65-.16-.24c-.51-.73-1.63-.98-2.76-.98-2.58,0-4.78,1.96-5.21,4.7-.22,1.37.09,2.68.87,3.59.71.84,1.73,1.19,2.94,1.19,2.08,0,3.23-1.34,3.23-1.34l-.1.65c-.04.25.15.47.4.47h2.1c.33,0,.62-.24.67-.57l1.26-7.99c.04-.25-.15-.47-.4-.47ZM117.04,42.03c-.23,1.33-1.28,2.23-2.64,2.23-.68,0-1.22-.22-1.57-.63-.35-.41-.48-.99-.37-1.64.21-1.32,1.29-2.25,2.62-2.25.66,0,1.2.22,1.56.64.36.42.5,1.01.4,1.65Z"/><path class="cls-4" d="M97.94,37.48h-2.35c-.22,0-.43.11-.56.3l-3.24,4.77-1.37-4.58c-.09-.29-.35-.48-.65-.48h-2.31c-.28,0-.47.27-.38.54l2.58,7.59-2.43,3.43c-.19.27,0,.64.33.64h2.35c.22,0,.43-.11.56-.29l7.81-11.27c.19-.27,0-.64-.33-.64Z"/><path class="cls-4" d="M123.04,33.32l-2,12.73c-.04.25.15.47.4.47h2.01c.33,0,.62-.24.67-.57l1.97-12.51c.04-.25-.15-.47-.4-.47h-2.25c-.2,0-.37.15-.4.34Z"/><g id="PayPal"><path class="cls-4" d="M44.54,32.63c.17-.08.36-.13.55-.13h5.24c.65,0,1.26.04,1.8.13.16.03.32.06.47.09.15.03.3.07.44.11.07.02.14.04.21.07.07.02.14.05.2.08.11-1.43-.29-2.43-.99-3.2-1.01-1.12-2.8-1.62-5.1-1.62h-6.23c-.47,0-.87.34-.95.81l-2.79,17.66c-.05.35.21.66.57.66h3.67l2.18-13.71c.07-.42.33-.77.71-.95Z"/><path class="cls-4" d="M52.98,33.74c-.06-.02-.12-.04-.18-.06-.13-.04-.26-.07-.39-.1-.14-.03-.27-.06-.42-.08-.5-.08-1.05-.12-1.66-.12h-4.87c-.13,0-.25.03-.36.08-.24.12-.42.34-.47.62l-.88,5.59c.09-.02.19-.03.3-.03h1.96c1.04,0,1.97-.12,2.79-.35,2.08-.6,3.48-1.95,4.18-4.1.16-.48.27-.92.35-1.33-.11-.05-.23-.09-.36-.14Z"/><path class="cls-4" d="M54.78,34.76c-.17-.19-.37-.35-.59-.5-.54,2.63-2.16,6.32-8.23,6.32-.01,0-1.5,0-1.5,0-.47,0-.87.34-.94.81,0,0-1.17,7.36-1.23,7.75-.05.31.22.55.5.55h3.02c.41,0,.76-.3.83-.71l.73-4.56c.06-.41.41-.71.83-.71h.52c3.37,0,6.01-1.37,6.78-5.33.02-.12.04-.24.06-.36.16-1.33-.06-2.44-.77-3.26Z"/></g></g><g id="Venmo"><path class="cls-1" d="M293.76,44.41l-1.1-8.87-4.55.43,2.08,12.46h5.2c2.28-3,5.08-7.26,5.08-10.55,0-1.03-.22-1.84-.7-2.64l-4.14.84c.26.55.43,1.22.43,2.21,0,1.8-1.27,4.43-2.3,6.11h0Z"/><path class="cls-1" d="M308.16,35.3c-4.74,0-7.04,4.12-7.04,8.01,0,3,1.41,5.39,5.37,5.39,1.56,0,3.16-.34,4.19-.84l.55-3.74c-1.46.74-2.59,1.03-3.76,1.03-1.08,0-1.89-.57-1.89-2.04,2.44-.02,6.66-1.03,6.66-4.31,0-2.04-1.46-3.5-4.07-3.5h0ZM308.61,39.16c0,1.2-2.11,1.58-2.95,1.58.12-1.44,1.22-2.44,2.06-2.44.48,0,.89.29.89.86h0Z"/><path class="cls-1" d="M314.61,35.52l-2.04,12.92h4.46l1.41-9.06c.38-.19.96-.46,1.53-.46.43,0,.79.14.79.72,0,.24-.07.67-.1.89l-1.25,7.91h4.43l1.37-8.63c.07-.45.14-1.15.14-1.63,0-1.73-.79-2.88-3.04-2.88-1.7,0-2.9.65-3.81,1.25l-.05-1.03h-3.86Z"/><path class="cls-1" d="M328.14,35.52l-2.04,12.92h4.45l1.41-9.06c.38-.19.96-.46,1.53-.46.43,0,.79.14.79.79,0,.17-.05.43-.07.65l-1.27,8.08h4.43l1.41-9.06c.41-.22.96-.46,1.51-.46.43,0,.79.14.79.79,0,.17-.05.43-.07.65l-1.27,8.08h4.43l1.36-8.63c.07-.45.14-1.15.14-1.63,0-1.73-.79-2.88-3.07-2.88-1.65,0-2.85.5-4.12,1.41-.46-.82-1.37-1.41-2.76-1.41-1.6,0-2.8.65-3.69,1.29l-.12-1.08h-3.81Z"/><path class="cls-1" d="M353.97,35.3c-4.96,0-7.11,3.81-7.11,7.89,0,3.09,1.25,5.56,5.01,5.56,5.08,0,7.21-4.17,7.21-8.2,0-3.04-1.37-5.25-5.1-5.25h0ZM351.36,43.38c0-1.58.36-4.67,2.11-4.67.79,0,1.05.72,1.05,1.77,0,1.58-.38,4.84-2.04,4.84-.79,0-1.13-.74-1.13-1.94h0Z"/></g><g id="PPC"><path class="cls-4" d="M223.12,39.66c.03-.21.21-.36.42-.36h3.95c3.26,0,5.54,2.56,5.02,5.85-.53,3.29-3.63,5.85-6.87,5.85h-4.02c-.15,0-.27-.14-.25-.29l1.74-11.04ZM224.78,48.42h.68c1.81,0,3.52-.99,3.89-3.27.33-2.09-.87-3.27-2.82-3.27h-.5c-.12,0-.23.09-.25.21l-1.01,6.33Z"/><path class="cls-4" d="M218.01,42.23l-.25,1.59h3.14c.15,0,.27.14.25.29l-.3,1.93c-.03.21-.21.36-.42.36h-2.7c-.21,0-.39.15-.42.36l-.27,1.66h3.32c.15,0,.27.14.25.29l-.3,1.93c-.03.21-.21.36-.42.36h-6c-.15,0-.27-.14-.25-.29l1.74-11.04c.03-.21.21-.36.42-.36h6c.15,0,.27.14.25.29l-.3,1.93c-.03.21-.21.36-.42.36h-2.88c-.21,0-.39.15-.42.36Z"/><path class="cls-4" d="M235.17,50.99h-2.38c-.15,0-.27-.14-.25-.29l1.74-11.04c.03-.21.21-.36.42-.36h2.38c.15,0,.27.14.25.29l-1.74,11.04c-.03.21-.21.36-.42.36Z"/><path class="cls-4" d="M212.8,50.99h-3.12c-.13,0-.25-.08-.31-.2l-2.06-4.3h-.03l-.67,4.21c-.03.17-.17.29-.34.29h-2.45c-.15,0-.27-.14-.25-.29l1.75-11.11c.03-.17.17-.29.34-.29h4.25c2.31,0,3.89,1.1,3.5,3.6-.26,1.61-1.38,3.01-3.09,3.3l2.68,4.41c.1.17-.02.38-.21.38ZM207.59,44.54h.29c.99,0,2.13-.19,2.34-1.46.21-1.27-.45-1.45-1.51-1.46h-.43c-.13,0-.24.09-.26.22l-.43,2.69Z"/><path class="cls-4" d="M241.61,50.99h-2.38c-.15,0-.27-.14-.25-.29l1.4-8.83h-2.22c-.15,0-.27-.14-.25-.29l.3-1.93c.03-.21.21-.36.42-.36h7.41c.15,0,.27.14.25.29l-.3,1.93c-.03.21-.21.36-.42.36h-2.15l-1.39,8.76c-.03.21-.21.36-.42.36Z"/><path class="cls-4" d="M203.73,42.62c-.04.22-.3.29-.45.14-.52-.53-1.28-.82-2.11-.82-1.86,0-3.33,1.43-3.62,3.24-.28,1.84.77,3.18,2.66,3.18.78,0,1.61-.3,2.29-.79.19-.14.45.03.41.26l-.43,2.68c-.03.16-.14.29-.3.33-.93.27-1.64.47-2.5.47-5.04,0-5.85-4.31-5.59-6.14.73-5.13,4.89-6.31,7.44-6.17.82.05,1.56.15,2.28.43.23.09.37.33.33.57l-.42,2.62Z"/><path class="cls-4" d="M218.86,27.59h-2.63c-.18,0-.33.13-.36.31l-1.06,6.75c-.02.13.08.25.22.25h1.35c.13,0,.23-.09.25-.22l.3-1.91c.03-.18.18-.31.36-.31h.83c1.73,0,2.73-.84,3-2.5.12-.73,0-1.3-.34-1.7-.37-.44-1.04-.67-1.92-.67ZM219.17,30.06c-.14.95-.87.95-1.56.95h-.4l.28-1.76c.02-.11.11-.19.22-.19h.18c.48,0,.92,0,1.16.27.14.16.18.4.13.73Z"/><path class="cls-4" d="M200.09,27.59h-2.63c-.18,0-.33.13-.36.31l-1.06,6.75c-.02.13.08.25.22.25h1.26c.18,0,.33-.13.36-.31l.29-1.82c.03-.18.18-.31.36-.31h.83c1.73,0,2.73-.84,3-2.5.12-.73,0-1.3-.34-1.7-.37-.44-1.04-.67-1.92-.67ZM200.39,30.06c-.14.95-.87.95-1.56.95h-.4l.28-1.76c.02-.11.11-.19.22-.19h.18c.48,0,.92,0,1.16.27.14.16.18.4.13.73Z"/><path class="cls-4" d="M207.96,30.03h-1.26c-.11,0-.2.08-.22.19l-.06.35-.09-.13c-.27-.4-.88-.53-1.49-.53-1.39,0-2.58,1.06-2.81,2.54-.12.74.05,1.44.47,1.94.38.45.93.64,1.59.64,1.12,0,1.75-.72,1.75-.72l-.06.35c-.02.13.08.25.22.25h1.14c.18,0,.33-.13.36-.31l.68-4.32c.02-.13-.08-.25-.22-.25ZM206.2,32.48c-.12.72-.69,1.2-1.42,1.2-.37,0-.66-.12-.85-.34-.19-.22-.26-.54-.2-.89.11-.71.69-1.21,1.41-1.21.36,0,.65.12.84.34.19.23.27.54.21.89Z"/><path class="cls-4" d="M226.73,30.03h-1.26c-.11,0-.2.08-.22.19l-.06.35-.09-.13c-.27-.4-.88-.53-1.49-.53-1.39,0-2.58,1.06-2.81,2.54-.12.74.05,1.44.47,1.94.38.45.93.64,1.59.64,1.12,0,1.75-.72,1.75-.72l-.06.35c-.02.13.08.25.22.25h1.14c.18,0,.33-.13.36-.31l.68-4.32c.02-.13-.08-.25-.22-.25ZM224.98,32.48c-.12.72-.69,1.2-1.42,1.2-.37,0-.66-.12-.85-.34-.19-.22-.26-.54-.2-.89.11-.71.69-1.21,1.41-1.21.36,0,.65.12.84.34.19.23.27.54.21.89Z"/><path class="cls-4" d="M214.67,30.03h-1.27c-.12,0-.23.06-.3.16l-1.75,2.57-.74-2.47c-.05-.15-.19-.26-.35-.26h-1.25c-.15,0-.26.15-.21.29l1.4,4.1-1.31,1.85c-.1.15,0,.35.18.35h1.27c.12,0,.23-.06.3-.16l4.21-6.08c.1-.15,0-.34-.18-.34Z"/><path class="cls-4" d="M228.22,27.78l-1.08,6.87c-.02.13.08.25.22.25h1.09c.18,0,.33-.13.36-.31l1.07-6.75c.02-.13-.08-.25-.22-.25h-1.22c-.11,0-.2.08-.22.19Z"/><path class="cls-4" d="M176.64,31.6c.21-.1.44-.15.68-.15h6.41c.8,0,1.54.05,2.2.16.2.03.39.07.57.11.19.04.37.09.54.14.09.03.17.05.26.08.09.03.17.06.25.09.13-1.75-.36-2.97-1.21-3.91-1.24-1.37-3.42-1.98-6.24-1.98h-7.62c-.58,0-1.07.42-1.16.99l-3.41,21.6c-.07.43.26.81.69.81h4.49l2.66-16.77c.08-.51.4-.94.87-1.17Z"/><path class="cls-4" d="M186.96,32.96c-.07-.02-.15-.05-.22-.07-.15-.05-.31-.09-.47-.12-.17-.04-.33-.07-.51-.1-.61-.1-1.29-.15-2.03-.15h-5.95c-.16,0-.31.04-.44.1-.3.14-.52.42-.57.76l-1.08,6.84c.11-.02.24-.03.37-.03h2.4c1.27,0,2.41-.14,3.41-.43,2.54-.73,4.25-2.38,5.11-5.01.19-.58.33-1.12.43-1.62-.14-.06-.28-.12-.44-.17Z"/><path class="cls-4" d="M189.17,34.2c-.21-.23-.46-.43-.73-.61-.66,3.21-2.64,7.73-10.07,7.73-.02,0-1.84,0-1.84,0-.58,0-1.06.42-1.15.99,0,0-1.43,9-1.5,9.48-.06.37.27.68.61.68h3.69c.5,0,.93-.37,1.01-.86l.9-5.58c.08-.5.51-.86,1.01-.86h.64c4.12,0,7.35-1.68,8.3-6.52.03-.14.05-.29.07-.43.2-1.62-.07-2.99-.94-3.99Z"/></g><g id="G_Pay_Lockup"><g id="Pay_Typeface"><path id="Letter_p" class="cls-4" d="M321.49,102.3v7.3h-2.32v-18.02h6.14c1.56,0,2.88.52,3.97,1.56,1.11,1.04,1.66,2.3,1.66,3.8s-.55,2.8-1.66,3.82c-1.07,1.03-2.4,1.53-3.97,1.53h-3.82ZM321.49,93.79v6.29h3.87c.92,0,1.69-.31,2.29-.93.62-.62.93-1.36.93-2.21s-.31-1.57-.93-2.18c-.6-.64-1.36-.95-2.29-.95h-3.87Z"/><path id="Letter_a" class="cls-4" d="M337.01,96.86c1.71,0,3.06.46,4.05,1.38.99.92,1.48,2.17,1.48,3.76v7.6h-2.21v-1.71h-.1c-.95,1.41-2.23,2.11-3.82,2.11-1.36,0-2.5-.4-3.41-1.21-.92-.81-1.38-1.81-1.38-3.02,0-1.28.48-2.29,1.45-3.04.97-.76,2.26-1.13,3.86-1.13,1.38,0,2.51.25,3.39.76v-.53c0-.81-.31-1.48-.95-2.05-.64-.57-1.39-.84-2.24-.84-1.29,0-2.32.54-3.06,1.64l-2.04-1.28c1.12-1.63,2.79-2.44,4.98-2.44ZM334.01,105.81c0,.6.25,1.11.77,1.51.51.4,1.11.6,1.8.6.98,0,1.85-.36,2.61-1.09s1.15-1.57,1.15-2.55c-.72-.57-1.73-.86-3.02-.86-.94,0-1.73.23-2.35.68-.64.47-.95,1.04-.95,1.7Z"/><path id="Letter_y" class="cls-4" d="M355.14,97.26l-7.72,17.76h-2.39l2.87-6.21-5.09-11.55h2.52l3.67,8.86h.05l3.57-8.86h2.52Z"/></g><g id="G_Mark"><path id="Blue_500" class="cls-4" d="M312.28,100.83c0-.76-.07-1.48-.19-2.17h-9.71v3.98h5.59c-.23,1.33-.96,2.46-2.08,3.21v2.58h3.33c1.94-1.8,3.06-4.46,3.06-7.6Z"/><path id="Green_500" class="cls-4" d="M305.89,105.84c-.93.62-2.12.99-3.52.99-2.7,0-4.98-1.82-5.8-4.27h-3.43v2.66c1.7,3.38,5.2,5.69,9.24,5.69,2.79,0,5.14-.92,6.84-2.5l-3.33-2.58Z"/><path id="Yellow_500" class="cls-4" d="M296.25,100.59c0-.69.11-1.35.32-1.98v-2.66h-3.43c-.7,1.4-1.1,2.97-1.1,4.64s.4,3.25,1.1,4.64l3.43-2.66c-.21-.62-.32-1.29-.32-1.98Z"/><path id="Red_500" class="cls-4" d="M302.38,94.35c1.52,0,2.89.52,3.97,1.55l2.95-2.95c-1.79-1.67-4.13-2.69-6.92-2.69-4.04,0-7.54,2.32-9.24,5.69l3.43,2.66c.82-2.45,3.11-4.27,5.8-4.27Z"/></g></g></g></g></svg>