<svg width="2686" height="2350" viewBox="0 0 2686 2350" fill="none" xmlns="http://www.w3.org/2000/svg">
<g clip-path="url(#clip0_17_1752)">
<path d="M1577.25 675.69L1614.28 638.66L1619.55 643.92L1631.79 631.68L1626.54 626.43L1677.49 575.48L1688.88 586.87L1713.36 562.39L1688.88 537.91L1664.4 562.39L1675.79 573.78L1624.84 624.73L1619.56 619.45L1607.32 631.69L1612.59 636.95L1574.85 674.69L1575.75 795.85L1513.75 857.85L1502.36 846.46L1477.88 870.94L1489.27 882.33L1343.51 1028.09L1345.22 1029.8L1480.65 894.37L1481.37 993.93L1327.08 1148.22L1315.69 1136.83L1291.21 1161.31L1315.69 1185.79L1340.17 1161.31L1328.79 1149.92L1504.32 974.39V973.88L1503.74 894.04L1526.85 870.93L1515.46 859.54L1578.17 796.83L1577.27 675.67L1577.25 675.69ZM1334.97 1161.32L1315.67 1180.62L1296.37 1161.32L1315.67 1142.02L1334.97 1161.32ZM1501.3 894.39L1501.87 973.41L1483.75 991.53L1483.03 891.97L1490.96 884.04L1501.3 894.38V894.39Z" fill="#2364F6"/>
<path d="M1315.68 1153.33L1307.6 1161.41L1315.68 1169.49L1323.77 1161.41L1315.68 1153.33Z" fill="#2364F6"/>
<path d="M1088.97 1330.31L1082.5 1323.85L1088.97 1317.39L1091.34 1319.76L1153.37 1257.74L1152.55 1148.83L1184.97 1116.41L1179.7 1111.15L1191.94 1098.91L1204.18 1111.15L1191.94 1123.39L1186.68 1118.13L1154.98 1149.82L1155.79 1258.74L1093.06 1321.47L1095.43 1323.85L1088.97 1330.31Z" fill="#2364F6"/>
<path d="M1265.92 920.8L1334.4 852.11L1388.06 852.51L1388.42 852.15L1473.58 767.09L1476.77 770.28L1484.85 762.2L1476.77 754.12L1468.69 762.2L1471.87 765.38L1399.62 837.55L1345.94 837.15L1264.91 918.39H1235.26L1211.98 895.11L1187.5 919.59L1211.98 944.07L1235.24 920.81H1265.92V920.8ZM1231.28 919.58L1211.98 938.88L1192.68 919.58L1211.98 900.28L1231.28 919.58ZM1336.8 849.71L1346.94 839.57L1397.22 839.95L1387.07 850.09L1336.81 849.72L1336.8 849.71Z" fill="#2364F6"/>
<path d="M1660.67 518.86L1735.89 443.64L1747.27 455.02L1771.75 430.54L1747.27 406.06L1722.79 430.54L1734.18 441.92L1658.96 517.14L1660.67 518.85V518.86ZM1727.98 430.54L1747.28 411.24L1766.58 430.54L1747.28 449.84L1727.98 430.54Z" fill="#2364F6"/>
<path d="M1747.35 422.599L1739.27 430.681L1747.35 438.763L1755.43 430.681L1747.35 422.599Z" fill="#2364F6"/>
<path d="M1416.07 908.29L1404.68 896.9L1523.53 778.05L1522.71 667.45L1533.58 656.58L1528.27 651.27L1645.84 533.68L1644.13 531.97L1526.55 649.55L1521.34 644.34L1509.1 656.58L1514.32 661.8L1416.33 759.87L1295.17 758.97L1150.1 904.04L1138.71 892.65L1114.23 917.13L1138.71 941.61L1163.19 917.13L1151.8 905.74L1269.93 787.61L1391.09 788.51L1516.06 663.54L1520.28 667.76L1521.09 777.04L1402.96 895.17L1391.57 883.79L1367.09 908.27L1391.57 932.75L1416.05 908.27L1416.07 908.29ZM1413.93 762.28L1390.11 786.1L1272.34 785.23L1296.16 761.41L1413.92 762.28H1413.93Z" fill="#2364F6"/>
<path d="M1652.17 517.582L1644.09 525.664L1652.17 533.746L1660.25 525.664L1652.17 517.582Z" fill="#2364F6"/>
<path d="M1042.25 740.42L1065.51 717.16L1041.03 692.68L1016.55 717.16L1039.83 740.44V770.09L955.17 854.54L955.57 908.22L889.65 974.19L890.63 1115.2L867.52 1138.31L892 1162.79L916.48 1138.31L905.1 1126.93L910.53 1121.5L986.32 1045.71L1023.94 1008.08L1023.04 886.92L1066.98 842.98L1072.24 848.24L1084.48 836L1072.24 823.76L1060 836L1065.27 841.27L982.99 923.55L983.89 1044.71L908.82 1119.78L903.39 1125.21L893.05 1114.87L892.38 1017.58L927.31 982.65L930.49 985.83L938.57 977.75L930.49 969.67L922.41 977.75L925.6 980.94L892.36 1014.18L892.09 975.18L973.97 893.23L973.57 839.57L1042.26 771.09V740.41L1042.25 740.42ZM986.3 1042.31L985.43 924.55L1020.66 889.32L1021.53 1007.08L986.3 1042.31ZM971.16 842.03L971.53 892.25L957.97 905.82L957.6 855.54L971.16 842.02V842.03ZM1021.73 717.16L1041.03 697.86L1060.33 717.16L1041.03 736.46L1021.73 717.16Z" fill="#2364F6"/>
<path d="M832.12 1173.72L843.5 1185.1L789.01 1239.59L789.91 1360.75L740.35 1410.32L736.21 1406.18L735.44 1302.95L742.36 1296.03L734.28 1287.95L726.2 1296.03L733.02 1302.85L733.79 1406.33L722.84 1417.28L735.08 1429.52L747.32 1417.28L742.06 1412.02L808.3 1345.78L807.4 1224.62L845.22 1186.8L856.6 1198.18L881.08 1173.7L856.6 1149.22L832.12 1173.7V1173.72ZM837.3 1173.72L856.6 1154.42L875.9 1173.72L856.6 1193.02L837.3 1173.72ZM805 1227.03L805.87 1344.8L792.31 1358.36L791.43 1240.59L804.99 1227.03H805Z" fill="#2364F6"/>
<path d="M1337 1029.66L1330.54 1036.13L1337 1042.59L1343.46 1036.13L1337 1029.66Z" fill="#2364F6"/>
<path d="M1353.43 938.147L1345.35 946.23L1353.43 954.311L1361.52 946.228L1353.43 938.147Z" fill="#2364F6"/>
<path d="M1328.85 1042.75L1272.26 1099.33L1271.94 976.24L1300.74 947.41H1330.4L1340.55 957.56L1302.64 995.44L1300.26 993.06L1293.8 999.53L1300.26 1005.99L1306.72 999.53L1304.35 997.16L1342.26 959.29L1353.69 970.72L1378.17 946.24L1353.69 921.76L1330.43 945.02H1299.75L1249 995.81L1249.33 1122.29L1238.44 1133.18L1228.13 1122.87L1227.82 1004.56L1189.65 966.41L1201.05 955.01L1176.57 930.53L1152.09 955.01L1163.48 966.4L1079.59 1050.29L1079.06 978.57L1109.99 947.64L1112.37 950.02L1118.83 943.56L1112.37 937.1L1105.91 943.56L1108.29 945.94L1076.64 977.59L1077.2 1052.71L1044.64 1085.27L1045.08 1145.37L1034.13 1156.32L1039.4 1161.58L914.43 1286.55L914.84 1342.5L907.97 1349.37L916.05 1357.45L924.13 1349.37L917.25 1342.49L916.84 1287.55L1041.09 1163.3L1046.36 1168.57L1058.6 1156.33L1047.49 1145.22L1047.05 1086.27L1165.18 968.14L1176.56 979.52L1187.94 968.15L1225.4 1005.59L1225.71 1123.17L1202.57 1146.31L1227.05 1170.79L1251.53 1146.31L1240.14 1134.92L1330.56 1044.51L1328.85 1042.8V1042.75ZM1334.38 946.21L1353.68 926.91L1372.98 946.21L1353.68 965.51L1334.38 946.21ZM1269.85 1101.75L1251.74 1119.86L1251.42 996.79L1269.53 978.66L1269.85 1101.75Z" fill="#2364F6"/>
<path d="M914.576 1188.12L906.494 1196.21L914.576 1204.29L922.659 1196.21L914.576 1188.12Z" fill="#2364F6"/>
<path d="M960.794 1386.16L952.712 1394.24L960.794 1402.32L968.876 1394.24L960.794 1386.16Z" fill="#2364F6"/>
<path d="M846.14 1385.06L721.88 1509.32L716.61 1504.05L704.37 1516.29L716.61 1528.53L727.68 1517.46L838.36 1518.28L949.44 1407.2L960.83 1418.59L985.31 1394.11L973.92 1382.72L1026.06 1330.58L1031.32 1335.85L1042.25 1324.92L1076.16 1325.01V1322.59L1042.46 1322.5L1038.3 1318.34L1119.94 1236.71L1119.04 1115.55L1145.46 1089.13L1156.85 1100.52L1181.33 1076.04L1156.85 1051.56L1132.37 1076.04L1143.76 1087.43L1101.24 1129.95L1102.14 1251.11L1036.61 1316.64L1031.34 1311.37L1019.1 1323.61L1024.37 1328.88L972.23 1381.02L962.05 1370.84L961.62 1312.95L1036.06 1238.51L1039.25 1241.7L1047.33 1233.62L1039.25 1225.54L1031.17 1233.62L1034.36 1236.8L959.2 1311.96L959.64 1370.86L936.37 1394.13L947.76 1405.52L837.4 1515.88L727.65 1515.07L723.63 1511.05L753.43 1481.25L813.97 1481.7L893.27 1402.4L898.54 1407.67L910.78 1395.43L898.54 1383.19L886.3 1395.43L891.56 1400.69L827.8 1464.45L770.65 1464.03L848.6 1386.09L848.2 1332.78L855.49 1325.49L848.09 1318.09L847.69 1264.93L904.22 1208.4L902.51 1206.69L845.27 1263.93L845.68 1319.13L839.33 1325.48L845.78 1331.93L846.18 1385.09L846.14 1385.06ZM1137.54 1076.04L1156.84 1056.74L1176.14 1076.04L1156.84 1095.34L1137.54 1076.04ZM1104.52 1248.71L1103.65 1130.94L1116.64 1117.95L1117.51 1235.72L1104.52 1248.71ZM941.52 1394.12L960.82 1374.82L980.12 1394.12L960.82 1413.42L941.52 1394.12ZM768.22 1466.41L825.37 1466.83L812.95 1479.25L755.8 1478.83L768.22 1466.41Z" fill="#2364F6"/>
<path d="M977.18 1109.19L1001.66 1133.67L977.18 1158.15L965.8 1146.76L926.79 1185.77L925.08 1184.06L964.09 1145.05L952.7 1133.67L977.18 1109.19Z" fill="#2364F6"/>
<path d="M592.731 1480.7L584.655 1488.78L592.735 1496.86L600.812 1488.79L592.731 1480.7Z" fill="#2364F6"/>
<path d="M433.142 1789.23L425.059 1797.32L433.139 1805.4L441.223 1797.32L433.142 1789.23Z" fill="#2364F6"/>
<path d="M711.76 1428.38L724 1440.62L711.76 1452.86L706.5 1447.6L663.56 1490.5L661.85 1488.79L704.79 1445.89L699.51 1440.62L711.76 1428.38Z" fill="#2364F6"/>
<path d="M856.589 1094.82L848.506 1102.9L856.589 1110.98L864.671 1102.9L856.589 1094.82Z" fill="#2364F6"/>
<path d="M725.89 1141.31L765.77 1101.43L764.06 1099.72L709.21 1154.57L709.56 1248.22L689.24 1268.55L689.57 1313.45L684.3 1318.72L686.68 1321.1L591.09 1416.69L591.45 1465.53L568.3 1488.68L579.74 1500.12L478.2 1601.66L477.44 1533.77L551.53 1459.68L556.8 1464.95L569.04 1452.71L556.8 1440.47L544.56 1452.71L549.82 1457.97L459.05 1548.74L459.85 1620.02L431.13 1648.74L431.65 1773.77L408.39 1797.03L432.87 1821.51L457.35 1797.03L434.07 1773.75L433.19 1650.11L496.3 1587L566.26 1587.83L566.62 1587.47L647.76 1506.4L646.05 1504.69L581.24 1569.44L514.65 1568.65L581.46 1501.84L592.79 1513.18L617.27 1488.7L593.87 1465.3L593.52 1417.7L688.4 1322.83L689.66 1324.09L690.15 1389.74L646.21 1433.68L640.95 1428.42L628.71 1440.66L640.95 1452.9L653.19 1440.66L647.92 1435.4L692.57 1390.75L692.07 1323.92L697.23 1318.76L691.99 1313.52L691.66 1269.59L809.79 1151.46L821.17 1162.85L845.65 1138.37L821.17 1113.89L796.69 1138.37L808.07 1149.75L726.21 1231.61L725.88 1141.36L725.89 1141.31ZM452.17 1797.01L432.87 1816.31L413.57 1797.01L432.87 1777.71L452.17 1797.01ZM475.82 1604.03L462.25 1617.6L461.49 1549.71L475.06 1536.18L475.82 1604.03ZM512.26 1571.01L578.85 1571.8L565.27 1585.37L498.69 1584.58L512.26 1571.01ZM612.09 1488.66L592.79 1507.96L573.49 1488.66L592.79 1469.36L612.09 1488.66ZM723.49 1143.71L723.82 1233.96L711.98 1245.8L711.65 1155.55L723.49 1143.71Z" fill="#2364F6"/>
<path d="M655.36 1488.95L647.277 1497.03L655.36 1505.12L663.442 1497.03L655.36 1488.95Z" fill="#2364F6"/>
<path d="M619.905 1453.62L611.823 1461.71L619.905 1469.79L627.987 1461.71L619.905 1453.62Z" fill="#2364F6"/>
<path d="M774.188 1083.22L766.107 1091.3L774.191 1099.38L782.272 1091.3L774.188 1083.22Z" fill="#2364F6"/>
<path d="M920.16 897.74L926.62 891.28L920.16 884.82L913.7 891.28L916.08 893.66L854.76 954.98V955.48L855.02 1008.77L782.16 1081.63L783.87 1083.34L855.03 1012.18L855.36 1079.66L832.11 1102.91L856.59 1127.39L881.07 1102.91L857.78 1079.62L857.17 955.97L917.78 895.36L920.16 897.74ZM856.6 1083.61L875.9 1102.91L856.6 1122.21L837.3 1102.91L856.6 1083.61Z" fill="#2364F6"/>
<path d="M1615.46 512.67L1639.94 488.19L1615.46 463.71L1590.98 488.19L1602.37 499.58L1502.17 599.82L1381.01 598.92L1318.29 661.63L1306.91 650.25L1283.8 673.36L1203.45 672.78L1112.67 763.55L1101.29 752.16L1076.81 776.64L1101.29 801.12L1125.77 776.64L1114.38 765.25L1204.44 675.2L1283.46 675.77L1293.8 686.11L1234.86 745.04L1236.57 746.75L1295.51 687.82L1306.9 699.21L1330 676.11L1421.1 676.79L1428.04 683.73L1436.12 675.65L1428.04 667.57L1421.24 674.37L1330.34 673.69L1319.99 663.34L1360.32 623.01L1481.48 623.91L1604.06 501.29L1615.45 512.68L1615.46 512.67ZM1101.28 757.33L1120.58 776.63L1101.28 795.93L1081.98 776.63L1101.28 757.33ZM1499.76 602.21L1480.5 621.47L1362.73 620.6L1381.99 601.34L1499.76 602.22V602.21ZM1596.16 488.18L1615.46 468.88L1634.76 488.18L1615.46 507.48L1596.16 488.18Z" fill="#2364F6"/>
<path d="M1101.26 769.225L1093.18 777.309L1101.26 785.389L1109.34 777.306L1101.26 769.225Z" fill="#2364F6"/>
<path d="M1228.39 747.518L1221.92 753.981L1228.39 760.444L1234.85 753.981L1228.39 747.518Z" fill="#2364F6"/>
<path d="M1221.92 762.16L1166.31 817.77L1177.7 829.16L1153.22 853.64L1128.74 829.15L1153.22 804.67L1164.6 816.06L1220.21 760.44L1221.92 762.16Z" fill="#2364F6"/>
<path d="M2573.92 787.68L2649.14 712.46L2660.53 723.85L2685.01 699.37L2660.53 674.89L2636.05 699.37L2647.44 710.76L2572.22 785.98L2573.93 787.69L2573.92 787.68ZM2641.23 699.37L2660.53 680.07L2679.83 699.37L2660.53 718.67L2641.23 699.37Z" fill="#2364F6"/>
<path d="M2660.5 691.244L2652.42 699.327L2660.5 707.408L2668.58 699.324L2660.5 691.244Z" fill="#2364F6"/>
<path d="M2329.32 1177.11L2317.93 1165.72L2436.78 1046.87L2435.96 936.27L2446.83 925.4L2441.52 920.09L2559.09 802.5L2557.38 800.79L2439.8 918.37L2434.59 913.16L2422.35 925.4L2427.57 930.62L2329.58 1028.69L2208.42 1027.79L2063.35 1172.86L2051.96 1161.47L2027.48 1185.95L2051.96 1210.43L2076.44 1185.95L2065.05 1174.56L2183.18 1056.43L2304.34 1057.33L2429.31 932.36L2433.53 936.58L2434.34 1045.86L2316.21 1163.99L2304.82 1152.6L2280.34 1177.08L2304.82 1201.56L2329.3 1177.08L2329.32 1177.11ZM2327.18 1031.1L2303.36 1054.92L2185.59 1054.05L2209.41 1030.23L2327.17 1031.1H2327.18Z" fill="#2364F6"/>
<path d="M2179.17 1189.62L2247.65 1120.93L2301.31 1121.33L2301.67 1120.97L2386.84 1035.91L2390.03 1039.1L2398.11 1031.02L2390.03 1022.94L2381.95 1031.02L2385.13 1034.2L2312.88 1106.36L2259.2 1105.96L2178.17 1187.2H2148.52L2125.23 1163.92L2100.75 1188.4L2125.23 1212.88L2148.49 1189.62H2179.17ZM2144.53 1188.4L2125.23 1207.7L2105.93 1188.4L2125.23 1169.1L2144.53 1188.4ZM2250.05 1118.53L2260.19 1108.39L2310.47 1108.76L2300.32 1118.9L2250.05 1118.53Z" fill="#2364F6"/>
<path d="M2565.41 786.408L2557.33 794.491L2565.41 802.573L2573.49 794.491L2565.41 786.408Z" fill="#2364F6"/>
<path d="M2242.02 1418.75L2417.55 1243.22V1242.71L2416.97 1162.87L2440.08 1139.76L2428.69 1128.37L2491.4 1065.66L2490.5 944.5L2527.53 907.47L2532.8 912.74L2545.04 900.5L2539.79 895.25L2590.74 844.3L2602.13 855.69L2626.61 831.21L2602.13 806.73L2577.65 831.21L2589.04 842.6L2538.09 893.55L2532.81 888.27L2520.57 900.51L2525.84 905.78L2488.1 943.52L2489 1064.68L2427 1126.68L2415.61 1115.29L2391.13 1139.77L2402.52 1151.16L2256.76 1296.92L2258.47 1298.63L2393.9 1163.2L2394.62 1262.76L2240.33 1417.05L2228.94 1405.66L2204.46 1430.14L2228.94 1454.62L2253.42 1430.14L2242.03 1418.75H2242.02ZM2248.22 1430.14L2228.92 1449.44L2209.62 1430.14L2228.92 1410.84L2248.22 1430.14ZM2397 1260.35L2396.28 1160.79L2404.21 1152.86L2414.55 1163.2L2415.12 1242.22L2397 1260.34V1260.35Z" fill="#2364F6"/>
<path d="M2228.88 1421.87L2220.8 1429.95L2228.88 1438.03L2236.97 1429.95L2228.88 1421.87Z" fill="#2364F6"/>
<path d="M2250.21 1298.42L2243.75 1304.89L2250.21 1311.35L2256.68 1304.89L2250.21 1298.42Z" fill="#2364F6"/>
<path d="M2266.72 1207.16L2258.64 1215.24L2266.72 1223.32L2274.8 1215.24L2266.72 1207.16Z" fill="#2364F6"/>
<path d="M1837.36 1618.15L1830.48 1611.27L1830.07 1556.33L1954.32 1432.07L1959.59 1437.34L1971.83 1425.1L1960.72 1413.99L1960.28 1355.04L2078.41 1236.91L2089.8 1248.29L2101.18 1236.92L2138.64 1274.36L2138.95 1391.95L2115.81 1415.08L2140.29 1439.56L2164.77 1415.08L2153.38 1403.69L2243.8 1313.28L2242.09 1311.57L2185.5 1368.15L2185.18 1245.06L2213.98 1216.23H2243.64L2253.79 1226.38L2215.89 1264.25L2213.51 1261.87L2207.05 1268.33L2213.51 1274.79L2219.98 1268.33L2217.61 1265.95L2255.51 1228.08L2266.94 1239.51L2291.42 1215.03L2266.94 1190.55L2243.68 1213.81H2213L2162.25 1264.61L2162.58 1391.09L2151.69 1401.98L2141.38 1391.67L2141.07 1273.36L2102.9 1235.22L2114.3 1223.82L2089.82 1199.34L2065.34 1223.82L2076.73 1235.21L1992.84 1319.1L1992.31 1247.38L2023.24 1216.45L2025.62 1218.83L2032.08 1212.37L2025.61 1205.91L2019.15 1212.37L2021.53 1214.75L1989.88 1246.4L1990.44 1321.52L1957.88 1354.08L1958.33 1414.19L1947.38 1425.14L1952.64 1430.4L1827.67 1555.37L1828.09 1611.32L1821.22 1618.19L1829.3 1626.27L1837.38 1618.19L1837.36 1618.15ZM2247.63 1215.03L2266.93 1195.73L2286.23 1215.03L2266.93 1234.33L2247.63 1215.03ZM2164.99 1388.68L2164.67 1265.61L2182.78 1247.48L2183.1 1370.57L2164.99 1388.68Z" fill="#2364F6"/>
<path d="M2004.59 1588.58L2066.62 1526.56L2065.8 1417.65L2098.21 1385.24L2092.95 1379.97L2105.19 1367.73L2117.43 1379.97L2105.19 1392.21L2099.92 1386.95L2068.23 1418.64L2069.04 1527.56L2006.3 1590.29L2008.68 1592.67L2002.22 1599.13L1995.75 1592.67L2002.22 1586.21L2004.59 1588.58Z" fill="#2364F6"/>
<path d="M1874.06 1654.67L1865.97 1662.75L1874.06 1670.83L1882.14 1662.75L1874.06 1654.67Z" fill="#2364F6"/>
<path d="M2014.11 1591.5V1593.92L2060.46 1594.05L2065.73 1599.32L2072.19 1592.85L2069.83 1590.49L2116.1 1544.4L2218.37 1545.16L2337.22 1426.31L2348.61 1437.7L2373.09 1413.22L2348.61 1388.74L2324.13 1413.22L2335.52 1424.61L2235.06 1525.07L2136.26 1524.34L2180.9 1479.87L2192.31 1491.28L2216.79 1466.8L2192.31 1442.32L2167.83 1466.8L2179.19 1478.16L2068.14 1588.79L2065.75 1586.4L2060.51 1591.65L2014.14 1591.52L2014.11 1591.5ZM2118.5 1541.99L2133.83 1526.72L2232.64 1527.45L2217.37 1542.72L2118.5 1541.98V1541.99Z" fill="#2364F6"/>
<path d="M1629.86 1772.87L1617.62 1785.11L1629.86 1797.35L1640.92 1786.29L1751.6 1787.11L1862.68 1676.03L1874.07 1687.42L1898.55 1662.94L1887.16 1651.55L1939.3 1599.41L1944.56 1604.67L1955.48 1593.75L1989.39 1593.84V1591.42L1955.69 1591.33L1951.53 1587.17L2033.17 1505.53L2032.27 1384.37L2058.69 1357.95L2070.07 1369.33L2094.55 1344.85L2070.07 1320.37L2045.59 1344.85L2056.97 1356.23L2014.45 1398.75L2015.35 1519.91L1949.82 1585.44L1944.55 1580.17L1932.31 1592.41L1937.58 1597.68L1885.44 1649.82L1875.26 1639.64L1874.83 1581.75L1949.27 1507.31L1952.46 1510.5L1960.54 1502.42L1952.46 1494.34L1944.38 1502.42L1947.56 1505.61L1872.4 1580.77L1872.84 1639.67L1849.57 1662.94L1860.96 1674.33L1750.6 1784.69L1640.85 1783.88L1636.83 1779.86L1666.63 1750.06L1727.17 1750.51L1806.47 1671.21L1811.74 1676.48L1823.98 1664.24L1811.74 1652L1799.5 1664.24L1804.77 1669.5L1741.01 1733.26L1683.86 1732.84L1755.99 1660.71L1759.27 1663.99L1767.35 1655.91L1759.27 1647.83L1751.19 1655.91L1754.28 1659L1635.12 1778.16L1629.85 1772.89L1629.86 1772.87ZM1669.04 1747.64L1681.46 1735.22L1738.61 1735.64L1726.19 1748.06L1669.04 1747.64ZM2050.78 1344.85L2070.08 1325.55L2089.38 1344.85L2070.08 1364.15L2050.78 1344.85ZM2017.76 1517.52L2016.88 1399.75L2029.87 1386.76L2030.74 1504.53L2017.75 1517.52H2017.76ZM1854.76 1662.92L1874.06 1643.62L1893.36 1662.92L1874.06 1682.22L1854.76 1662.92Z" fill="#2364F6"/>
<path d="M1163.29 1778.73L1160.11 1775.55L1232.36 1703.38L1286.03 1703.78L1367.06 1622.54H1396.71L1419.99 1645.82L1444.47 1621.34L1419.99 1596.86L1396.73 1620.12H1366.05L1297.57 1688.81L1243.91 1688.41L1243.55 1688.77L1158.38 1773.83L1155.19 1770.64L1147.11 1778.72L1155.19 1786.8L1163.27 1778.72L1163.29 1778.73ZM1420 1640.64L1400.7 1621.34L1420 1602.04L1439.3 1621.34L1420 1640.64ZM1234.76 1700.98L1244.91 1690.84L1295.18 1691.21L1285.04 1701.35L1234.76 1700.98Z" fill="#2364F6"/>
<path d="M956.01 2014.59L980.49 2039.07L1004.97 2014.59L993.58 2003.2L1068.8 1927.98L1067.09 1926.27L991.87 2001.49L980.48 1990.11L956 2014.59H956.01ZM961.19 2014.59L980.49 1995.29L999.79 2014.59L980.49 2033.89L961.19 2014.59Z" fill="#2364F6"/>
<path d="M980.491 2006.5L972.409 2014.58L980.491 2022.66L988.574 2014.58L980.491 2006.5Z" fill="#2364F6"/>
<path d="M1122.88 1884.33L1117.66 1879.11L1215.65 1781.04L1336.81 1781.94L1481.88 1636.87L1493.27 1648.26L1517.75 1623.78L1493.27 1599.3L1468.79 1623.78L1480.18 1635.17L1362.05 1753.3L1240.89 1752.4L1115.92 1877.37L1111.7 1873.15L1110.89 1763.87L1229.02 1645.73L1240.41 1657.12L1264.89 1632.64L1240.41 1608.16L1215.93 1632.64L1227.32 1644.03L1108.47 1762.88L1109.29 1873.48L1098.42 1884.35L1103.73 1889.66L1081.94 1911.47L1083.65 1913.18L1105.45 1891.38L1110.66 1896.59L1122.9 1884.35L1122.88 1884.33ZM1218.05 1778.63L1241.87 1754.81L1359.63 1755.68L1335.81 1779.5L1218.05 1778.63Z" fill="#2364F6"/>
<path d="M1075.61 1911.37L1067.53 1919.46L1075.61 1927.54L1083.69 1919.46L1075.61 1911.37Z" fill="#2364F6"/>
<path d="M1589.73 1800.5L1566.47 1823.76L1590.95 1848.24L1615.43 1823.76L1592.15 1800.48V1770.83L1676.81 1686.38L1676.41 1632.7L1742.33 1566.73L1741.35 1425.73L1764.46 1402.62L1739.98 1378.14L1715.5 1402.62L1726.89 1414L1721.46 1419.43L1645.67 1495.22L1608.04 1532.85L1608.94 1654.01L1565 1697.95L1559.74 1692.69L1547.5 1704.93L1559.74 1717.17L1571.98 1704.93L1566.71 1699.66L1648.99 1617.38L1648.09 1496.22L1723.16 1421.15L1728.59 1415.72L1738.93 1426.06L1739.61 1523.35L1704.68 1558.28L1701.5 1555.1L1693.42 1563.18L1701.5 1571.26L1709.58 1563.18L1706.39 1559.99L1739.63 1526.75L1739.9 1565.75L1658.02 1647.7L1658.42 1701.36L1589.73 1769.84V1800.52V1800.5ZM1645.68 1498.61L1646.55 1616.37L1611.32 1651.6L1610.45 1533.83L1645.68 1498.61ZM1660.81 1698.89L1660.44 1648.67L1674 1635.1L1674.37 1685.38L1660.81 1698.9V1698.89ZM1590.94 1804.45L1610.24 1823.75L1590.94 1843.05L1571.64 1823.75L1590.94 1804.45Z" fill="#2364F6"/>
<path d="M1799.86 1367.2L1788.47 1355.81L1842.96 1301.32L1842.06 1180.16L1891.63 1130.6L1895.77 1134.74L1896.54 1237.97L1889.62 1244.89L1897.7 1252.97L1905.78 1244.89L1898.96 1238.07L1898.19 1134.59L1909.14 1123.64L1896.9 1111.4L1884.66 1123.64L1889.92 1128.9L1823.68 1195.14L1824.58 1316.3L1786.76 1354.12L1775.38 1342.73L1750.9 1367.21L1775.38 1391.69L1799.86 1367.21V1367.2ZM1775.38 1347.9L1794.68 1367.2L1775.38 1386.5L1756.08 1367.2L1775.38 1347.9ZM1826.98 1313.89L1826.11 1196.12L1839.67 1182.56L1840.54 1300.33L1826.98 1313.89Z" fill="#2364F6"/>
<path d="M1278.54 1586.5L1270.45 1594.59L1278.53 1602.66L1286.61 1594.58L1278.54 1586.5Z" fill="#2364F6"/>
<path d="M1303.21 1390.98L1127.68 1566.51V1567.02L1128.26 1646.86L1105.15 1669.97L1116.54 1681.36L1053.83 1744.07L1054.73 1865.23L1017.7 1902.26L1012.43 1896.99L1000.19 1909.23L1005.44 1914.48L954.49 1965.43L943.1 1954.04L918.62 1978.52L943.1 2003L967.58 1978.52L956.19 1967.13L1007.14 1916.18L1012.42 1921.46L1024.66 1909.22L1019.39 1903.95L1057.13 1866.21L1056.23 1745.05L1118.23 1683.05L1129.62 1694.44L1154.1 1669.96L1142.71 1658.57L1288.47 1512.81L1286.76 1511.1L1151.33 1646.53L1150.61 1546.97L1304.9 1392.68L1316.28 1404.06L1340.76 1379.58L1316.28 1355.1L1291.8 1379.58L1303.18 1390.96L1303.21 1390.98ZM1297.01 1379.6L1316.31 1360.3L1335.61 1379.6L1316.31 1398.9L1297.01 1379.6ZM1148.23 1549.39L1148.95 1648.95L1141.02 1656.88L1130.68 1646.54L1130.11 1567.52L1148.23 1549.4V1549.39Z" fill="#2364F6"/>
<path d="M1316.3 1371.65L1308.22 1379.73L1316.3 1387.82L1324.38 1379.73L1316.3 1371.65Z" fill="#2364F6"/>
<path d="M1294.97 1498.02L1288.5 1504.49L1294.97 1510.95L1301.43 1504.49L1294.97 1498.02Z" fill="#2364F6"/>
<path d="M1468.52 1574.54L1552.41 1490.65L1552.94 1562.37L1522.01 1593.3L1519.63 1590.92L1513.17 1597.38L1519.64 1603.84L1526.1 1597.38L1523.72 1595L1555.37 1563.35L1554.81 1488.23L1587.37 1455.67L1586.92 1395.57L1597.87 1384.62L1592.61 1379.36L1717.58 1254.39L1717.17 1198.44L1724.04 1191.57L1715.96 1183.49L1707.88 1191.57L1714.75 1198.45L1715.16 1253.39L1590.9 1377.64L1585.64 1372.37L1573.4 1384.61L1584.51 1395.72L1584.95 1454.67L1466.82 1572.8L1455.43 1561.42L1444.05 1572.8L1406.59 1535.36L1406.28 1417.78L1429.42 1394.64L1404.94 1370.16L1380.46 1394.64L1391.85 1406.03L1301.43 1496.44L1303.14 1498.15L1359.73 1441.57L1360.05 1564.66L1331.25 1593.49H1301.59L1291.44 1583.34L1329.35 1545.47L1331.73 1547.85L1338.19 1541.38L1331.73 1534.92L1325.27 1541.39L1327.64 1543.76L1289.73 1581.63L1278.3 1570.2L1253.82 1594.68L1278.3 1619.16L1301.56 1595.9H1332.24L1382.99 1545.11L1382.66 1418.63L1393.55 1407.74L1403.86 1418.05L1404.17 1536.36L1442.34 1574.5L1430.94 1585.9L1455.42 1610.38L1479.9 1585.9L1468.51 1574.51L1468.52 1574.54ZM1297.6 1594.71L1278.3 1614.01L1259 1594.71L1278.3 1575.41L1297.6 1594.71ZM1380.24 1421.06L1380.56 1544.13L1362.45 1562.26L1362.13 1439.17L1380.24 1421.06Z" fill="#2364F6"/>
<path d="M2115.8 800.02L2127.19 811.41L2057.55 881.05L2046.02 869.53L2021.54 894.01L2032.93 905.4L2026.45 911.88L1927.93 911.15L1972.57 866.68L1983.98 878.09L2008.46 853.61L1983.98 829.13L1959.5 853.61L1970.86 864.97L1859.81 975.6L1857.42 973.21L1852.17 978.46L1805.8 978.33V980.75L1852.15 980.88L1857.41 986.14L1863.87 979.68L1861.51 977.32L1907.77 931.23L2006.37 931.96L1920.65 1017.68L1915.37 1012.4L1904.31 1023.46L1793.63 1022.64L1682.55 1133.72L1671.16 1122.33L1646.68 1146.81L1658.07 1158.2L1605.93 1210.34L1600.67 1205.08L1589.74 1216.01L1555.83 1215.92V1218.34L1589.53 1218.44L1593.69 1222.6L1527.45 1288.84L1512.06 1304.23L1512.96 1425.39L1486.55 1451.8L1475.17 1440.42L1450.69 1464.9L1475.17 1489.38L1499.65 1464.9L1488.26 1453.51L1530.78 1410.99L1529.88 1289.83L1595.41 1224.3L1600.68 1229.57L1612.92 1217.33L1607.65 1212.06L1659.79 1159.92L1669.97 1170.1L1670.4 1228L1595.96 1302.44L1592.77 1299.25L1584.69 1307.33L1592.77 1315.41L1600.85 1307.33L1597.66 1304.15L1672.82 1228.99L1672.38 1170.09L1695.65 1146.82L1684.26 1135.43L1794.62 1025.07L1904.37 1025.89L1908.39 1029.91L1878.59 1059.71L1818.05 1059.26L1738.75 1138.56L1733.48 1133.29L1721.24 1145.53L1733.48 1157.77L1745.72 1145.53L1740.46 1140.27L1804.22 1076.51L1861.37 1076.93L1783.42 1154.87L1783.82 1208.18L1776.53 1215.47L1783.93 1222.87L1784.32 1276.03L1727.79 1332.56L1729.5 1334.27L1786.74 1277.03L1786.33 1221.83L1792.68 1215.48L1786.23 1209.03L1785.83 1155.87L1910.08 1031.62L1915.35 1036.89L1927.59 1024.65L1922.34 1019.4L2009.75 931.99H2010.03L2034.76 907.27L2046.01 918.52L2070.49 894.04L2059.24 882.79L2128.88 813.15L2140.27 824.54L2164.75 800.06L2140.27 775.58L2115.79 800.06L2115.8 800.02ZM1876.19 1062.09L1863.77 1074.51L1806.62 1074.09L1819.04 1061.67L1876.19 1062.09ZM1494.45 1464.87L1475.15 1484.17L1455.85 1464.87L1475.15 1445.57L1494.45 1464.87ZM1527.47 1292.2L1528.34 1409.97L1515.35 1422.96L1514.48 1305.19L1527.47 1292.2ZM1690.47 1146.79L1671.17 1166.09L1651.87 1146.79L1671.17 1127.49L1690.47 1146.79ZM2024.05 914.25L2008.78 929.52L1910.19 928.79L1925.52 913.52L2024.05 914.25Z" fill="#2364F6"/>
<path d="M1440.04 1442.01L1427.8 1429.77L1440.04 1417.53L1445.3 1422.79L1477 1391.1L1476.19 1282.18L1538.92 1219.44L1536.55 1217.07L1543.01 1210.6L1549.48 1217.07L1543.01 1223.53L1540.64 1221.15L1478.61 1283.18L1479.43 1392.09L1447.02 1424.5L1452.28 1429.77L1440.04 1442.01Z" fill="#2364F6"/>
<path d="M1717.42 1336.55L1709.33 1344.63L1717.42 1352.72L1725.5 1344.63L1717.42 1336.55Z" fill="#2364F6"/>
<path d="M1671.2 1138.87L1663.11 1146.95L1671.2 1155.03L1679.28 1146.95L1671.2 1138.87Z" fill="#2364F6"/>
<path d="M1475.4 1219.26L1429.13 1265.35L1326.86 1264.59L1208.01 1383.44L1196.62 1372.05L1172.14 1396.53L1196.62 1421.01L1221.1 1396.53L1209.71 1385.15L1310.17 1284.69L1408.97 1285.42L1364.33 1329.89L1352.92 1318.48L1328.44 1342.96L1352.92 1367.44L1377.4 1342.96L1366.04 1331.6L1477.09 1220.97L1479.48 1223.36L1484.72 1218.12L1531.09 1218.25V1215.83L1484.74 1215.7L1479.48 1210.44L1473.02 1216.9L1475.38 1219.26H1475.4ZM1426.72 1267.75L1411.39 1283.02L1312.58 1282.29L1327.85 1267.02L1426.72 1267.75Z" fill="#2364F6"/>
<path d="M1705.19 1355.15L1706.9 1356.86L1667.9 1395.87L1679.28 1407.25L1654.8 1431.73L1630.32 1407.25L1654.8 1382.77L1666.18 1394.16L1705.19 1355.15Z" fill="#2364F6"/>
<path d="M2012.07 1071.34L2003.99 1079.42L2012.07 1087.5L2020.16 1079.42L2012.07 1071.34Z" fill="#2364F6"/>
<path d="M1920.22 1112.54L1907.98 1100.3L1920.22 1088.06L1925.48 1093.32L1968.42 1050.41L1970.13 1052.12L1927.19 1095.03L1932.46 1100.3L1920.22 1112.54Z" fill="#2364F6"/>
<path d="M1775.4 1430.02L1767.31 1438.11L1775.39 1446.19L1783.48 1438.11L1775.4 1430.02Z" fill="#2364F6"/>
<path d="M2258.31 862L2235.05 885.26H2204.37L2135.69 953.95L2065.73 953.12L2065.37 953.48L1984.23 1034.55L1985.94 1036.26L2050.75 971.51L2117.34 972.3L2050.53 1039.11L2039.2 1027.78L2014.72 1052.26L2038.11 1075.65L2038.46 1123.25L1943.59 1218.12L1942.33 1216.86L1941.84 1151.21L1985.78 1107.27L1991.05 1112.53L2003.29 1100.29L1991.05 1088.05L1978.81 1100.29L1984.07 1105.55L1939.42 1150.2L1939.92 1217.03L1934.75 1222.2L1939.99 1227.44L1940.32 1271.37L1822.19 1389.5L1810.8 1378.11L1786.32 1402.59L1810.8 1427.07L1835.28 1402.59L1823.89 1391.2L1905.75 1309.34L1906.09 1399.59L1866.21 1439.47L1867.92 1441.18L1922.76 1386.34L1922.41 1292.68L1942.73 1272.36L1942.4 1227.46L1947.67 1222.19L1945.29 1219.81L2040.88 1124.22L2040.52 1075.39L2063.67 1052.24L2052.23 1040.8L2153.76 939.27L2154.52 1007.16L2080.43 1081.25L2075.16 1075.99L2062.92 1088.23L2075.16 1100.47L2087.4 1088.23L2082.13 1082.96L2172.9 992.19L2172.1 920.91L2205.35 887.66H2235.01L2258.29 910.94L2282.77 886.46L2258.29 861.98L2258.31 862ZM1920 1295.11L1920.34 1385.36L1908.5 1397.2L1908.16 1306.95L1920 1295.11ZM2039.19 1032.95L2058.49 1052.25L2039.19 1071.55L2019.89 1052.25L2039.19 1032.95ZM2133.29 956.33L2119.72 969.9L2053.13 969.11L2066.71 955.54L2133.29 956.33ZM2169.73 923.31L2170.49 991.2L2156.92 1004.73L2156.16 936.88L2169.73 923.31ZM2277.61 886.47L2258.31 905.77L2239.01 886.47L2258.31 867.17L2277.61 886.47Z" fill="#2364F6"/>
<path d="M1976.61 1035.82L1968.53 1043.9L1976.61 1051.98L1984.7 1043.9L1976.61 1035.82Z" fill="#2364F6"/>
<path d="M1857.78 1441.41L1849.7 1449.5L1857.78 1457.58L1865.86 1449.49L1857.78 1441.41Z" fill="#2364F6"/>
<path d="M2039.2 1044.18L2031.11 1052.26L2039.2 1060.34L2047.28 1052.26L2039.2 1044.18Z" fill="#2364F6"/>
<path d="M1750.9 1438.02L1774.19 1461.31L1774.8 1584.96L1714.2 1645.56L1711.82 1643.18L1705.36 1649.64L1711.83 1656.1L1718.29 1649.64L1715.91 1647.26L1777.23 1585.94V1585.44L1776.96 1532.15L1849.82 1459.29L1848.11 1457.58L1776.95 1528.74L1776.62 1461.26L1799.87 1438.01L1775.39 1413.53L1750.91 1438.01L1750.9 1438.02ZM1756.08 1438.02L1775.38 1418.72L1794.68 1438.02L1775.38 1457.32L1756.08 1438.02Z" fill="#2364F6"/>
<path d="M1530.71 1755.3L1522.63 1763.39L1530.72 1771.47L1538.8 1763.38L1530.71 1755.3Z" fill="#2364F6"/>
<path d="M1016.52 2027.48L992.04 2051.96L1016.52 2076.44L1041 2051.96L1029.61 2040.57L1129.82 1940.33L1250.98 1941.23L1313.7 1878.52L1325.08 1889.9L1348.19 1866.79L1428.54 1867.37L1519.32 1776.6L1530.7 1787.98L1555.18 1763.5L1530.7 1739.02L1506.22 1763.5L1517.61 1774.89L1427.55 1864.94L1348.53 1864.37L1338.19 1854.03L1397.12 1795.1L1395.41 1793.39L1336.47 1852.32L1325.08 1840.93L1301.98 1864.03L1210.88 1863.35L1203.94 1856.41L1195.86 1864.49L1203.94 1872.57L1210.74 1865.77L1301.64 1866.45L1311.99 1876.8L1271.65 1917.13L1150.49 1916.23L1027.91 2038.85L1016.52 2027.46V2027.48ZM1511.4 1763.52L1530.7 1744.22L1550 1763.52L1530.7 1782.82L1511.4 1763.52ZM1132.22 1937.94L1151.48 1918.68L1269.25 1919.55L1249.99 1938.81L1132.22 1937.93V1937.94ZM1035.82 2051.97L1016.52 2071.27L997.22 2051.97L1016.52 2032.67L1035.82 2051.97Z" fill="#2364F6"/>
<path d="M1403.59 1780.47L1397.13 1786.93L1403.59 1793.4L1410.05 1786.93L1403.59 1780.47Z" fill="#2364F6"/>
<path d="M1410.06 1778.76L1465.67 1723.15L1454.28 1711.76L1478.76 1687.28L1503.25 1711.76L1478.76 1736.24L1467.38 1724.86L1411.77 1780.47L1410.06 1778.76Z" fill="#2364F6"/>
<path d="M107.95 1080.03V1045.41H91.85V839.27H89.43V1030.8L18.52 960.91V742.71H34.62V708.09H0V742.71H16.1V990.95L16.46 991.31L73.33 1047.36V1080.04H107.95V1080.03ZM3.66 739.05V711.75H30.96V739.04H3.66V739.05ZM89.43 1045.41H74.8L18.52 989.94V964.31L89.43 1034.2V1045.41Z" fill="#2364F6"/>
<path d="M22.66 718.55H11.23V729.98H22.66V718.55Z" fill="#2364F6"/>
<path d="M95.2099 824.34H86.0699V833.48H95.2099V824.34Z" fill="#2364F6"/>
<path d="M262.79 755.61V636.97L313.88 687.31V731.05H310.52V740.19H319.66V731.05H316.3V686.3L262.79 633.58V587.53L219.97 545.34V529.85H202.66V547.16H218.38L260.37 588.53V755.59H244.27V771.68L191.31 771.7L107.95 688.77V656.05H73.33V690.67H89.44V818.53H91.85V738.5L179.12 825.31L179.14 866.07L158.17 887.04H143.82L143.84 833.46H147.21V824.32H138.07V833.46H141.43L141.41 887.04H125.25V921.66H159.87V888.77L181.57 867.07L181.54 795.27L91.87 706.07V690.67H106.45L190.33 774.11L244.29 774.09V790.21H278.91V755.58H262.81L262.79 755.61ZM156.2 890.73V918.02H128.91V890.73H156.2ZM91.85 709.51L179.1 796.31V821.94L91.84 735.13V709.52L91.85 709.51Z" fill="#2364F6"/>
<path d="M147.98 897.29H136.55V908.72H147.98V897.29Z" fill="#2364F6"/>
<path d="M1694 2010.01L1669.52 2034.49L1680.91 2045.88L1535.15 2191.64L1536.86 2193.35L1672.29 2057.92L1673.01 2157.48L1518.72 2311.77L1507.34 2300.39L1482.86 2324.87L1507.34 2349.35L1531.82 2324.87L1520.44 2313.49L1695.97 2137.96V2137.45L1695.39 2057.61L1718.5 2034.5L1694.02 2010.02L1694 2010.01ZM1526.63 2324.86L1507.33 2344.16L1488.03 2324.86L1507.33 2305.56L1526.63 2324.86ZM1682.61 2047.59L1692.95 2057.93L1693.52 2136.95L1675.4 2155.07L1674.68 2055.51L1682.61 2047.58V2047.59Z" fill="#2364F6"/>
<path d="M1507.28 2317.01L1499.2 2325.09L1507.28 2333.17L1515.36 2325.09L1507.28 2317.01Z" fill="#2364F6"/>
<path d="M1528.7 2193.12L1522.24 2199.59L1528.7 2206.05L1535.17 2199.59L1528.7 2193.12Z" fill="#2364F6"/>
<path d="M1355.11 2129.92L1271.22 2213.81L1270.69 2142.09L1301.62 2111.16L1304 2113.54L1310.46 2107.08L1303.99 2100.62L1297.53 2107.08L1299.91 2109.46L1268.26 2141.11L1268.82 2216.23L1236.26 2248.79L1236.71 2308.89L1225.76 2319.84L1238 2332.08L1250.24 2319.84L1239.13 2308.73L1238.69 2249.78L1356.82 2131.65L1368.21 2143.03L1379.59 2131.66L1417.05 2169.1L1417.36 2286.68L1394.22 2309.82L1418.7 2334.3L1443.18 2309.82L1431.79 2298.43L1522.21 2208.02L1520.5 2206.31L1463.91 2262.89L1463.59 2139.8L1492.39 2110.97H1522.05L1532.2 2121.12L1494.29 2158.99L1491.91 2156.61L1485.45 2163.08L1491.91 2169.54L1498.37 2163.07L1496 2160.7L1533.91 2122.83L1545.34 2134.26L1569.82 2109.78L1545.34 2085.3L1522.08 2108.56H1491.4L1440.65 2159.35L1440.98 2285.83L1430.09 2296.72L1419.78 2286.41L1419.47 2168.1L1381.3 2129.96L1392.7 2118.56L1368.22 2094.08L1343.74 2118.56L1355.13 2129.95L1355.11 2129.92ZM1526.03 2109.75L1545.33 2090.45L1564.63 2109.75L1545.33 2129.05L1526.03 2109.75ZM1443.39 2283.4L1443.07 2160.33L1461.18 2142.2L1461.5 2265.29L1443.39 2283.4Z" fill="#2364F6"/>
<path d="M1545.1 2101.77L1537.02 2109.86L1545.1 2117.94L1553.19 2109.86L1545.1 2101.77Z" fill="#2364F6"/>
<path d="M974.86 400.334L966.777 408.417L974.86 416.499L982.942 408.417L974.86 400.334Z" fill="#2364F6"/>
<path d="M950.18 612.03L1125.71 436.5V435.99L1125.13 356.15L1148.24 333.04L1136.85 321.65L1199.56 258.94L1198.66 137.78L1235.69 100.75L1240.96 106.02L1253.2 93.7798L1247.95 88.5298L1298.9 37.5798L1310.29 48.9698L1334.77 24.4898L1310.29 0.00976562L1285.81 24.4898L1297.2 35.8798L1246.25 86.8298L1240.97 81.5498L1228.73 93.7898L1234 99.0598L1196.26 136.8L1197.16 257.96L1135.16 319.96L1123.77 308.57L1099.29 333.05L1110.68 344.44L964.92 490.2L966.63 491.91L1102.06 356.48L1102.78 456.04L948.49 610.33L937.11 598.95L912.63 623.43L937.11 647.91L961.59 623.43L950.21 612.05L950.18 612.03ZM956.38 623.41L937.08 642.71L917.78 623.41L937.08 604.11L956.38 623.41ZM1105.16 453.62L1104.44 354.06L1112.37 346.13L1122.71 356.47L1123.28 435.49L1105.16 453.61V453.62Z" fill="#2364F6"/>
<path d="M937.1 615.42L929.018 623.502L937.1 631.584L945.182 623.502L937.1 615.42Z" fill="#2364F6"/>
<path d="M958.403 491.815L951.94 498.278L958.403 504.741L964.866 498.278L958.403 491.815Z" fill="#2364F6"/>
<path d="M784.87 428.47L700.98 512.36L700.45 440.64L731.38 409.71L733.76 412.09L740.22 405.63L733.75 399.17L727.29 405.63L729.67 408.01L698.02 439.66L698.58 514.78L666.02 547.34L666.47 607.44L655.52 618.39L660.78 623.65L535.81 748.62L536.22 804.57L529.35 811.44L537.43 819.52L545.51 811.44L538.64 804.56L538.23 749.62L662.49 625.37L667.75 630.64L679.99 618.4L668.88 607.29L668.44 548.34L786.57 430.21L797.96 441.59L809.34 430.21L846.8 467.65L847.11 585.23L823.97 608.37L848.45 632.85L872.93 608.37L861.54 596.98L951.96 506.57L950.25 504.86L893.66 561.44L893.34 438.35L922.14 409.52H951.8L961.95 419.67L924.04 457.54L921.66 455.16L915.2 461.63L921.66 468.09L928.12 461.62L925.75 459.25L963.66 421.38L975.09 432.81L999.57 408.33L975.09 383.85L951.83 407.11H921.15L870.4 457.9L870.73 584.38L859.84 595.27L849.53 584.96L849.22 466.65L811.05 428.51L822.45 417.11L797.97 392.63L773.49 417.11L784.88 428.5L784.87 428.47ZM955.79 408.3L975.09 389L994.39 408.3L975.09 427.6L955.79 408.3ZM873.15 581.95L872.83 458.88L890.94 440.75L891.26 563.84L873.15 581.95Z" fill="#2364F6"/>
<path d="M813.35 561L825.59 573.24L813.35 585.48L808.08 580.22L776.39 611.92L777.2 720.83L714.47 783.57L716.84 785.94L710.38 792.41L703.91 785.94L710.38 779.48L712.75 781.86L774.78 719.83L773.96 610.92L806.37 578.51L801.11 573.24L813.35 561Z" fill="#2364F6"/>
<path d="M777.99 783.75L824.26 737.66L926.53 738.42L1045.38 619.57L1056.77 630.96L1081.25 606.48L1056.77 582L1032.29 606.48L1043.68 617.86L943.22 718.32L844.42 717.59L889.06 673.12L900.47 684.53L924.95 660.05L900.47 635.57L875.99 660.05L887.35 671.41L776.3 782.04L773.91 779.65L768.67 784.89L722.3 784.76V787.18L768.65 787.31L773.91 792.57L780.37 786.11L778.01 783.75H777.99ZM826.67 735.26L842 719.99L940.81 720.72L925.54 735.99L826.67 735.26Z" fill="#2364F6"/>
<path d="M348.28 1147.24L394.55 1101.15L496.82 1101.91L615.67 983.06L627.06 994.45L651.54 969.97L627.06 945.49L602.58 969.97L613.97 981.35L513.51 1081.81L414.71 1081.08L459.35 1036.61L470.76 1048.02L495.24 1023.54L470.76 999.06L446.28 1023.54L457.64 1034.9L346.59 1145.53L344.2 1143.14L338.96 1148.38L292.59 1148.25V1150.67L338.94 1150.8L344.2 1156.06L350.66 1149.6L348.3 1147.24H348.28ZM396.96 1098.75L412.29 1083.48L511.1 1084.21L495.83 1099.48L396.96 1098.75Z" fill="#2364F6"/>
<path d="M802.72 538.14L778.24 513.66L753.76 538.14L765.15 549.53L722.63 592.05L723.53 713.21L658 778.74L652.73 773.47L640.49 785.71L645.76 790.98L593.62 843.12L583.44 832.94L583.01 775.04L657.45 700.6L660.64 703.79L668.72 695.71L660.64 687.63L652.56 695.71L655.75 698.89L580.59 774.05L581.03 832.95L557.76 856.22L569.15 867.61L458.79 977.97L349.04 977.15L345.02 973.13L374.82 943.33L435.36 943.78L514.66 864.48L519.93 869.75L532.17 857.51L519.93 845.27L507.69 857.51L512.95 862.77L449.19 926.53L392.04 926.11L469.99 848.17L469.59 794.86L476.88 787.57L469.48 780.17L469.09 727.01L525.02 671.08L536.42 682.49L560.9 658.01L536.42 633.53L511.94 658.01L523.31 669.38L466.66 726.03L467.07 781.23L460.72 787.58L467.17 794.03L467.57 847.19L343.32 971.44L338.05 966.17L325.81 978.41L331.06 983.66L243.65 1071.07H243.37L218.64 1095.79L207.39 1084.54L182.91 1109.02L194.16 1120.27L124.52 1189.91L113.13 1178.52L88.65 1203L113.13 1227.48L137.61 1203L126.22 1191.61L195.86 1121.97L207.39 1133.49L231.87 1109.01L220.48 1097.62L226.95 1091.15L325.47 1091.88L280.83 1136.35L269.42 1124.94L244.94 1149.42L269.42 1173.9L293.9 1149.42L282.54 1138.06L393.59 1027.43L395.98 1029.82L401.23 1024.57L447.6 1024.7V1022.28L401.25 1022.15L395.99 1016.89L389.53 1023.35L391.89 1025.71L345.63 1071.8L247.03 1071.07L332.76 985.35L338.04 990.63L349.1 979.56L459.78 980.38L570.86 869.3L582.25 880.69L606.73 856.21L595.34 844.82L647.48 792.68L652.74 797.94L663.67 787.01L697.58 787.1V784.68L663.88 784.58L659.72 780.42L725.96 714.18L741.35 698.79L740.45 577.63L766.86 551.22L778.24 562.6L802.72 538.12V538.14ZM244.62 1073.47L343.21 1074.2L327.88 1089.47L229.35 1088.74L244.62 1073.47ZM377.21 940.92L389.63 928.5L446.78 928.92L434.36 941.34L377.21 940.92ZM601.54 856.21L582.24 875.51L562.94 856.21L582.24 836.91L601.54 856.21ZM738.93 697.81L725.94 710.8L725.07 593.03L738.06 580.04L738.93 697.81ZM797.55 538.13L778.25 557.43L758.95 538.13L778.25 518.83L797.55 538.13Z" fill="#2364F6"/>
<path d="M535.48 1419.34L489.21 1465.43L386.94 1464.67L268.09 1583.52L256.7 1572.13L232.22 1596.61L256.7 1621.09L281.18 1596.61L269.79 1585.23L370.25 1484.77L469.05 1485.5L424.41 1529.97L413 1518.56L388.52 1543.04L413 1567.52L437.48 1543.04L426.12 1531.68L537.17 1421.05L539.56 1423.44L544.8 1418.2L591.17 1418.33L592.33 1415.79H544.82L539.56 1410.51L533.1 1416.97L535.46 1419.33L535.48 1419.34ZM486.8 1467.83L471.47 1483.1L372.66 1482.37L387.93 1467.1L486.8 1467.83Z" fill="#2364F6"/>
<path d="M719.04 1653.09L771.02 1705.24L770.26 1807.51L889.11 1926.36L877.72 1937.75L902.2 1962.23L926.68 1937.75L902.2 1913.27L890.82 1924.66L790.36 1824.2L791.09 1725.4L835.56 1770.04L824.15 1781.45L848.63 1805.93L873.11 1781.45L848.63 1756.97L837.27 1768.33L720.75 1651.39L723.14 1649L717.9 1643.76L718.03 1525.28L715.49 1524.12V1643.74L710.21 1649L716.67 1655.46L719.03 1653.1L719.04 1653.09ZM773.42 1707.65L788.69 1722.98L787.96 1821.79L772.69 1806.52L773.42 1707.65Z" fill="#2364F6"/>
<path d="M264.42 1428.54L316.57 1376.56L418.84 1377.32L537.69 1258.47L549.08 1269.86L573.56 1245.38L549.08 1220.9L524.6 1245.38L535.99 1256.76L435.53 1357.22L336.73 1356.49L381.37 1312.02L392.78 1323.43L417.26 1298.95L392.78 1274.47L368.3 1298.95L379.66 1310.31L262.72 1426.83L260.33 1424.44L255.09 1429.68L136.61 1429.55L135.45 1432.09H255.07L260.33 1437.37L266.79 1430.91L264.43 1428.55L264.42 1428.54ZM318.98 1374.16L334.31 1358.89L433.12 1359.62L417.85 1374.89L318.98 1374.16Z" fill="#2364F6"/>
</g>
<defs>
<clipPath id="clip0_17_1752">
<rect width="2686" height="2350" fill="white"/>
</clipPath>
</defs>
</svg>
