<?xml version="1.0" encoding="UTF-8"?><svg id="Layer_2" xmlns="http://www.w3.org/2000/svg" xmlns:xlink="http://www.w3.org/1999/xlink" viewBox="0 0 252.46 252.46"><defs><style>.cls-1{stroke-width:0px;}.cls-1,.cls-2{fill:url(#linear-gradient);}.cls-3{clip-path:url(#clippath-1);}.cls-4{fill:none;stroke:#fff;stroke-miterlimit:10;}.cls-5{clip-path:url(#clippath);}</style><linearGradient id="linear-gradient" x1="126.23" y1="252.46" x2="126.23" y2="0" gradientUnits="userSpaceOnUse"><stop offset="0" stop-color="#061e51"/><stop offset="0" stop-color="#2364f6"/><stop offset=".07" stop-color="#355ae2"/><stop offset=".19" stop-color="#5948be"/><stop offset=".32" stop-color="#7639a1"/><stop offset=".46" stop-color="#8d2e8a"/><stop offset=".61" stop-color="#9d2679"/><stop offset=".78" stop-color="#a62170"/><stop offset="1" stop-color="#aa206d"/></linearGradient><clipPath id="clippath"><circle class="cls-1" cx="126.23" cy="126.23" r="126.23"/></clipPath><clipPath id="clippath-1"><path class="cls-4" d="M106.45,151.35c1.12,2.48,2.26,5.69,1.28,12.5-.36,2.48-.99,6.81-4.19,10.55-2.04,2.38-4.18,3.43-13.73,7.03-5.19,1.96-8.14,3.03-9.92,3.67-1.86.67-2.44.88-2.68.97-5.87,2.18-11.98,10.58-14.21,14.79-4.27,8.08-13.07,36.46-1,57.78,20.31,35.91,94.66,42.51,118.58,8.54,14.93-21.21,8.71-56.1-3.85-69.34-10.27-10.83-19.09-12.73-19.09-12.73-5.37-1.17-9.23-1.03-13-3.54"/></clipPath></defs><g id="Comm_Channels"><g id="Mask"><circle class="cls-2" cx="126.23" cy="126.23" r="126.23"/><g class="cls-5"><g id="Blouse"><g class="cls-3"><path class="cls-4" d="M98.93,176.99c.9-2.35,1.97-3.05,2.76-3.27,2.29-.62,3.87,2.37,9.8,6.03,3.77,2.33,4.63,2.02,5.78,3.52,3.32,4.36.69,10.98.25,12.06-11.89-4.35-23.78-8.7-35.68-13.05l17.08-5.29Z"/><path class="cls-4" d="M129.63,179.98c-3.77,2.33-5.07,2.23-6.21,3.73-3.32,4.36-.69,10.98-.25,12.06,11.89-4.35,23.78-8.7,35.68-13.05"/><polygon class="cls-4" points="70.85 179.98 117.27 197.34 120.54 202.12 123.3 197.85 157.64 185.12 184.35 187.04 206.85 243.39 133.01 262.84 70.53 257.04 22.3 246.56 70.85 179.98"/></g><path class="cls-4" d="M106.45,151.35c1.12,2.48,2.26,5.69,1.28,12.5-.36,2.48-.99,6.81-4.19,10.55-2.04,2.38-4.18,3.43-13.73,7.03-5.19,1.96-8.14,3.03-9.92,3.67-1.86.67-2.44.88-2.68.97-5.87,2.18-11.98,10.58-14.21,14.79-4.27,8.08-13.07,36.46-1,57.78,20.31,35.91,94.66,42.51,118.58,8.54,14.93-21.21,8.71-56.1-3.85-69.34-10.27-10.83-19.09-12.73-19.09-12.73-5.37-1.17-9.23-1.03-13-3.54"/></g><g id="Blouse_Buttons"><circle class="cls-4" cx="125.94" cy="208.27" r="2.01"/><circle class="cls-4" cx="125.94" cy="214.49" r="2.01"/></g></g></g><path class="cls-4" d="M85.65,122.86v-.02"/><path class="cls-4" d="M134.62,153.87h0c-3.56,1.23-7.33,1.89-11.25,1.89-7.62,0-13.47-2.62-16.12-3.99-7.61-3.91-13.52-10.35-17.42-17.8"/><path id="Teeth" class="cls-4" d="M117.1,136.73c-.04.38,3.82,1.26,7.37,1.34,3.17.07,6.88-.46,6.87-.84-.02-.73-14.16-1.23-14.24-.5Z"/><g id="glasses"><path class="cls-4" d="M96.67,113.5v3.86c0,1.95,1.58,3.53,3.53,3.53h17.76c1.95,0,3.53-1.58,3.53-3.53v-8.36c0-.68-.19-1.32-.53-1.86-.62-1.01-1.73-1.68-3-1.68h-17.76c-.21,0-.42.02-.61.05"/><path class="cls-4" d="M151.03,105.87c-.49-.26-1.03-.4-1.62-.4h-17.77c-1.11,0-2.1.51-2.76,1.32-.48.61-.78,1.38-.78,2.22v8.36c0,1.95,1.58,3.53,3.53,3.53h17.77c1.95,0,3.53-1.58,3.53-3.53v-5.34"/><path class="cls-4" d="M121.5,110.43c.81-.49,2.01-1.01,3.49-1.09,1.21-.07,2.27.17,3.12.5"/><path class="cls-4" d="M120.97,107.15c1.04-.48,2.34-.87,3.85-.95,1.55-.08,2.92.19,4.06.59"/></g><g id="Hair"><path class="cls-4" d="M121.12,74.57c.25,6.53,17.87,6.13,24.96,19.6,1.91,3.63,3.54,7.56,5.02,11.89,2.05,5.97,3.53,12.22,3.85,15.24,1.49,13.91-15,20.26-22.11,36.01-10.96,24.29,7.23,55.72,9.55,55.27,1.23-.24-1.63-10.02,1-25.29.65-3.78,2.78-14.07,9.04-25.79,4.9-9.17,7.81-10.75,12.23-17.59,2.34-3.62,14.47-22.43,10.72-41.71-4.28-21.98-28.45-40.59-44.05-36.51-4.95,1.29-10.36,5.21-10.22,8.88Z"/><path class="cls-4" d="M128.16,76.42c-.12.3,9.55,1.74,17.67,10.06,8.3,8.5,9.76,18.81,10.47,18.58.63-.2.37-8.55-4.69-15.74-7.98-11.35-23.3-13.27-23.45-12.9Z"/><path class="cls-4" d="M148.12,143.86c-.35-.24-12.62,10.56-14.84,27.22-1.49,11.21,2.14,20.77,2.58,20.71.44-.06-2.55-9.69-.43-21.77,2.85-16.24,13.02-25.92,12.69-26.15Z"/><path class="cls-4" d="M131.74,65.6c-.82-.17-2.04-.39-3.53-.52-7.78-.69-13.8,1.81-16.97,3.13-20.72,8.61-28.81,26.63-28.81,26.63-12.64,28.38,10.71,61.41,12.06,60.97.94-.31-7.76-17.08-4.02-40.2,2.12-13.12,7.57-24.07,8.54-23.78,1.35.39-4.22,22.63-3.01,22.95.72.19,1.84-7.92,8.04-17.59,6.28-9.78,14.29-15.73,16.92-17.59.98-.69,1.82-1.24,2.4-1.61"/><path class="cls-4" d="M91.25,100.14c-2.07,5.31-4.35,13.04-4.52,22.44-.22,11.93,3.08,21.13,2.51,21.27-.49.12-3.03-6.84-4.19-14.57-.2-1.31-.72-5.1-.67-10.05.04-4,.06-6.28.84-9.04.62-2.19,2.09-6.06,6.03-10.05Z"/><path class="cls-4" d="M101.42,93.9c.21.14,1.75-2.16,5.13-6.02,5.61-6.41,9.47-9.31,9.24-9.59-.24-.3-4.97,2.41-9.06,7.08-3.5,4-5.58,8.34-5.3,8.53Z"/></g></g></svg>