<svg width="180" height="43" viewBox="0 0 180 43" fill="none" xmlns="http://www.w3.org/2000/svg">
<path fill-rule="evenodd" clip-rule="evenodd" d="M134.065 1.4114H139.981V8.47701H142.474V12.8252H139.981V24.8813C139.981 25.8376 139.97 27.8831 139.97 28.4392C139.97 29.8691 141.381 29.6692 142.474 29.5749C142.458 31.1397 142.486 32.6747 142.469 34.2394C139.379 34.4757 136.281 34.7904 134.798 32.7869C133.87 31.5333 134.113 28.9343 134.113 26.7591V12.8252C133.315 12.8088 132.516 12.7924 131.717 12.7755V8.4765H134.064V1.4114H134.065ZM18.7631 2.49589C17.9947 1.51288 16.6766 0.720009 15.3433 0.32178C13.8356 -0.128726 11.7187 0.0255429 9.82757 0.0255429H0.0491936L0 34.1215L6.35612 34.1707V19.8417C11.9855 19.8862 14.7794 19.9354 17.3968 18.0253C20.0036 16.1233 20.8272 12.9231 20.8287 9.61071C20.8302 6.95841 20.2206 4.35891 18.7631 2.49589ZM14.081 11.8878C13.1469 15.1721 10.4356 14.9051 6.35612 14.8512V5.01852C9.13277 5.04671 12.3932 4.70332 13.5435 6.2045C14.08 6.9046 14.2357 7.64212 14.3047 8.77376C14.3671 9.79624 14.3022 11.1129 14.0816 11.8878H14.081ZM67.0813 34.1707H61.2141V8.47701H67.0813C67.0976 9.34984 67.0748 10.2724 67.091 11.1452C67.1234 11.1288 67.1955 11.0632 67.2279 11.0463C67.872 9.5897 69.0663 8.58259 70.605 8.11261C72.022 7.68004 73.7392 7.70823 75.4225 8.16079C77.1006 8.82143 78.0698 10.0013 78.19 11.1057C78.2224 11.0893 78.2945 11.0632 78.3269 11.0463C79.6166 8.65947 81.456 7.83329 84.1105 7.78357C90.179 7.99166 90.4204 12.3266 90.4037 13.6345C90.4346 6.83131 90.355 34.1702 90.355 34.1702L84.4878 34.121V17.5686C84.4878 15.0701 84.6825 12.3296 81.701 12.3312C78.4436 12.447 78.7666 15.3899 78.7671 19.1005C78.7509 24.1238 78.7347 29.148 78.7184 34.1707C76.7629 34.1543 74.8068 34.1379 72.8512 34.1215V19.6438C72.8512 17.6681 73.189 14.7708 72.411 13.4674C71.9459 12.6884 70.7496 12.0964 69.2819 12.3804C66.918 12.8381 67.0814 15.5877 67.0819 18.4086V34.1707H67.0813ZM130.3 34.1707H124.433V18.1124C124.433 15.4058 124.625 12.8073 121.968 12.7955C118.786 12.7817 119.103 16.1659 119.104 18.9027C119.088 23.9915 119.071 29.0819 119.055 34.1707C117.099 34.1543 115.143 34.1379 113.187 34.1215V8.47701H119.103V11.096C119.136 11.0796 119.168 11.0632 119.201 11.0463C120.488 6.95124 127.518 6.78621 129.469 10.3052C130.511 12.1846 130.3 15.1803 130.3 18.1124V34.1707ZM179.975 16.3335H174.108C174.116 14.4935 174.125 12.3096 171.475 12.3096C169.83 12.3096 168.934 13.1876 168.921 14.3331C168.917 14.6842 168.875 15.0598 169.072 15.4437C169.661 16.5877 171.092 17.3242 172.104 18.013C173 18.6229 174.071 19.4111 175.129 20.1312C178.93 22.7184 180.001 24.3529 180.001 27.3665C180.001 29.3833 179.512 30.7794 179.144 31.4528C177.205 35.0051 171.003 35.2983 168.193 34.467C164.961 33.5111 162.448 30.6707 162.961 25.6716H168.828C168.663 27.4136 168.692 29.1465 169.695 29.9204C170.084 30.2202 170.632 30.2873 171.353 30.2873C173.07 30.2873 174.587 29.2977 173.913 27.0062C173.51 25.6393 172.025 25.0791 170.979 24.338C168.142 22.3264 164.754 20.531 163.499 16.9264C162.903 15.2156 162.842 12.6838 163.743 11.0468C165.467 7.91734 171.742 6.90972 176.211 8.57593C178.241 9.33292 180.108 11.955 179.976 16.3335H179.975ZM53.6358 8.47701H59.6496C57.8898 15.822 56.1289 23.1695 54.3691 30.5144C54.0359 32.136 53.511 34.0108 53.0809 35.8666C52.5677 38.0802 52.0606 40.1477 51.1147 41.1805C49.9001 42.7344 47.8086 43.3874 43.6616 42.7683C43.6779 41.2368 43.6941 39.7049 43.7103 38.173C44.9087 38.2135 46.8374 38.4918 47.1326 37.4811C47.4414 36.271 45.884 30.6835 45.5193 29.3279C43.8407 22.3945 42.162 15.4591 40.4833 8.52622V8.4765H46.6924C47.0996 10.6009 47.5074 12.7258 47.9146 14.8507C48.8011 19.4255 49.6617 24.1274 50.1146 28.8835C50.1471 28.8671 50.1795 28.8507 50.2125 28.8343C50.4118 26.1892 50.674 24.3185 51.0929 22.3617C51.9404 17.7342 52.7878 13.1051 53.6353 8.47701H53.6358ZM144.088 8.47701H150.004V24.3872C150.004 27.2179 149.642 29.9983 152.058 30.2668C154.201 30.5057 154.723 28.8451 154.991 27.4008C155.007 26.7258 155.023 26.0503 155.04 25.3753C155.056 19.7432 155.073 14.1091 155.089 8.4765H160.956V34.1702C159.082 34.1538 157.208 34.1374 155.333 34.121V30.3166C155.301 30.333 155.268 30.3494 155.235 30.3658C154.73 32.1478 153.665 33.6049 152.58 34.1405C149.566 35.6294 145.879 34.6187 144.919 32.7372C143.966 30.8706 144.087 27.6699 144.088 24.8316V8.47701H144.088ZM110.596 22.559C110.615 17.4466 110.924 11.8202 108.103 9.56407C106.415 8.21409 104.048 7.80254 101.708 7.7969C97.8781 7.78716 95.5041 9.12997 94.1683 11.2938C92.7503 13.5915 92.9952 16.396 92.9952 19.7925C92.9952 26.5162 92.6174 30.9475 96.7598 33.6772C97.5687 34.2102 98.7093 34.5233 99.7911 34.6653C107.75 35.7108 110.617 32.0801 110.499 25.4256H104.631C104.675 28.0266 104.477 29.824 102.284 30.2187C101.55 30.3504 100.612 30.1848 100.133 29.8727C98.4968 28.8082 98.8153 25.2903 98.8615 22.5601H110.596L110.596 22.559ZM100.329 12.5285C100.91 12.2907 102.039 12.2835 102.687 12.3998C105.034 12.8217 104.725 15.0398 104.729 17.9638H98.862C98.8224 15.5985 98.685 13.2025 100.329 12.5285H100.329ZM39.4594 30.8096C39.4594 26.363 39.4503 22.7066 39.4503 18.26C39.4503 15.0501 39.7515 12.1554 38.3852 10.3744C36.6579 7.98141 32.341 7.19827 27.0382 8.22947C23.6728 9.26476 22.1417 11.5752 22.198 16.0859H27.8208C27.6331 14.5007 28.1722 12.9421 29.3361 12.5285C30.4569 12.2651 32.4668 12.2061 33.1093 12.794C33.759 13.347 33.8112 14.6186 33.6388 15.5426C33.1276 17.2873 30.5386 18.0068 28.8472 18.7423C25.9737 19.9923 23.2519 21.351 22.2954 24.5353C22.0109 25.4835 21.9515 26.956 22.0509 28.1424C22.3821 32.0955 23.4441 34.0072 27.1001 34.714C27.729 34.8355 29.22 34.8519 29.9153 34.6884C32.4237 34.0984 33.5617 32.0402 34.0298 31.502C34.004 32.4461 34.0105 33.4916 34.4092 34.1246C34.7885 34.1384 39.1657 34.1241 39.9457 34.1138C39.7992 33.2574 39.541 32.5168 39.4594 30.8091V30.8096ZM33.5896 24.3872C33.5896 27.5536 33.0754 31.6358 29.2869 30.0695C27.8923 29.4929 27.4683 26.6484 28.1626 24.8813C29.0035 22.74 32.0707 22.2854 33.4917 20.6812C33.7428 20.9677 33.5896 23.7409 33.5896 24.3872Z" fill="white"/>
</svg>
